RobotoSerifDisplay-SuperCondItalic 00m.ufo
<glyph name="exclam" format="2">
  <advance width="255"/>
  <unicode hex="0021"/>
  <outline>
    <contour>
      <point x="319" y="731" type="line"/>
      <point x="284" y="541"/>
      <point x="191" y="436"/>
      <point x="164" y="251" type="curve"/>
      <point x="104" y="251" type="line"/>
      <point x="131" y="434"/>
      <point x="78" y="541"/>
      <point x="112" y="731" type="curve"/>
    </contour>
    <component base="period" xOffset="3"/>
  </outline>
</glyph>
<glyph name="plus" format="2">
  <advance width="423"/>
  <unicode hex="002B"/>
  <outline>
    <contour>
      <point x="241" y="568" type="line"/>
      <point x="158" y="114" type="line"/>
      <point x="207" y="114" type="line"/>
      <point x="289" y="568" type="line"/>
    </contour>
    <contour>
      <point x="401" y="364" type="line"/>
      <point x="57" y="364" type="line"/>
      <point x="49" y="318" type="line"/>
      <point x="392" y="318" type="line"/>
    </contour>
  </outline>
</glyph>
<glyph name="zero" format="2">
  <advance width="423"/>
  <unicode hex="0030"/>
  <outline>
    <contour>
      <point x="190" y="-10" type="curve" smooth="yes"/>
      <point x="359" y="-10"/>
      <point x="427" y="193"/>
      <point x="434" y="355" type="curve" smooth="yes"/>
      <point x="441" y="510"/>
      <point x="381" y="619"/>
      <point x="262" y="619" type="curve" smooth="yes"/>
      <point x="91" y="619"/>
      <point x="22" y="415"/>
      <point x="15" y="253" type="curve" smooth="yes"/>
      <point x="8" y="98"/>
      <point x="69" y="-10"/>
    </contour>
    <contour>
      <point x="180" y="36" type="curve" smooth="yes"/>
      <point x="174" y="36"/>
      <point x="174" y="61"/>
      <point x="176" y="108" type="curve" smooth="yes"/>
      <point x="178" y="154"/>
      <point x="194" y="242"/>
      <point x="208" y="326" type="curve" smooth="yes"/>
      <point x="241" y="499"/>
      <point x="254" y="573"/>
      <point x="271" y="573" type="curve" smooth="yes"/>
      <point x="277" y="573"/>
      <point x="276" y="546"/>
      <point x="274" y="499" type="curve" smooth="yes"/>
      <point x="272" y="457"/>
      <point x="257" y="367"/>
      <point x="240" y="284" type="curve" smooth="yes"/>
      <point x="210" y="119"/>
      <point x="196" y="36"/>
    </contour>
  </outline>
</glyph>
<glyph name="one" format="2">
  <advance width="423"/>
  <unicode hex="0031"/>
  <outline>
    <contour>
      <point x="308" y="77" type="curve" smooth="yes"/>
      <point x="404" y="609" type="line"/>
      <point x="284" y="609" type="line"/>
      <point x="226" y="549"/>
      <point x="186" y="523"/>
      <point x="77" y="523" type="curve"/>
      <point x="53" y="409" type="line"/>
      <point x="117" y="420"/>
      <point x="169" y="469"/>
      <point x="209" y="540" type="curve"/>
      <point x="194" y="538" type="line"/>
      <point x="114" y="77" type="line" smooth="yes"/>
      <point x="109" y="46"/>
      <point x="69" y="39"/>
      <point x="27" y="39" type="curve" smooth="yes"/>
      <point x="6" y="39" type="line"/>
      <point x="0" y="0" type="line"/>
      <point x="385" y="0" type="line"/>
      <point x="393" y="39" type="line"/>
      <point x="382" y="39" type="line" smooth="yes"/>
      <point x="336" y="39"/>
      <point x="304" y="46"/>
    </contour>
  </outline>
</glyph>
<glyph name="two" format="2">
  <advance width="423"/>
  <unicode hex="0032"/>
  <outline>
    <contour>
      <point x="-26" y="0" type="line"/>
      <point x="-3" y="111" type="line"/>
      <point x="231" y="250"/>
      <point x="246" y="378"/>
      <point x="250" y="484" type="curve" smooth="yes"/>
      <point x="253" y="548"/>
      <point x="240" y="572"/>
      <point x="219" y="572" type="curve" smooth="yes"/>
      <point x="211" y="572"/>
      <point x="202" y="568"/>
      <point x="181" y="549" type="curve"/>
      <point x="173" y="564"/>
      <point x="184" y="577"/>
      <point x="213" y="587" type="curve"/>
      <point x="181" y="423" type="line"/>
      <point x="50" y="423" type="line"/>
      <point x="75" y="552" type="line"/>
      <point x="109" y="584"/>
      <point x="176" y="618"/>
      <point x="248" y="618" type="curve" smooth="yes"/>
      <point x="366" y="618"/>
      <point x="434" y="560"/>
      <point x="430" y="455" type="curve" smooth="yes"/>
      <point x="424" y="313"/>
      <point x="282" y="219"/>
      <point x="82" y="125" type="curve"/>
      <point x="83" y="138" type="line"/>
      <point x="266" y="138" type="line" smooth="yes"/>
      <point x="322" y="138"/>
      <point x="339" y="143"/>
      <point x="353" y="185" type="curve" smooth="yes"/>
      <point x="374" y="253" type="line"/>
      <point x="409" y="253" type="line"/>
      <point x="361" y="0" type="line"/>
    </contour>
  </outline>
</glyph>
<glyph name="four" format="2">
  <advance width="423"/>
  <unicode hex="0034"/>
  <outline>
    <contour>
      <point x="-13" y="80" type="line"/>
      <point x="391" y="80" type="line"/>
      <point x="416" y="203" type="line"/>
      <point x="60" y="203" type="line"/>
      <point x="56" y="166" type="line"/>
      <point x="330" y="583" type="line"/>
      <point x="329" y="609" type="line"/>
      <point x="303" y="609" type="line"/>
      <point x="6" y="175" type="line"/>
    </contour>
    <contour>
      <point x="326" y="-77" type="line"/>
      <point x="447" y="609" type="line"/>
      <point x="313" y="609" type="line"/>
      <point x="236" y="500" type="line"/>
      <point x="140" y="-77" type="line"/>
    </contour>
  </outline>
</glyph>
<glyph name="five" format="2">
  <advance width="423"/>
  <unicode hex="0035"/>
  <outline>
    <contour>
      <point x="166" y="-90" type="curve" smooth="yes"/>
      <point x="301" y="-90"/>
      <point x="394" y="13"/>
      <point x="400" y="165" type="curve" smooth="yes"/>
      <point x="405" y="281"/>
      <point x="352" y="366"/>
      <point x="254" y="366" type="curve" smooth="yes"/>
      <point x="187" y="366"/>
      <point x="139" y="341"/>
      <point x="92" y="274" type="curve"/>
      <point x="100" y="262" type="line"/>
      <point x="139" y="496" type="line"/>
      <point x="120" y="469" type="line"/>
      <point x="395" y="469" type="line"/>
      <point x="433" y="609" type="line"/>
      <point x="124" y="609" type="line"/>
      <point x="50" y="209" type="line"/>
      <point x="84" y="209" type="line"/>
      <point x="105" y="265"/>
      <point x="139" y="301"/>
      <point x="173" y="301" type="curve" smooth="yes"/>
      <point x="215" y="301"/>
      <point x="221" y="248"/>
      <point x="218" y="176" type="curve" smooth="yes"/>
      <point x="213" y="72"/>
      <point x="194" y="-39"/>
      <point x="122" y="-39" type="curve" smooth="yes"/>
      <point x="68" y="-39"/>
      <point x="33" y="18"/>
      <point x="23" y="104" type="curve"/>
      <point x="-19" y="81" type="line"/>
      <point x="-6" y="-14"/>
      <point x="41" y="-90"/>
    </contour>
  </outline>
</glyph>
<glyph name="six" format="2">
  <advance width="423"/>
  <unicode hex="0036"/>
  <outline>
    <contour>
      <point x="204" y="-10" type="curve" smooth="yes"/>
      <point x="331" y="-10"/>
      <point x="419" y="98"/>
      <point x="427" y="276" type="curve" smooth="yes"/>
      <point x="432" y="390"/>
      <point x="388" y="453"/>
      <point x="322" y="453" type="curve" smooth="yes"/>
      <point x="287" y="453"/>
      <point x="252" y="423"/>
      <point x="228" y="376" type="curve"/>
      <point x="216" y="343" type="line"/>
      <point x="223" y="370"/>
      <point x="227" y="387"/>
      <point x="230" y="387" type="curve" smooth="yes"/>
      <point x="243" y="387"/>
      <point x="245" y="356"/>
      <point x="243" y="311" type="curve" smooth="yes"/>
      <point x="241" y="269"/>
      <point x="234" y="219"/>
      <point x="225" y="171" type="curve" smooth="yes"/>
      <point x="209" y="72"/>
      <point x="208" y="36"/>
      <point x="197" y="36" type="curve" smooth="yes"/>
      <point x="190" y="36"/>
      <point x="190" y="67"/>
      <point x="193" y="145" type="curve" smooth="yes"/>
      <point x="196" y="217"/>
      <point x="210" y="301"/>
      <point x="235" y="379" type="curve" smooth="yes"/>
      <point x="276" y="543"/>
      <point x="331" y="664"/>
      <point x="453" y="699" type="curve"/>
      <point x="455" y="740" type="line"/>
      <point x="195" y="706"/>
      <point x="28" y="489"/>
      <point x="18" y="251" type="curve" smooth="yes"/>
      <point x="10" y="73"/>
      <point x="87" y="-10"/>
    </contour>
  </outline>
</glyph>
<glyph name="eight" format="2">
  <advance width="423"/>
  <unicode hex="0038"/>
  <outline>
    <contour>
      <point x="185" y="36" type="curve" smooth="yes"/>
      <point x="179" y="36"/>
      <point x="179" y="64"/>
      <point x="181" y="107" type="curve" smooth="yes"/>
      <point x="182" y="139"/>
      <point x="189" y="177"/>
      <point x="198" y="221" type="curve" smooth="yes"/>
      <point x="217" y="320"/>
      <point x="223" y="353"/>
      <point x="236" y="353" type="curve" smooth="yes"/>
      <point x="243" y="353"/>
      <point x="241" y="325"/>
      <point x="239" y="283" type="curve" smooth="yes"/>
      <point x="238" y="254"/>
      <point x="234" y="227"/>
      <point x="226" y="190" type="curve" smooth="yes"/>
      <point x="205" y="76"/>
      <point x="198" y="36"/>
    </contour>
    <contour>
      <point x="248" y="399" type="curve" smooth="yes"/>
      <point x="243" y="399"/>
      <point x="240" y="419"/>
      <point x="242" y="459" type="curve" smooth="yes"/>
      <point x="243" y="481"/>
      <point x="245" y="507"/>
      <point x="255" y="550" type="curve" smooth="yes"/>
      <point x="271" y="639"/>
      <point x="279" y="674"/>
      <point x="293" y="674" type="curve" smooth="yes"/>
      <point x="301" y="674"/>
      <point x="300" y="651"/>
      <point x="299" y="617" type="curve" smooth="yes"/>
      <point x="298" y="585"/>
      <point x="291" y="552"/>
      <point x="282" y="515" type="curve" smooth="yes"/>
      <point x="268" y="429"/>
      <point x="259" y="399"/>
    </contour>
    <contour>
      <point x="200" y="-10" type="curve" smooth="yes"/>
      <point x="332" y="-10"/>
      <point x="417" y="86"/>
      <point x="422" y="206" type="curve" smooth="yes"/>
      <point x="426" y="289"/>
      <point x="397" y="365"/>
      <point x="291" y="387" type="curve"/>
      <point x="298" y="362" type="line"/>
      <point x="305" y="388" type="line"/>
      <point x="285" y="370" type="line"/>
      <point x="415" y="383"/>
      <point x="459" y="468"/>
      <point x="463" y="551" type="curve" smooth="yes"/>
      <point x="467" y="650"/>
      <point x="401" y="720"/>
      <point x="281" y="720" type="curve" smooth="yes"/>
      <point x="161" y="720"/>
      <point x="81" y="644"/>
      <point x="76" y="538" type="curve" smooth="yes"/>
      <point x="73" y="459"/>
      <point x="119" y="398"/>
      <point x="193" y="377" type="curve"/>
      <point x="176" y="399" type="line"/>
      <point x="170" y="374" type="line"/>
      <point x="197" y="393" type="line"/>
      <point x="73" y="382"/>
      <point x="7" y="301"/>
      <point x="2" y="193" type="curve" smooth="yes"/>
      <point x="-3" y="69"/>
      <point x="74" y="-10"/>
    </contour>
  </outline>
</glyph>
<glyph name="nine" format="2">
  <advance width="423"/>
  <unicode hex="0039"/>
  <outline>
    <contour>
      <point x="254" y="619" type="curve" smooth="yes"/>
      <point x="378" y="619"/>
      <point x="440" y="538"/>
      <point x="433" y="376" type="curve" smooth="yes"/>
      <point x="422" y="121"/>
      <point x="256" y="-86"/>
      <point x="-5" y="-103" type="curve"/>
      <point x="-3" y="-61" type="line"/>
      <point x="156" y="-28"/>
      <point x="177" y="92"/>
      <point x="217" y="241" type="curve" smooth="yes"/>
      <point x="239" y="303"/>
      <point x="261" y="412"/>
      <point x="264" y="490" type="curve" smooth="yes"/>
      <point x="267" y="543"/>
      <point x="268" y="573"/>
      <point x="262" y="573" type="curve" smooth="yes"/>
      <point x="251" y="573"/>
      <point x="243" y="535"/>
      <point x="231" y="452" type="curve" smooth="yes"/>
      <point x="218" y="387"/>
      <point x="214" y="346"/>
      <point x="213" y="316" type="curve" smooth="yes"/>
      <point x="211" y="270"/>
      <point x="214" y="242"/>
      <point x="227" y="242" type="curve" smooth="yes"/>
      <point x="229" y="242"/>
      <point x="233" y="258"/>
      <point x="240" y="286" type="curve"/>
      <point x="227" y="243" type="line"/>
      <point x="201" y="205"/>
      <point x="178" y="177"/>
      <point x="147" y="177" type="curve" smooth="yes"/>
      <point x="69" y="177"/>
      <point x="24" y="254"/>
      <point x="29" y="362" type="curve" smooth="yes"/>
      <point x="35" y="515"/>
      <point x="121" y="619"/>
    </contour>
  </outline>
</glyph>
<glyph name="less" format="2">
  <advance width="423"/>
  <unicode hex="003C"/>
  <outline>
    <contour>
      <point x="338" y="140" type="line"/>
      <point x="74" y="317" type="line"/>
      <point x="83" y="373" type="line"/>
      <point x="411" y="549" type="line"/>
      <point x="398" y="490" type="line"/>
      <point x="103" y="331" type="line"/>
      <point x="107" y="354" type="line"/>
      <point x="350" y="196" type="line"/>
    </contour>
  </outline>
</glyph>
<glyph name="B" format="2">
  <advance width="576"/>
  <unicode hex="0042"/>
  <outline>
    <contour>
      <point x="290" y="348" type="line" smooth="yes"/>
      <point x="331" y="348"/>
      <point x="348" y="308"/>
      <point x="345" y="225" type="curve" smooth="yes"/>
      <point x="341" y="141"/>
      <point x="315" y="47"/>
      <point x="250" y="47" type="curve" smooth="yes"/>
      <point x="231" y="47" type="line"/>
      <point x="283" y="348" type="line"/>
    </contour>
    <contour>
      <point x="352" y="663" type="line" smooth="yes"/>
      <point x="376" y="663"/>
      <point x="386" y="637"/>
      <point x="383" y="565" type="curve" smooth="yes"/>
      <point x="379" y="473"/>
      <point x="347" y="393"/>
      <point x="295" y="393" type="curve" smooth="yes"/>
      <point x="292" y="393" type="line"/>
      <point x="338" y="663" type="line"/>
    </contour>
    <contour>
      <point x="397" y="375" type="line"/>
      <point x="515" y="377"/>
      <point x="591" y="453"/>
      <point x="595" y="548" type="curve" smooth="yes"/>
      <point x="599" y="641"/>
      <point x="547" y="710"/>
      <point x="391" y="710" type="curve" smooth="yes"/>
      <point x="97" y="710" type="line"/>
      <point x="88" y="670" type="line"/>
      <point x="96" y="670" type="line" smooth="yes"/>
      <point x="113" y="670"/>
      <point x="123" y="664"/>
      <point x="120" y="638" type="curve" smooth="yes"/>
      <point x="20" y="71" type="line" smooth="yes"/>
      <point x="15" y="46"/>
      <point x="4" y="40"/>
      <point x="-14" y="40" type="curve" smooth="yes"/>
      <point x="-21" y="40" type="line"/>
      <point x="-30" y="0" type="line"/>
      <point x="324" y="0" type="line" smooth="yes"/>
      <point x="473" y="0"/>
      <point x="555" y="83"/>
      <point x="560" y="208" type="curve" smooth="yes"/>
      <point x="564" y="305"/>
      <point x="507" y="363"/>
      <point x="401" y="384" type="curve"/>
      <point x="406" y="368" type="line"/>
      <point x="411" y="392" type="line"/>
    </contour>
  </outline>
</glyph>
<glyph name="E" format="2">
  <advance width="492"/>
  <unicode hex="0045"/>
  <anchor x="340" y="741" name="top"/>
  <anchor x="374" y="0" name="right"/>
  <anchor x="308" y="0" name="bottom"/>
  <outline>
    <contour>
      <point x="471" y="213" type="line"/>
      <point x="433" y="213" type="line"/>
      <point x="392" y="95" type="line" smooth="yes"/>
      <point x="381" y="58"/>
      <point x="361" y="48"/>
      <point x="305" y="48" type="curve" smooth="yes"/>
      <point x="232" y="48" type="line"/>
      <point x="337" y="662" type="line"/>
      <point x="411" y="662" type="line" smooth="yes"/>
      <point x="444" y="662"/>
      <point x="466" y="652"/>
      <point x="465" y="616" type="curve" smooth="yes"/>
      <point x="465" y="522" type="line"/>
      <point x="501" y="522" type="line"/>
      <point x="535" y="710" type="line"/>
      <point x="97" y="710" type="line"/>
      <point x="88" y="670" type="line"/>
      <point x="96" y="670" type="line" smooth="yes"/>
      <point x="112" y="670"/>
      <point x="123" y="663"/>
      <point x="119" y="634" type="curve" smooth="yes"/>
      <point x="20" y="75" type="line" smooth="yes"/>
      <point x="15" y="47"/>
      <point x="4" y="40"/>
      <point x="-14" y="40" type="curve" smooth="yes"/>
      <point x="-21" y="40" type="line"/>
      <point x="-30" y="0" type="line"/>
      <point x="433" y="0" type="line"/>
    </contour>
    <contour>
      <point x="268" y="385" type="curve"/>
      <point x="260" y="342" type="line"/>
      <point x="330" y="338"/>
      <point x="379" y="329"/>
      <point x="425" y="312" type="curve"/>
      <point x="444" y="414" type="line"/>
      <point x="392" y="399"/>
      <point x="339" y="391"/>
    </contour>
  </outline>
</glyph>
<glyph name="F" format="2">
  <advance width="476"/>
  <unicode hex="0046"/>
  <outline>
    <contour>
      <point x="-30" y="0" type="line"/>
      <point x="274" y="0" type="line"/>
      <point x="282" y="40" type="line"/>
      <point x="269" y="40" type="line" smooth="yes"/>
      <point x="251" y="40"/>
      <point x="230" y="41"/>
      <point x="235" y="74" type="curve" smooth="yes"/>
      <point x="337" y="662" type="line"/>
      <point x="418" y="662" type="line" smooth="yes"/>
      <point x="451" y="662"/>
      <point x="472" y="652"/>
      <point x="472" y="616" type="curve" smooth="yes"/>
      <point x="472" y="522" type="line"/>
      <point x="507" y="522" type="line"/>
      <point x="542" y="710" type="line"/>
      <point x="97" y="710" type="line"/>
      <point x="88" y="670" type="line"/>
      <point x="96" y="670" type="line" smooth="yes"/>
      <point x="112" y="670"/>
      <point x="123" y="663"/>
      <point x="119" y="634" type="curve" smooth="yes"/>
      <point x="20" y="75" type="line" smooth="yes"/>
      <point x="15" y="47"/>
      <point x="4" y="40"/>
      <point x="-14" y="40" type="curve" smooth="yes"/>
      <point x="-21" y="40" type="line"/>
    </contour>
    <contour>
      <point x="267" y="379" type="curve"/>
      <point x="259" y="336" type="line"/>
      <point x="329" y="332"/>
      <point x="380" y="323"/>
      <point x="427" y="307" type="curve"/>
      <point x="447" y="409" type="line"/>
      <point x="394" y="393"/>
      <point x="339" y="385"/>
    </contour>
  </outline>
</glyph>
<glyph name="J" format="2">
  <advance width="482"/>
  <unicode hex="004A"/>
  <anchor x="380" y="741" name="top"/>
  <outline>
    <contour>
      <point x="287" y="637" type="curve" smooth="yes"/>
      <point x="206" y="193" type="line" smooth="yes"/>
      <point x="189" y="75"/>
      <point x="176" y="41"/>
      <point x="148" y="41" type="curve" smooth="yes"/>
      <point x="138" y="41"/>
      <point x="124" y="47"/>
      <point x="106" y="70" type="curve"/>
      <point x="102" y="54"/>
      <point x="104" y="40"/>
      <point x="113" y="27" type="curve"/>
      <point x="145" y="193" type="line"/>
      <point x="6" y="193" type="line"/>
      <point x="-17" y="67" type="line"/>
      <point x="12" y="32"/>
      <point x="85" y="-10"/>
      <point x="175" y="-10" type="curve" smooth="yes"/>
      <point x="310" y="-10"/>
      <point x="403" y="60"/>
      <point x="431" y="230" type="curve" smooth="yes"/>
      <point x="503" y="637" type="line" smooth="yes"/>
      <point x="508" y="664"/>
      <point x="520" y="670"/>
      <point x="537" y="670" type="curve" smooth="yes"/>
      <point x="545" y="670" type="line"/>
      <point x="553" y="710" type="line"/>
      <point x="254" y="710" type="line"/>
      <point x="245" y="670" type="line"/>
      <point x="265" y="670" type="line" smooth="yes"/>
      <point x="282" y="670"/>
      <point x="293" y="664"/>
    </contour>
  </outline>
</glyph>
<glyph name="M" format="2">
  <advance width="720"/>
  <unicode hex="004D"/>
  <anchor x="347" y="0" name="bottom"/>
  <outline>
    <contour>
      <point x="-31" y="0" type="line"/>
      <point x="87" y="0" type="line"/>
      <point x="95" y="40" type="line"/>
      <point x="90" y="40" type="line" smooth="yes"/>
      <point x="75" y="40"/>
      <point x="59" y="43"/>
      <point x="60" y="54" type="curve" smooth="yes"/>
      <point x="172" y="692" type="line"/>
      <point x="161" y="691" type="line"/>
      <point x="180" y="0" type="line"/>
      <point x="283" y="0" type="line"/>
      <point x="543" y="690" type="line"/>
      <point x="533" y="692" type="line"/>
      <point x="421" y="51" type="line" smooth="yes"/>
      <point x="420" y="43"/>
      <point x="406" y="40"/>
      <point x="389" y="40" type="curve" smooth="yes"/>
      <point x="383" y="40" type="line"/>
      <point x="375" y="0" type="line"/>
      <point x="664" y="0" type="line"/>
      <point x="671" y="40" type="line"/>
      <point x="663" y="40" type="line"/>
      <point x="646" y="40"/>
      <point x="635" y="46"/>
      <point x="639" y="72" type="curve" smooth="yes"/>
      <point x="740" y="638" type="line" smooth="yes"/>
      <point x="743" y="664"/>
      <point x="756" y="670"/>
      <point x="773" y="670" type="curve" smooth="yes"/>
      <point x="781" y="670" type="line"/>
      <point x="789" y="710" type="line"/>
      <point x="505" y="710" type="line"/>
      <point x="350" y="231" type="line"/>
      <point x="372" y="231" type="line"/>
      <point x="382" y="710" type="line"/>
      <point x="95" y="710" type="line"/>
      <point x="87" y="670" type="line"/>
      <point x="94" y="670" type="line" smooth="yes"/>
      <point x="111" y="670"/>
      <point x="122" y="664"/>
      <point x="118" y="638" type="curve" smooth="yes"/>
      <point x="18" y="77" type="line" smooth="yes"/>
      <point x="14" y="48"/>
      <point x="2" y="40"/>
      <point x="-15" y="40" type="curve"/>
      <point x="-23" y="40" type="line"/>
    </contour>
  </outline>
</glyph>
<glyph name="O" format="2">
  <advance width="613"/>
  <unicode hex="004F"/>
  <anchor x="338" y="741" name="top"/>
  <anchor x="306" y="0" name="bottom"/>
  <outline>
    <contour>
      <point x="617" y="392" type="curve" smooth="yes"/>
      <point x="626" y="588"/>
      <point x="523" y="720"/>
      <point x="366" y="720" type="curve" smooth="yes"/>
      <point x="161" y="720"/>
      <point x="40" y="538"/>
      <point x="31" y="318" type="curve" smooth="yes"/>
      <point x="22" y="122"/>
      <point x="125" y="-10"/>
      <point x="281" y="-10" type="curve" smooth="yes"/>
      <point x="487" y="-10"/>
      <point x="608" y="172"/>
    </contour>
    <contour>
      <point x="275" y="39" type="curve" smooth="yes"/>
      <point x="254" y="39"/>
      <point x="234" y="78"/>
      <point x="240" y="195" type="curve" smooth="yes"/>
      <point x="241" y="240"/>
      <point x="250" y="299"/>
      <point x="264" y="369" type="curve" smooth="yes"/>
      <point x="301" y="571"/>
      <point x="329" y="671"/>
      <point x="370" y="671" type="curve" smooth="yes"/>
      <point x="392" y="671"/>
      <point x="410" y="628"/>
      <point x="405" y="512" type="curve" smooth="yes"/>
      <point x="403" y="465"/>
      <point x="396" y="408"/>
      <point x="382" y="340" type="curve" smooth="yes"/>
      <point x="344" y="132"/>
      <point x="316" y="39"/>
    </contour>
  </outline>
</glyph>
<glyph name="T" format="2">
  <advance width="542"/>
  <unicode hex="0054"/>
  <anchor x="298" y="741" name="top"/>
  <anchor x="266" y="0" name="bottom"/>
  <outline>
    <contour>
      <point x="130" y="72" type="line" smooth="yes"/>
      <point x="127" y="46"/>
      <point x="116" y="40"/>
      <point x="99" y="40" type="curve" smooth="yes"/>
      <point x="89" y="40" type="line"/>
      <point x="80" y="0" type="line"/>
      <point x="370" y="0" type="line"/>
      <point x="379" y="40" type="line"/>
      <point x="368" y="40" type="line" smooth="yes"/>
      <point x="352" y="40"/>
      <point x="342" y="46"/>
      <point x="346" y="72" type="curve" smooth="yes"/>
      <point x="449" y="661" type="line"/>
      <point x="498" y="661" type="line" smooth="yes"/>
      <point x="529" y="661"/>
      <point x="539" y="652"/>
      <point x="537" y="615" type="curve" smooth="yes"/>
      <point x="528" y="488" type="line"/>
      <point x="565" y="488" type="line"/>
      <point x="607" y="710" type="line"/>
      <point x="96" y="710" type="line"/>
      <point x="55" y="488" type="line"/>
      <point x="91" y="488" type="line"/>
      <point x="137" y="614" type="line" smooth="yes"/>
      <point x="146" y="650"/>
      <point x="159" y="661"/>
      <point x="192" y="661" type="curve" smooth="yes"/>
      <point x="234" y="661" type="line"/>
    </contour>
  </outline>
</glyph>
<glyph name="bracketleft" format="2">
  <advance width="243"/>
  <unicode hex="005B"/>
  <outline>
    <contour>
      <point x="165" y="-90" type="line"/>
      <point x="92" y="-90" type="line"/>
      <point x="232" y="710" type="line"/>
      <point x="306" y="710" type="line"/>
      <point x="314" y="750" type="line"/>
      <point x="120" y="750" type="line"/>
      <point x="-37" y="-130" type="line"/>
      <point x="157" y="-130" type="line"/>
    </contour>
  </outline>
</glyph>
<glyph name="backslash" format="2">
  <advance width="330"/>
  <unicode hex="005C"/>
  <outline>
    <contour>
      <point x="76" y="734" type="line"/>
      <point x="29" y="734" type="line"/>
      <point x="273" y="-146" type="line"/>
      <point x="320" y="-146" type="line"/>
    </contour>
  </outline>
</glyph>
<glyph name="underscore" format="2">
  <advance width="295"/>
  <unicode hex="005F"/>
  <outline>
    <contour>
      <point x="-55" y="-71" type="line"/>
      <point x="-68" y="-133" type="line"/>
      <point x="235" y="-133" type="line"/>
      <point x="247" y="-71" type="line"/>
    </contour>
  </outline>
</glyph>
<glyph name="grave" format="2">
  <advance width="378"/>
  <unicode hex="0060"/>
  <anchor x="196" y="531" name="_top"/>
  <outline>
    <contour>
      <point x="207" y="706" type="curve" smooth="yes"/>
      <point x="244" y="583" type="line"/>
      <point x="244" y="566" type="line"/>
      <point x="197" y="566" type="line"/>
      <point x="113" y="634" type="line" smooth="yes"/>
      <point x="86" y="652"/>
      <point x="61" y="682"/>
      <point x="62" y="720" type="curve" smooth="yes"/>
      <point x="64" y="759"/>
      <point x="88" y="789"/>
      <point x="131" y="789" type="curve" smooth="yes"/>
      <point x="180" y="789"/>
      <point x="195" y="751"/>
    </contour>
  </outline>
</glyph>
<glyph name="a" format="2">
  <advance width="512"/>
  <unicode hex="0061"/>
  <anchor x="253" y="523" name="top"/>
  <anchor x="424" y="-10" name="right"/>
  <anchor x="264" y="0" name="bottom"/>
  <outline>
    <contour>
      <point x="385" y="-10" type="curve" smooth="yes"/>
      <point x="430" y="-10"/>
      <point x="470" y="8"/>
      <point x="488" y="21" type="curve"/>
      <point x="494" y="58" type="line"/>
      <point x="493" y="56"/>
      <point x="488" y="48"/>
      <point x="478" y="48" type="curve" smooth="yes"/>
      <point x="465" y="48"/>
      <point x="458" y="54"/>
      <point x="459" y="74" type="curve" smooth="yes"/>
      <point x="460" y="95"/>
      <point x="470" y="140"/>
      <point x="482" y="194" type="curve"/>
      <point x="536" y="524" type="line"/>
      <point x="414" y="524" type="line"/>
      <point x="340" y="484" type="line"/>
      <point x="330" y="479" type="line"/>
      <point x="263" y="125" type="line"/>
      <point x="268" y="127" type="line"/>
      <point x="268" y="123"/>
      <point x="269" y="118"/>
      <point x="269" y="114" type="curve"/>
      <point x="266" y="36"/>
      <point x="309" y="-10"/>
    </contour>
    <contour>
      <point x="151" y="-10" type="curve" smooth="yes"/>
      <point x="231" y="-10"/>
      <point x="274" y="69"/>
      <point x="323" y="201" type="curve"/>
      <point x="295" y="221" type="line"/>
      <point x="272" y="129"/>
      <point x="250" y="76"/>
      <point x="236" y="76" type="curve" smooth="yes"/>
      <point x="226" y="76"/>
      <point x="221" y="98"/>
      <point x="224" y="157" type="curve" smooth="yes"/>
      <point x="229" y="281"/>
      <point x="265" y="477"/>
      <point x="315" y="477" type="curve" smooth="yes"/>
      <point x="328" y="477"/>
      <point x="340" y="460"/>
      <point x="343" y="431" type="curve"/>
      <point x="365" y="469" type="line"/>
      <point x="348" y="507"/>
      <point x="319" y="533"/>
      <point x="263" y="533" type="curve" smooth="yes"/>
      <point x="118" y="533"/>
      <point x="27" y="363"/>
      <point x="19" y="188" type="curve" smooth="yes"/>
      <point x="14" y="66"/>
      <point x="62" y="-10"/>
    </contour>
  </outline>
</glyph>
<glyph name="b" format="2">
  <advance width="522"/>
  <unicode hex="0062"/>
  <outline>
    <contour>
      <point x="249" y="-10" type="curve" smooth="yes"/>
      <point x="413" y="-10"/>
      <point x="515" y="161"/>
      <point x="522" y="329" type="curve" smooth="yes"/>
      <point x="528" y="469"/>
      <point x="477" y="533"/>
      <point x="409" y="533" type="curve" smooth="yes"/>
      <point x="321" y="533"/>
      <point x="267" y="451"/>
      <point x="216" y="318" type="curve"/>
      <point x="229" y="300" type="line"/>
      <point x="260" y="393"/>
      <point x="281" y="438"/>
      <point x="300" y="438" type="curve" smooth="yes"/>
      <point x="315" y="438"/>
      <point x="319" y="408"/>
      <point x="316" y="343" type="curve" smooth="yes"/>
      <point x="311" y="220"/>
      <point x="269" y="32"/>
      <point x="223" y="32" type="curve" smooth="yes"/>
      <point x="194" y="32"/>
      <point x="189" y="66"/>
      <point x="199" y="114" type="curve"/>
      <point x="159" y="84"/>
      <point x="165" y="47"/>
      <point x="202" y="23" type="curve"/>
      <point x="331" y="750" type="line"/>
      <point x="103" y="750" type="line"/>
      <point x="96" y="712" type="line"/>
      <point x="105" y="710" type="line" smooth="yes"/>
      <point x="114" y="706"/>
      <point x="119" y="699"/>
      <point x="116" y="680" type="curve" smooth="yes"/>
      <point x="9" y="71" type="line"/>
      <point x="50" y="29"/>
      <point x="128" y="-10"/>
    </contour>
  </outline>
</glyph>
<glyph name="e" format="2">
  <advance width="440"/>
  <unicode hex="0065"/>
  <anchor x="248" y="523" name="top"/>
  <anchor x="388" y="1" name="right"/>
  <anchor x="247" y="0" name="bottom"/>
  <outline>
    <contour>
      <point x="227" y="-10" type="curve" smooth="yes"/>
      <point x="333" y="-10"/>
      <point x="393" y="56"/>
      <point x="423" y="140" type="curve"/>
      <point x="394" y="165" type="line"/>
      <point x="365" y="101"/>
      <point x="334" y="60"/>
      <point x="299" y="60" type="curve" smooth="yes"/>
      <point x="250" y="60"/>
      <point x="225" y="106"/>
      <point x="229" y="217" type="curve" smooth="yes"/>
      <point x="236" y="363"/>
      <point x="262" y="486"/>
      <point x="289" y="486" type="curve" smooth="yes"/>
      <point x="300" y="486"/>
      <point x="303" y="464"/>
      <point x="302" y="433" type="curve" smooth="yes"/>
      <point x="298" y="343"/>
      <point x="278" y="274"/>
      <point x="186" y="243" type="curve"/>
      <point x="187" y="214" type="line"/>
      <point x="364" y="254"/>
      <point x="449" y="307"/>
      <point x="454" y="409" type="curve" smooth="yes"/>
      <point x="457" y="479"/>
      <point x="402" y="533"/>
      <point x="299" y="533" type="curve" smooth="yes"/>
      <point x="129" y="533"/>
      <point x="30" y="387"/>
      <point x="23" y="227" type="curve" smooth="yes"/>
      <point x="17" y="87"/>
      <point x="80" y="-10"/>
    </contour>
  </outline>
</glyph>
<glyph name="i" format="2">
  <advance width="263"/>
  <unicode hex="0069"/>
  <anchor x="160" y="523" name="top"/>
  <anchor x="187" y="-10" name="right"/>
  <anchor x="135" y="-10" name="bottom"/>
  <outline>
    <contour>
      <point x="75" y="453" type="curve" smooth="yes"/>
      <point x="37" y="219" type="line" smooth="yes"/>
      <point x="25" y="171"/>
      <point x="18" y="143"/>
      <point x="17" y="117" type="curve" smooth="yes"/>
      <point x="13" y="33"/>
      <point x="64" y="-10"/>
      <point x="134" y="-10" type="curve" smooth="yes"/>
      <point x="181" y="-10"/>
      <point x="221" y="8"/>
      <point x="238" y="21" type="curve"/>
      <point x="246" y="58" type="line"/>
      <point x="244" y="56"/>
      <point x="237" y="48"/>
      <point x="229" y="48" type="curve" smooth="yes"/>
      <point x="216" y="48"/>
      <point x="208" y="54"/>
      <point x="209" y="74" type="curve" smooth="yes"/>
      <point x="210" y="96"/>
      <point x="216" y="124"/>
      <point x="225" y="155" type="curve" smooth="yes"/>
      <point x="288" y="523" type="line"/>
      <point x="62" y="523" type="line"/>
      <point x="55" y="485" type="line"/>
      <point x="65" y="483" type="line" smooth="yes"/>
      <point x="74" y="479"/>
      <point x="78" y="472"/>
    </contour>
    <contour>
      <point x="203" y="581" type="curve" smooth="yes"/>
      <point x="267" y="581"/>
      <point x="306" y="615"/>
      <point x="308" y="671" type="curve" smooth="yes"/>
      <point x="311" y="727"/>
      <point x="275" y="761"/>
      <point x="211" y="761" type="curve" smooth="yes"/>
      <point x="147" y="761"/>
      <point x="110" y="727"/>
      <point x="107" y="671" type="curve" smooth="yes"/>
      <point x="105" y="614"/>
      <point x="139" y="581"/>
    </contour>
  </outline>
</glyph>
<glyph name="k" format="2">
  <advance width="529"/>
  <unicode hex="006B"/>
  <anchor x="267" y="0" name="bottom"/>
  <outline>
    <contour>
      <point x="465" y="135" type="line" smooth="yes"/>
      <point x="469" y="70"/>
      <point x="476" y="46"/>
      <point x="499" y="46" type="curve" smooth="yes"/>
      <point x="505" y="46"/>
      <point x="511" y="51"/>
      <point x="509" y="54" type="curve"/>
      <point x="503" y="16" type="line"/>
      <point x="484" y="4"/>
      <point x="441" y="-10"/>
      <point x="393" y="-10" type="curve" smooth="yes"/>
      <point x="315" y="-10"/>
      <point x="272" y="32"/>
      <point x="268" y="131" type="curve" smooth="yes"/>
      <point x="259" y="281" type="line"/>
      <point x="262" y="293" type="line"/>
      <point x="347" y="380"/>
      <point x="395" y="441"/>
      <point x="431" y="523" type="curve"/>
      <point x="567" y="523" type="line"/>
      <point x="566" y="514" type="line"/>
      <point x="518" y="460"/>
      <point x="455" y="407"/>
      <point x="386" y="355" type="curve"/>
      <point x="424" y="409" type="line"/>
    </contour>
    <contour>
      <point x="-6" y="0" type="line"/>
      <point x="117" y="680" type="line" smooth="yes"/>
      <point x="120" y="699"/>
      <point x="116" y="706"/>
      <point x="106" y="710" type="curve" smooth="yes"/>
      <point x="97" y="712" type="line"/>
      <point x="104" y="750" type="line"/>
      <point x="331" y="750" type="line"/>
      <point x="196" y="0" type="line"/>
    </contour>
  </outline>
</glyph>
<glyph name="l" format="2">
  <advance width="264"/>
  <unicode hex="006C"/>
  <anchor x="166" y="746" name="top"/>
  <anchor x="286" y="735" name="right"/>
  <anchor x="334" y="391" name="mid"/>
  <anchor x="136" y="0" name="bottom"/>
  <outline>
    <contour>
      <point x="226" y="157" type="curve" smooth="yes"/>
      <point x="328" y="750" type="line"/>
      <point x="102" y="750" type="line"/>
      <point x="94" y="712" type="line"/>
      <point x="103" y="710" type="line" smooth="yes"/>
      <point x="113" y="706"/>
      <point x="117" y="699"/>
      <point x="114" y="680" type="curve" smooth="yes"/>
      <point x="38" y="219" type="line" smooth="yes"/>
      <point x="26" y="171"/>
      <point x="20" y="143"/>
      <point x="19" y="117" type="curve" smooth="yes"/>
      <point x="15" y="33"/>
      <point x="66" y="-10"/>
      <point x="136" y="-10" type="curve" smooth="yes"/>
      <point x="182" y="-10"/>
      <point x="223" y="8"/>
      <point x="239" y="21" type="curve"/>
      <point x="247" y="58" type="line"/>
      <point x="245" y="56"/>
      <point x="238" y="48"/>
      <point x="230" y="48" type="curve" smooth="yes"/>
      <point x="217" y="48"/>
      <point x="211" y="54"/>
      <point x="212" y="74" type="curve" smooth="yes"/>
      <point x="213" y="96"/>
      <point x="219" y="125"/>
    </contour>
  </outline>
</glyph>
<glyph name="q" format="2">
  <advance width="520"/>
  <unicode hex="0071"/>
  <outline>
    <contour>
      <point x="173" y="-223" type="line"/>
      <point x="433" y="-223" type="line"/>
      <point x="440" y="-186" type="line"/>
      <point x="440" y="-186" type="line" smooth="yes"/>
      <point x="431" y="-186"/>
      <point x="421" y="-180"/>
      <point x="425" y="-155" type="curve" smooth="yes"/>
      <point x="545" y="524" type="line"/>
      <point x="424" y="524" type="line"/>
      <point x="347" y="476" type="line"/>
      <point x="338" y="471" type="line"/>
      <point x="219" y="-175" type="line" smooth="yes"/>
      <point x="219" y="-181"/>
      <point x="195" y="-186"/>
      <point x="181" y="-186" type="curve" smooth="yes"/>
      <point x="181" y="-186" type="line"/>
    </contour>
    <contour>
      <point x="19" y="188" type="curve" smooth="yes"/>
      <point x="14" y="69"/>
      <point x="62" y="-10"/>
      <point x="150" y="-10" type="curve" smooth="yes"/>
      <point x="216" y="-10"/>
      <point x="280" y="63"/>
      <point x="304" y="176" type="curve"/>
      <point x="291" y="201" type="line"/>
      <point x="275" y="120"/>
      <point x="249" y="76"/>
      <point x="239" y="76" type="curve" smooth="yes"/>
      <point x="229" y="76"/>
      <point x="221" y="101"/>
      <point x="224" y="157" type="curve" smooth="yes"/>
      <point x="229" y="280"/>
      <point x="268" y="477"/>
      <point x="319" y="477" type="curve" smooth="yes"/>
      <point x="330" y="477"/>
      <point x="336" y="462"/>
      <point x="338" y="431" type="curve"/>
      <point x="364" y="468" type="line"/>
      <point x="347" y="506"/>
      <point x="318" y="533"/>
      <point x="263" y="533" type="curve" smooth="yes"/>
      <point x="119" y="533"/>
      <point x="27" y="363"/>
    </contour>
  </outline>
</glyph>
<glyph name="s" format="2">
  <advance width="425"/>
  <unicode hex="0073"/>
  <anchor x="240" y="523" name="top"/>
  <anchor x="220" y="0" name="bottom"/>
  <outline>
    <contour>
      <point x="196" y="-10" type="curve" smooth="yes"/>
      <point x="335" y="-10"/>
      <point x="403" y="61"/>
      <point x="408" y="181" type="curve" smooth="yes"/>
      <point x="412" y="272"/>
      <point x="353" y="313"/>
      <point x="294" y="344" type="curve" smooth="yes"/>
      <point x="235" y="375"/>
      <point x="213" y="393"/>
      <point x="215" y="431" type="curve" smooth="yes"/>
      <point x="216" y="467"/>
      <point x="236" y="488"/>
      <point x="266" y="488" type="curve" smooth="yes"/>
      <point x="296" y="488"/>
      <point x="313" y="475"/>
      <point x="322" y="454" type="curve"/>
      <point x="323" y="472"/>
      <point x="317" y="485"/>
      <point x="309" y="494" type="curve"/>
      <point x="291" y="386" type="line"/>
      <point x="414" y="386" type="line"/>
      <point x="429" y="476" type="line"/>
      <point x="405" y="505"/>
      <point x="342" y="533"/>
      <point x="264" y="533" type="curve" smooth="yes"/>
      <point x="140" y="533"/>
      <point x="58" y="473"/>
      <point x="53" y="358" type="curve" smooth="yes"/>
      <point x="48" y="263"/>
      <point x="113" y="219"/>
      <point x="164" y="190" type="curve" smooth="yes"/>
      <point x="228" y="158"/>
      <point x="246" y="141"/>
      <point x="245" y="105" type="curve" smooth="yes"/>
      <point x="243" y="65"/>
      <point x="221" y="35"/>
      <point x="185" y="35" type="curve" smooth="yes"/>
      <point x="138" y="35"/>
      <point x="111" y="56"/>
      <point x="98" y="85" type="curve"/>
      <point x="92" y="71"/>
      <point x="97" y="50"/>
      <point x="128" y="45" type="curve"/>
      <point x="148" y="156" type="line"/>
      <point x="23" y="156" type="line"/>
      <point x="1" y="56" type="line"/>
      <point x="35" y="23"/>
      <point x="100" y="-10"/>
    </contour>
  </outline>
</glyph>
<glyph name="v" format="2">
  <advance width="451"/>
  <unicode hex="0076"/>
  <outline>
    <contour>
      <point x="256" y="523" type="line"/>
      <point x="282" y="61" type="line"/>
      <point x="254" y="63" type="line"/>
      <point x="340" y="199"/>
      <point x="367" y="352"/>
      <point x="360" y="523" type="curve"/>
      <point x="480" y="523" type="line"/>
      <point x="480" y="523" type="line"/>
      <point x="452" y="340"/>
      <point x="335" y="127"/>
      <point x="233" y="0" type="curve"/>
      <point x="97" y="0" type="line"/>
      <point x="59" y="447" type="line" smooth="yes"/>
      <point x="58" y="470"/>
      <point x="53" y="479"/>
      <point x="43" y="483" type="curve" smooth="yes"/>
      <point x="34" y="485" type="line"/>
      <point x="42" y="523" type="line"/>
    </contour>
  </outline>
</glyph>
<glyph name="w" format="2">
  <advance width="691"/>
  <unicode hex="0077"/>
  <anchor x="371" y="523" name="top"/>
  <outline>
    <contour>
      <point x="358" y="523" type="line"/>
      <point x="329" y="374"/>
      <point x="318" y="240"/>
      <point x="260" y="61" type="curve"/>
      <point x="278" y="62" type="line"/>
      <point x="256" y="523" type="line"/>
      <point x="42" y="523" type="line"/>
      <point x="34" y="485" type="line"/>
      <point x="43" y="483" type="line" smooth="yes"/>
      <point x="53" y="479"/>
      <point x="58" y="470"/>
      <point x="59" y="447" type="curve" smooth="yes"/>
      <point x="94" y="0" type="line"/>
      <point x="261" y="0" type="line"/>
      <point x="301" y="102"/>
      <point x="330" y="217"/>
      <point x="356" y="334" type="curve"/>
      <point x="337" y="332" type="line"/>
      <point x="358" y="0" type="line"/>
      <point x="494" y="0" type="line"/>
      <point x="569" y="133"/>
      <point x="686" y="334"/>
      <point x="722" y="523" type="curve"/>
      <point x="722" y="523" type="line"/>
      <point x="600" y="523" type="line"/>
      <point x="594" y="362"/>
      <point x="561" y="203"/>
      <point x="505" y="61" type="curve"/>
      <point x="529" y="60" type="line"/>
      <point x="505" y="523" type="line"/>
    </contour>
  </outline>
</glyph>
<glyph name="asciitilde" format="2">
  <advance width="398"/>
  <unicode hex="007E"/>
  <outline>
    <contour>
      <point x="175" y="475" type="curve" smooth="yes"/>
      <point x="99" y="475"/>
      <point x="60" y="408"/>
      <point x="26" y="295" type="curve"/>
      <point x="62" y="277" type="line"/>
      <point x="74" y="316"/>
      <point x="81" y="345"/>
      <point x="114" y="345" type="curve" smooth="yes"/>
      <point x="153" y="345"/>
      <point x="209" y="263"/>
      <point x="278" y="263" type="curve" smooth="yes"/>
      <point x="345" y="263"/>
      <point x="393" y="330"/>
      <point x="427" y="446" type="curve"/>
      <point x="392" y="464" type="line"/>
      <point x="378" y="424"/>
      <point x="365" y="392"/>
      <point x="333" y="392" type="curve" smooth="yes"/>
      <point x="294" y="392"/>
      <point x="240" y="475"/>
    </contour>
  </outline>
</glyph>
<glyph name="dieresis" format="2">
  <advance width="378"/>
  <unicode hex="00A8"/>
  <anchor x="215" y="526" name="_top"/>
  <outline>
    <contour>
      <point x="113" y="585" type="curve" smooth="yes"/>
      <point x="168" y="585"/>
      <point x="200" y="616"/>
      <point x="202" y="668" type="curve" smooth="yes"/>
      <point x="204" y="721"/>
      <point x="175" y="752"/>
      <point x="120" y="752" type="curve" smooth="yes"/>
      <point x="66" y="752"/>
      <point x="32" y="721"/>
      <point x="30" y="668" type="curve" smooth="yes"/>
      <point x="28" y="615"/>
      <point x="59" y="585"/>
    </contour>
    <contour>
      <point x="301" y="585" type="curve" smooth="yes"/>
      <point x="357" y="585"/>
      <point x="388" y="616"/>
      <point x="390" y="668" type="curve" smooth="yes"/>
      <point x="392" y="721"/>
      <point x="364" y="752"/>
      <point x="308" y="752" type="curve" smooth="yes"/>
      <point x="254" y="752"/>
      <point x="220" y="721"/>
      <point x="218" y="668" type="curve" smooth="yes"/>
      <point x="216" y="615"/>
      <point x="247" y="585"/>
    </contour>
  </outline>
</glyph>
<glyph name="ordfeminine" format="2">
  <advance width="413"/>
  <unicode hex="00AA"/>
  <outline>
    <contour>
      <point x="336" y="312" type="curve" smooth="yes"/>
      <point x="369" y="312"/>
      <point x="404" y="326"/>
      <point x="418" y="336" type="curve"/>
      <point x="425" y="375" type="line"/>
      <point x="421" y="372"/>
      <point x="414" y="366"/>
      <point x="407" y="366" type="curve" smooth="yes"/>
      <point x="397" y="366"/>
      <point x="393" y="371"/>
      <point x="394" y="385" type="curve" smooth="yes"/>
      <point x="394" y="397"/>
      <point x="398" y="420"/>
      <point x="404" y="452" type="curve" smooth="yes"/>
      <point x="449" y="718" type="line"/>
      <point x="349" y="718" type="line"/>
      <point x="285" y="680" type="line"/>
      <point x="281" y="680" type="line"/>
      <point x="228" y="390" type="line"/>
      <point x="241" y="414" type="line"/>
      <point x="242" y="410"/>
      <point x="242" y="401"/>
      <point x="241" y="395" type="curve"/>
      <point x="239" y="338"/>
      <point x="277" y="312"/>
    </contour>
    <contour>
      <point x="148" y="310" type="curve" smooth="yes"/>
      <point x="211" y="310"/>
      <point x="243" y="372"/>
      <point x="283" y="469" type="curve"/>
      <point x="259" y="484" type="line"/>
      <point x="244" y="426"/>
      <point x="234" y="386"/>
      <point x="222" y="386" type="curve" smooth="yes"/>
      <point x="211" y="386"/>
      <point x="206" y="406"/>
      <point x="208" y="463" type="curve" smooth="yes"/>
      <point x="212" y="561"/>
      <point x="234" y="675"/>
      <point x="270" y="675" type="curve" smooth="yes"/>
      <point x="280" y="675"/>
      <point x="287" y="661"/>
      <point x="287" y="635" type="curve"/>
      <point x="319" y="671" type="line"/>
      <point x="303" y="700"/>
      <point x="278" y="719"/>
      <point x="245" y="719" type="curve" smooth="yes"/>
      <point x="124" y="719"/>
      <point x="50" y="592"/>
      <point x="44" y="461" type="curve" smooth="yes"/>
      <point x="40" y="369"/>
      <point x="81" y="310"/>
    </contour>
  </outline>
</glyph>
<glyph name="logicalnot" format="2">
  <advance width="423"/>
  <unicode hex="00AC"/>
  <outline>
    <contour>
      <point x="367" y="385" type="line"/>
      <point x="320" y="138" type="line"/>
      <point x="367" y="138" type="line"/>
      <point x="419" y="406" type="line"/>
      <point x="71" y="406" type="line"/>
      <point x="61" y="360" type="line"/>
      <point x="378" y="360" type="line"/>
    </contour>
  </outline>
</glyph>
<glyph name="AE" format="2">
  <advance width="772"/>
  <unicode hex="00C6"/>
  <anchor x="542" y="741" name="top"/>
  <outline>
    <contour>
      <point x="163" y="287" type="line"/>
      <point x="131" y="240" type="line"/>
      <point x="356" y="240" type="line"/>
      <point x="366" y="287" type="line"/>
    </contour>
    <contour>
      <point x="547" y="385" type="curve"/>
      <point x="540" y="342" type="line"/>
      <point x="609" y="338"/>
      <point x="658" y="329"/>
      <point x="705" y="312" type="curve"/>
      <point x="724" y="414" type="line"/>
      <point x="672" y="399"/>
      <point x="620" y="391"/>
    </contour>
    <contour>
      <point x="-36" y="0" type="line"/>
      <point x="76" y="0" type="line"/>
      <point x="85" y="40" type="line"/>
      <point x="76" y="40" type="line" smooth="yes"/>
      <point x="62" y="40"/>
      <point x="51" y="44"/>
      <point x="53" y="54" type="curve"/>
      <point x="397" y="639" type="line"/>
      <point x="397" y="639" type="line"/>
      <point x="300" y="75" type="line" smooth="yes"/>
      <point x="294" y="47"/>
      <point x="283" y="40"/>
      <point x="266" y="40" type="curve" smooth="yes"/>
      <point x="257" y="40" type="line"/>
      <point x="249" y="0" type="line"/>
      <point x="713" y="0" type="line"/>
      <point x="751" y="213" type="line"/>
      <point x="714" y="213" type="line"/>
      <point x="672" y="95" type="line" smooth="yes"/>
      <point x="662" y="58"/>
      <point x="641" y="48"/>
      <point x="585" y="48" type="curve" smooth="yes"/>
      <point x="511" y="48" type="line"/>
      <point x="617" y="662" type="line"/>
      <point x="691" y="662" type="line" smooth="yes"/>
      <point x="725" y="662"/>
      <point x="746" y="652"/>
      <point x="746" y="616" type="curve"/>
      <point x="745" y="522" type="line"/>
      <point x="781" y="522" type="line"/>
      <point x="816" y="710" type="line"/>
      <point x="323" y="710" type="line"/>
      <point x="315" y="671" type="line"/>
      <point x="328" y="671" type="line" smooth="yes"/>
      <point x="355" y="671"/>
      <point x="361" y="667"/>
      <point x="360" y="651" type="curve"/>
      <point x="14" y="79" type="line" smooth="yes"/>
      <point x="1" y="51"/>
      <point x="-6" y="40"/>
      <point x="-24" y="40" type="curve" smooth="yes"/>
      <point x="-28" y="40" type="line"/>
    </contour>
  </outline>
</glyph>
<glyph name="icircumflex" format="2">
  <advance width="263"/>
  <unicode hex="00EE"/>
  <outline>
    <contour>
      <point x="268" y="740" type="line"/>
      <point x="339" y="580" type="line"/>
      <point x="337" y="567" type="line"/>
      <point x="288" y="567" type="line"/>
      <point x="148" y="679" type="line"/>
      <point x="272" y="678" type="line"/>
      <point x="90" y="567" type="line"/>
      <point x="35" y="567" type="line"/>
      <point x="38" y="580" type="line"/>
      <point x="166" y="740" type="line"/>
    </contour>
    <component base="dotlessi"/>
  </outline>
</glyph>
<glyph name="eth" format="2">
  <advance width="503"/>
  <unicode hex="00F0"/>
  <outline>
    <contour>
      <point x="242" y="-10" type="curve" smooth="yes"/>
      <point x="415" y="-10"/>
      <point x="503" y="151"/>
      <point x="511" y="342" type="curve" smooth="yes"/>
      <point x="518" y="500"/>
      <point x="456" y="667"/>
      <point x="230" y="759" type="curve"/>
      <point x="206" y="724" type="line"/>
      <point x="308" y="655"/>
      <point x="325" y="543"/>
      <point x="319" y="402" type="curve" smooth="yes"/>
      <point x="316" y="345"/>
      <point x="304" y="284"/>
      <point x="294" y="227" type="curve" smooth="yes"/>
      <point x="271" y="95"/>
      <point x="255" y="36"/>
      <point x="240" y="36" type="curve" smooth="yes"/>
      <point x="222" y="36"/>
      <point x="219" y="84"/>
      <point x="222" y="165" type="curve" smooth="yes"/>
      <point x="225" y="220"/>
      <point x="234" y="274"/>
      <point x="244" y="322" type="curve" smooth="yes"/>
      <point x="260" y="411"/>
      <point x="282" y="465"/>
      <point x="305" y="465" type="curve" smooth="yes"/>
      <point x="333" y="465"/>
      <point x="332" y="419"/>
      <point x="340" y="354" type="curve"/>
      <point x="353" y="415" type="line"/>
      <point x="344" y="478"/>
      <point x="313" y="533"/>
      <point x="229" y="533" type="curve" smooth="yes"/>
      <point x="116" y="533"/>
      <point x="35" y="413"/>
      <point x="28" y="248" type="curve" smooth="yes"/>
      <point x="21" y="93"/>
      <point x="102" y="-10"/>
    </contour>
    <contour>
      <point x="164" y="609" type="line"/>
      <point x="174" y="567" type="line"/>
      <point x="451" y="688" type="line"/>
      <point x="440" y="730" type="line"/>
    </contour>
  </outline>
</glyph>
<glyph name="eogonek" format="2">
  <advance width="440"/>
  <unicode hex="0119"/>
  <outline>
    <contour>
      <point x="229" y="-244" type="curve" smooth="yes"/>
      <point x="290" y="-244"/>
      <point x="335" y="-217"/>
      <point x="371" y="-178" type="curve"/>
      <point x="354" y="-147" type="line"/>
      <point x="341" y="-162"/>
      <point x="323" y="-176"/>
      <point x="297" y="-176" type="curve" smooth="yes"/>
      <point x="271" y="-176"/>
      <point x="255" y="-159"/>
      <point x="256" y="-127" type="curve" smooth="yes"/>
      <point x="259" y="-68"/>
      <point x="302" y="-25"/>
      <point x="362" y="42" type="curve" smooth="yes"/>
      <point x="389" y="69"/>
      <point x="410" y="104"/>
      <point x="423" y="140" type="curve"/>
      <point x="394" y="165" type="line"/>
      <point x="365" y="101"/>
      <point x="334" y="60"/>
      <point x="299" y="60" type="curve" smooth="yes"/>
      <point x="250" y="60"/>
      <point x="225" y="106"/>
      <point x="229" y="217" type="curve" smooth="yes"/>
      <point x="236" y="363"/>
      <point x="262" y="486"/>
      <point x="289" y="486" type="curve" smooth="yes"/>
      <point x="300" y="486"/>
      <point x="303" y="464"/>
      <point x="302" y="433" type="curve" smooth="yes"/>
      <point x="298" y="343"/>
      <point x="278" y="274"/>
      <point x="186" y="243" type="curve"/>
      <point x="187" y="214" type="line"/>
      <point x="364" y="254"/>
      <point x="449" y="307"/>
      <point x="454" y="409" type="curve" smooth="yes"/>
      <point x="457" y="479"/>
      <point x="402" y="533"/>
      <point x="299" y="533" type="curve" smooth="yes"/>
      <point x="127" y="533"/>
      <point x="30" y="383"/>
      <point x="23" y="227" type="curve" smooth="yes"/>
      <point x="17" y="87"/>
      <point x="81" y="-10"/>
      <point x="226" y="-10" type="curve" smooth="yes"/>
      <point x="247" y="-10"/>
      <point x="266" y="-7"/>
      <point x="284" y="-1" type="curve"/>
      <point x="289" y="15" type="line"/>
      <point x="193" y="-40"/>
      <point x="133" y="-83"/>
      <point x="130" y="-153" type="curve" smooth="yes"/>
      <point x="128" y="-212"/>
      <point x="167" y="-244"/>
    </contour>
  </outline>
</glyph>
<glyph name="Hbar" format="2">
  <advance width="621"/>
  <unicode hex="0126"/>
  <outline>
    <contour>
      <point x="196" y="390" type="line"/>
      <point x="186" y="341" type="line"/>
      <point x="472" y="341" type="line"/>
      <point x="482" y="390" type="line"/>
    </contour>
    <contour>
      <point x="59" y="498" type="line"/>
      <point x="650" y="498" type="line"/>
      <point x="659" y="547" type="line"/>
      <point x="68" y="547" type="line"/>
    </contour>
    <contour>
      <point x="-30" y="0" type="line"/>
      <point x="257" y="0" type="line"/>
      <point x="265" y="40" type="line"/>
      <point x="259" y="40" type="line" smooth="yes"/>
      <point x="246" y="40"/>
      <point x="230" y="42"/>
      <point x="231" y="48" type="curve" smooth="yes"/>
      <point x="339" y="662" type="line"/>
      <point x="340" y="668"/>
      <point x="355" y="670"/>
      <point x="369" y="670" type="curve" smooth="yes"/>
      <point x="375" y="670" type="line"/>
      <point x="383" y="710" type="line"/>
      <point x="97" y="710" type="line"/>
      <point x="88" y="670" type="line"/>
      <point x="96" y="670" type="line" smooth="yes"/>
      <point x="113" y="670"/>
      <point x="123" y="664"/>
      <point x="119" y="638" type="curve" smooth="yes"/>
      <point x="20" y="72" type="line" smooth="yes"/>
      <point x="15" y="45"/>
      <point x="4" y="40"/>
      <point x="-14" y="40" type="curve" smooth="yes"/>
      <point x="-21" y="40" type="line"/>
    </contour>
    <contour>
      <point x="276" y="0" type="line"/>
      <point x="563" y="0" type="line"/>
      <point x="572" y="40" type="line"/>
      <point x="563" y="40" type="line" smooth="yes"/>
      <point x="547" y="40"/>
      <point x="536" y="46"/>
      <point x="541" y="73" type="curve" smooth="yes"/>
      <point x="640" y="637" type="line" smooth="yes"/>
      <point x="644" y="664"/>
      <point x="656" y="670"/>
      <point x="673" y="670" type="curve" smooth="yes"/>
      <point x="681" y="670" type="line"/>
      <point x="689" y="710" type="line"/>
      <point x="402" y="710" type="line"/>
      <point x="394" y="670" type="line"/>
      <point x="400" y="670" type="line" smooth="yes"/>
      <point x="414" y="670"/>
      <point x="430" y="668"/>
      <point x="429" y="662" type="curve"/>
      <point x="321" y="48" type="line" smooth="yes"/>
      <point x="320" y="42"/>
      <point x="304" y="40"/>
      <point x="291" y="40" type="curve" smooth="yes"/>
      <point x="284" y="40" type="line"/>
    </contour>
  </outline>
</glyph>
<glyph name="imacron" format="2">
  <advance width="263"/>
  <unicode hex="012B"/>
  <outline>
    <contour>
      <point x="83" y="675" type="line"/>
      <point x="71" y="616" type="line"/>
      <point x="323" y="616" type="line"/>
      <point x="334" y="675" type="line"/>
    </contour>
    <component base="dotlessi"/>
  </outline>
</glyph>
<glyph name="ibreve" format="2">
  <advance width="263"/>
  <unicode hex="012D"/>
  <outline>
    <contour>
      <point x="204" y="577" type="curve" smooth="yes"/>
      <point x="140" y="577"/>
      <point x="92" y="623"/>
      <point x="96" y="718" type="curve" smooth="yes"/>
      <point x="97" y="731"/>
      <point x="98" y="743"/>
      <point x="102" y="757" type="curve"/>
      <point x="147" y="757" type="line"/>
      <point x="143" y="708"/>
      <point x="164" y="689"/>
      <point x="219" y="689" type="curve" smooth="yes"/>
      <point x="271" y="689"/>
      <point x="290" y="708"/>
      <point x="299" y="757" type="curve"/>
      <point x="345" y="757" type="line"/>
      <point x="331" y="629"/>
      <point x="281" y="577"/>
    </contour>
    <component base="dotlessi"/>
  </outline>
</glyph>
<glyph name="lslash" format="2">
  <advance width="310"/>
  <unicode hex="0142"/>
  <outline>
    <contour>
      <point x="9" y="241" type="line"/>
      <point x="336" y="475" type="line"/>
      <point x="346" y="532" type="line"/>
      <point x="20" y="298" type="line"/>
    </contour>
    <component base="l" xOffset="13"/>
  </outline>
</glyph>
<glyph name="Eng" format="2">
  <advance width="528"/>
  <unicode hex="014A"/>
  <outline>
    <contour>
      <point x="269" y="-212" type="curve" smooth="yes"/>
      <point x="241" y="-212"/>
      <point x="213" y="-205"/>
      <point x="192" y="-193" type="curve"/>
      <point x="202" y="-140" type="line"/>
      <point x="211" y="-149"/>
      <point x="239" y="-161"/>
      <point x="273" y="-161" type="curve" smooth="yes"/>
      <point x="324" y="-161"/>
      <point x="364" y="-131"/>
      <point x="380" y="-41" type="curve" smooth="yes"/>
      <point x="388" y="4" type="line"/>
      <point x="395" y="-87" type="line"/>
      <point x="144" y="675" type="line"/>
      <point x="171" y="678" type="line"/>
      <point x="61" y="56" type="line" smooth="yes"/>
      <point x="61" y="45"/>
      <point x="79" y="40"/>
      <point x="96" y="40" type="curve" smooth="yes"/>
      <point x="104" y="40" type="line"/>
      <point x="95" y="0" type="line"/>
      <point x="-30" y="0" type="line"/>
      <point x="-21" y="40" type="line"/>
      <point x="-14" y="40" type="line" smooth="yes"/>
      <point x="3" y="40"/>
      <point x="16" y="52"/>
      <point x="20" y="82" type="curve" smooth="yes"/>
      <point x="120" y="638" type="line" smooth="yes"/>
      <point x="123" y="664"/>
      <point x="113" y="670"/>
      <point x="95" y="670" type="curve" smooth="yes"/>
      <point x="88" y="670" type="line"/>
      <point x="97" y="710" type="line"/>
      <point x="365" y="710" type="line"/>
      <point x="475" y="302" type="line"/>
      <point x="447" y="265" type="line"/>
      <point x="505" y="654" type="line" smooth="yes"/>
      <point x="506" y="665"/>
      <point x="487" y="670"/>
      <point x="471" y="670" type="curve" smooth="yes"/>
      <point x="463" y="670" type="line"/>
      <point x="471" y="710" type="line"/>
      <point x="597" y="710" type="line"/>
      <point x="588" y="670" type="line"/>
      <point x="581" y="670" type="line" smooth="yes"/>
      <point x="564" y="670"/>
      <point x="552" y="662"/>
      <point x="548" y="633" type="curve" smooth="yes"/>
      <point x="425" y="-48" type="line" smooth="yes"/>
      <point x="408" y="-155"/>
      <point x="369" y="-212"/>
    </contour>
  </outline>
</glyph>
<glyph name="eng" format="2">
  <advance width="518"/>
  <unicode hex="014B"/>
  <outline>
    <contour>
      <point x="237" y="-47" type="line" smooth="yes"/>
      <point x="218" y="-147"/>
      <point x="211" y="-178"/>
      <point x="175" y="-178" type="curve" smooth="yes"/>
      <point x="153" y="-178"/>
      <point x="137" y="-169"/>
      <point x="137" y="-166" type="curve"/>
      <point x="124" y="-217" type="line"/>
      <point x="140" y="-226"/>
      <point x="181" y="-236"/>
      <point x="228" y="-236" type="curve" smooth="yes"/>
      <point x="354" y="-236"/>
      <point x="420" y="-170"/>
      <point x="454" y="4" type="curve" smooth="yes"/>
      <point x="502" y="289" type="line" smooth="yes"/>
      <point x="514" y="347"/>
      <point x="521" y="383"/>
      <point x="522" y="413" type="curve" smooth="yes"/>
      <point x="525" y="484"/>
      <point x="491" y="533"/>
      <point x="422" y="533" type="curve" smooth="yes"/>
      <point x="349" y="533"/>
      <point x="277" y="465"/>
      <point x="231" y="346" type="curve"/>
      <point x="238" y="302" type="line"/>
      <point x="259" y="387"/>
      <point x="289" y="435"/>
      <point x="308" y="435" type="curve" smooth="yes"/>
      <point x="317" y="435"/>
      <point x="320" y="420"/>
      <point x="319" y="398" type="curve" smooth="yes"/>
      <point x="319" y="381"/>
      <point x="315" y="360"/>
      <point x="310" y="333" type="curve"/>
    </contour>
    <contour>
      <point x="195" y="0" type="line"/>
      <point x="264" y="371" type="line"/>
      <point x="257" y="373" type="line"/>
      <point x="281" y="523" type="line"/>
      <point x="63" y="523" type="line"/>
      <point x="55" y="485" type="line"/>
      <point x="65" y="483" type="line" smooth="yes"/>
      <point x="73" y="479"/>
      <point x="78" y="472"/>
      <point x="75" y="453" type="curve" smooth="yes"/>
      <point x="-7" y="0" type="line"/>
    </contour>
  </outline>
</glyph>
<glyph name="tbar" format="2">
  <advance width="317"/>
  <unicode hex="0167"/>
  <outline>
    <contour>
      <point x="318" y="326" type="line"/>
      <point x="13" y="326" type="line"/>
      <point x="4" y="281" type="line"/>
      <point x="310" y="281" type="line"/>
    </contour>
    <component base="t"/>
  </outline>
</glyph>
<glyph name="florin" format="2">
  <advance width="423"/>
  <unicode hex="0192"/>
  <outline>
    <contour>
      <point x="97" y="510" type="line"/>
      <point x="85" y="465" type="line"/>
      <point x="425" y="465" type="line"/>
      <point x="436" y="510" type="line"/>
    </contour>
    <contour>
      <point x="223" y="51" type="curve" smooth="yes"/>
      <point x="378" y="618" type="line" smooth="yes"/>
      <point x="392" y="689"/>
      <point x="419" y="710"/>
      <point x="446" y="710" type="curve" smooth="yes"/>
      <point x="471" y="710"/>
      <point x="487" y="695"/>
      <point x="489" y="691" type="curve"/>
      <point x="501" y="739" type="line"/>
      <point x="486" y="749"/>
      <point x="457" y="760"/>
      <point x="408" y="760" type="curve" smooth="yes"/>
      <point x="297" y="760"/>
      <point x="216" y="698"/>
      <point x="180" y="564" type="curve" smooth="yes"/>
      <point x="4" y="-58" type="line" smooth="yes"/>
      <point x="-13" y="-160"/>
      <point x="-41" y="-187"/>
      <point x="-68" y="-187" type="curve" smooth="yes"/>
      <point x="-91" y="-187"/>
      <point x="-106" y="-175"/>
      <point x="-113" y="-171" type="curve"/>
      <point x="-125" y="-216" type="line"/>
      <point x="-115" y="-226"/>
      <point x="-87" y="-236"/>
      <point x="-52" y="-236" type="curve" smooth="yes"/>
      <point x="59" y="-236"/>
      <point x="164" y="-160"/>
    </contour>
  </outline>
</glyph>
<glyph name="Ohorn" format="2">
  <advance width="612"/>
  <unicode hex="01A0"/>
  <anchor x="321" y="742" name="top"/>
  <outline>
    <contour>
      <point x="275" y="39" type="curve" smooth="yes"/>
      <point x="254" y="39"/>
      <point x="234" y="78"/>
      <point x="240" y="195" type="curve" smooth="yes"/>
      <point x="241" y="240"/>
      <point x="250" y="299"/>
      <point x="264" y="369" type="curve" smooth="yes"/>
      <point x="301" y="571"/>
      <point x="329" y="671"/>
      <point x="370" y="671" type="curve" smooth="yes"/>
      <point x="392" y="671"/>
      <point x="410" y="628"/>
      <point x="405" y="512" type="curve" smooth="yes"/>
      <point x="403" y="465"/>
      <point x="396" y="408"/>
      <point x="382" y="340" type="curve" smooth="yes"/>
      <point x="344" y="132"/>
      <point x="316" y="39"/>
    </contour>
    <contour>
      <point x="281" y="-10" type="curve" smooth="yes"/>
      <point x="487" y="-10"/>
      <point x="608" y="172"/>
      <point x="617" y="392" type="curve" smooth="yes"/>
      <point x="624" y="540"/>
      <point x="565" y="643"/>
      <point x="459" y="682" type="curve"/>
      <point x="492" y="621" type="line"/>
      <point x="514" y="675" type="line"/>
      <point x="454" y="667" type="line"/>
      <point x="472" y="662"/>
      <point x="492" y="660"/>
      <point x="512" y="660" type="curve" smooth="yes"/>
      <point x="616" y="660"/>
      <point x="684" y="698"/>
      <point x="716" y="841" type="curve"/>
      <point x="586" y="841" type="line"/>
      <point x="562" y="746"/>
      <point x="536" y="705"/>
      <point x="486" y="705" type="curve" smooth="yes"/>
      <point x="449" y="705"/>
      <point x="420" y="720"/>
      <point x="366" y="720" type="curve" smooth="yes"/>
      <point x="161" y="720"/>
      <point x="40" y="538"/>
      <point x="31" y="318" type="curve" smooth="yes"/>
      <point x="22" y="122"/>
      <point x="125" y="-10"/>
    </contour>
  </outline>
</glyph>
<glyph name="Uhorn" format="2">
  <advance width="606"/>
  <unicode hex="01AF"/>
  <anchor x="310" y="663" name="top"/>
  <outline>
    <contour>
      <point x="269" y="-10" type="curve" smooth="yes"/>
      <point x="393" y="-10"/>
      <point x="468" y="72"/>
      <point x="503" y="262" type="curve" smooth="yes"/>
      <point x="569" y="642" type="line" smooth="yes"/>
      <point x="574" y="670"/>
      <point x="588" y="678"/>
      <point x="619" y="687" type="curve" smooth="yes"/>
      <point x="688" y="707"/>
      <point x="730" y="744"/>
      <point x="752" y="841" type="curve"/>
      <point x="622" y="841" type="line"/>
      <point x="602" y="745"/>
      <point x="592" y="710"/>
      <point x="511" y="710" type="curve" smooth="yes"/>
      <point x="499" y="710" type="line"/>
      <point x="492" y="670" type="line"/>
      <point x="496" y="670" type="line" smooth="yes"/>
      <point x="508" y="670"/>
      <point x="525" y="664"/>
      <point x="523" y="649" type="curve" smooth="yes"/>
      <point x="459" y="272" type="line" smooth="yes"/>
      <point x="436" y="138"/>
      <point x="399" y="76"/>
      <point x="332" y="76" type="curve" smooth="yes"/>
      <point x="288" y="76"/>
      <point x="261" y="116"/>
      <point x="265" y="206" type="curve" smooth="yes"/>
      <point x="266" y="234"/>
      <point x="272" y="267"/>
      <point x="279" y="309" type="curve" smooth="yes"/>
      <point x="339" y="660" type="line" smooth="yes"/>
      <point x="339" y="667"/>
      <point x="357" y="670"/>
      <point x="369" y="670" type="curve" smooth="yes"/>
      <point x="376" y="670" type="line"/>
      <point x="383" y="710" type="line"/>
      <point x="96" y="710" type="line"/>
      <point x="89" y="670" type="line"/>
      <point x="97" y="670" type="line" smooth="yes"/>
      <point x="114" y="670"/>
      <point x="124" y="664"/>
      <point x="121" y="639" type="curve" smooth="yes"/>
      <point x="69" y="334" type="line" smooth="yes"/>
      <point x="62" y="290"/>
      <point x="56" y="253"/>
      <point x="55" y="219" type="curve" smooth="yes"/>
      <point x="48" y="60"/>
      <point x="122" y="-10"/>
    </contour>
  </outline>
</glyph>
<glyph name="icaron" format="2">
  <advance width="263"/>
  <unicode hex="01D0"/>
  <outline>
    <contour>
      <point x="138" y="579" type="line"/>
      <point x="66" y="739" type="line"/>
      <point x="70" y="752" type="line"/>
      <point x="118" y="752" type="line"/>
      <point x="257" y="638" type="line"/>
      <point x="137" y="638" type="line"/>
      <point x="317" y="752" type="line"/>
      <point x="371" y="752" type="line"/>
      <point x="368" y="739" type="line"/>
      <point x="240" y="579" type="line"/>
    </contour>
    <component base="dotlessi"/>
  </outline>
</glyph>
<glyph name="oogonek" format="2">
  <advance width="520"/>
  <unicode hex="01EB"/>
  <outline>
    <contour>
      <point x="216" y="-244" type="curve" smooth="yes"/>
      <point x="277" y="-244"/>
      <point x="322" y="-217"/>
      <point x="358" y="-178" type="curve"/>
      <point x="342" y="-147" type="line"/>
      <point x="328" y="-162"/>
      <point x="309" y="-176"/>
      <point x="282" y="-176" type="curve" smooth="yes"/>
      <point x="257" y="-176"/>
      <point x="242" y="-160"/>
      <point x="244" y="-124" type="curve" smooth="yes"/>
      <point x="246" y="-73"/>
      <point x="276" y="-43"/>
      <point x="362" y="13" type="curve" smooth="yes"/>
      <point x="465" y="72"/>
      <point x="513" y="166"/>
      <point x="518" y="280" type="curve" smooth="yes"/>
      <point x="525" y="435"/>
      <point x="437" y="533"/>
      <point x="292" y="533" type="curve" smooth="yes"/>
      <point x="134" y="533"/>
      <point x="33" y="403"/>
      <point x="26" y="242" type="curve" smooth="yes"/>
      <point x="19" y="88"/>
      <point x="109" y="-10"/>
      <point x="250" y="-10" type="curve" smooth="yes"/>
      <point x="272" y="-10"/>
      <point x="295" y="-7"/>
      <point x="315" y="-1" type="curve"/>
      <point x="343" y="20" type="line"/>
      <point x="183" y="-32"/>
      <point x="121" y="-78"/>
      <point x="117" y="-150" type="curve" smooth="yes"/>
      <point x="115" y="-211"/>
      <point x="154" y="-244"/>
    </contour>
    <contour>
      <point x="244" y="36" type="curve"/>
      <point x="231" y="36"/>
      <point x="223" y="76"/>
      <point x="226" y="147" type="curve" smooth="yes"/>
      <point x="228" y="177"/>
      <point x="234" y="231"/>
      <point x="241" y="286" type="curve" smooth="yes"/>
      <point x="254" y="384"/>
      <point x="275" y="486"/>
      <point x="301" y="486" type="curve"/>
      <point x="313" y="486"/>
      <point x="321" y="447"/>
      <point x="317" y="375" type="curve" smooth="yes"/>
      <point x="316" y="345"/>
      <point x="311" y="292"/>
      <point x="302" y="237" type="curve" smooth="yes"/>
      <point x="289" y="139"/>
      <point x="269" y="36"/>
    </contour>
  </outline>
</glyph>
<glyph name="dotlessj" format="2">
  <advance width="269"/>
  <unicode hex="0237"/>
  <anchor x="175" y="523" name="top"/>
  <outline>
    <contour>
      <point x="-6" y="-47" type="line" smooth="yes"/>
      <point x="-25" y="-147"/>
      <point x="-32" y="-178"/>
      <point x="-69" y="-178" type="curve" smooth="yes"/>
      <point x="-91" y="-178"/>
      <point x="-107" y="-169"/>
      <point x="-107" y="-166" type="curve"/>
      <point x="-120" y="-217" type="line"/>
      <point x="-103" y="-226"/>
      <point x="-63" y="-236"/>
      <point x="-16" y="-236" type="curve" smooth="yes"/>
      <point x="110" y="-236"/>
      <point x="178" y="-171"/>
      <point x="211" y="4" type="curve" smooth="yes"/>
      <point x="298" y="523" type="line"/>
      <point x="72" y="523" type="line"/>
      <point x="64" y="485" type="line"/>
      <point x="75" y="483" type="line" smooth="yes"/>
      <point x="84" y="479"/>
      <point x="88" y="472"/>
      <point x="85" y="453" type="curve"/>
    </contour>
  </outline>
</glyph>
<glyph name="breve" format="2">
  <advance width="378"/>
  <unicode hex="02D8"/>
  <anchor x="210" y="517" name="_top"/>
  <outline>
    <contour>
      <point x="211" y="577" type="curve" smooth="yes"/>
      <point x="288" y="577"/>
      <point x="338" y="629"/>
      <point x="352" y="757" type="curve"/>
      <point x="307" y="757" type="line"/>
      <point x="297" y="708"/>
      <point x="279" y="689"/>
      <point x="226" y="689" type="curve" smooth="yes"/>
      <point x="171" y="689"/>
      <point x="150" y="708"/>
      <point x="154" y="757" type="curve"/>
      <point x="109" y="757" type="line"/>
      <point x="106" y="743"/>
      <point x="104" y="731"/>
      <point x="103" y="718" type="curve" smooth="yes"/>
      <point x="99" y="623"/>
      <point x="147" y="577"/>
    </contour>
  </outline>
</glyph>
<glyph name="ring" format="2">
  <advance width="378"/>
  <unicode hex="02DA"/>
  <anchor x="213" y="526" name="_top"/>
  <outline>
    <contour>
      <point x="207" y="605" type="curve" smooth="yes"/>
      <point x="195" y="605"/>
      <point x="188" y="622"/>
      <point x="190" y="654" type="curve" smooth="yes"/>
      <point x="192" y="720"/>
      <point x="206" y="748"/>
      <point x="225" y="748" type="curve" smooth="yes"/>
      <point x="237" y="748"/>
      <point x="243" y="733"/>
      <point x="242" y="702" type="curve" smooth="yes"/>
      <point x="239" y="641"/>
      <point x="228" y="605"/>
    </contour>
    <contour>
      <point x="209" y="568" type="curve" smooth="yes"/>
      <point x="275" y="568"/>
      <point x="328" y="608"/>
      <point x="331" y="685" type="curve" smooth="yes"/>
      <point x="334" y="751"/>
      <point x="289" y="785"/>
      <point x="222" y="785" type="curve" smooth="yes"/>
      <point x="155" y="785"/>
      <point x="104" y="746"/>
      <point x="100" y="668" type="curve" smooth="yes"/>
      <point x="97" y="602"/>
      <point x="141" y="568"/>
    </contour>
  </outline>
</glyph>
<glyph name="hungarumlaut" format="2">
  <advance width="378"/>
  <unicode hex="02DD"/>
  <anchor x="213" y="525" name="_top"/>
  <outline>
    <contour>
      <point x="105" y="699" type="curve" smooth="yes"/>
      <point x="81" y="582" type="line"/>
      <point x="81" y="566" type="line"/>
      <point x="125" y="566" type="line"/>
      <point x="175" y="627" type="line" smooth="yes"/>
      <point x="231" y="674"/>
      <point x="241" y="707"/>
      <point x="242" y="738" type="curve" smooth="yes"/>
      <point x="244" y="773"/>
      <point x="224" y="800"/>
      <point x="188" y="800" type="curve" smooth="yes"/>
      <point x="140" y="800"/>
      <point x="119" y="765"/>
    </contour>
    <contour>
      <point x="267" y="699" type="curve" smooth="yes"/>
      <point x="243" y="582" type="line"/>
      <point x="243" y="566" type="line"/>
      <point x="287" y="566" type="line"/>
      <point x="336" y="627" type="line" smooth="yes"/>
      <point x="392" y="674"/>
      <point x="402" y="707"/>
      <point x="403" y="738" type="curve" smooth="yes"/>
      <point x="405" y="773"/>
      <point x="385" y="800"/>
      <point x="349" y="800" type="curve" smooth="yes"/>
      <point x="302" y="800"/>
      <point x="280" y="765"/>
    </contour>
  </outline>
</glyph>
<glyph name="mu" format="2">
  <advance width="597"/>
  <unicode hex="03BC"/>
  <outline>
    <contour>
      <point x="421" y="-10" type="curve" smooth="yes"/>
      <point x="511" y="-10"/>
      <point x="569" y="49"/>
      <point x="605" y="126" type="curve"/>
      <point x="572" y="147" type="line"/>
      <point x="550" y="99"/>
      <point x="530" y="71"/>
      <point x="503" y="71" type="curve" smooth="yes"/>
      <point x="490" y="71"/>
      <point x="483" y="79"/>
      <point x="485" y="99" type="curve" smooth="yes"/>
      <point x="486" y="110"/>
      <point x="488" y="124"/>
      <point x="492" y="145" type="curve"/>
      <point x="559" y="523" type="line"/>
      <point x="356" y="523" type="line"/>
      <point x="283" y="129" type="line"/>
      <point x="294" y="133" type="line"/>
      <point x="293" y="124"/>
      <point x="292" y="115"/>
      <point x="292" y="108" type="curve"/>
      <point x="285" y="31"/>
      <point x="329" y="-10"/>
    </contour>
    <contour>
      <point x="-47" y="-250" type="line"/>
      <point x="152" y="-250" type="line"/>
      <point x="164" y="-114"/>
      <point x="36" y="-40"/>
      <point x="74" y="163" type="curve"/>
      <point x="63" y="159" type="line"/>
      <point x="63" y="33"/>
      <point x="101" y="-10"/>
      <point x="162" y="-10" type="curve" smooth="yes"/>
      <point x="213" y="-10"/>
      <point x="260" y="37"/>
      <point x="310" y="140" type="curve"/>
      <point x="295" y="169" type="line"/>
      <point x="277" y="113"/>
      <point x="259" y="77"/>
      <point x="243" y="77" type="curve" smooth="yes"/>
      <point x="232" y="77"/>
      <point x="230" y="89"/>
      <point x="231" y="113" type="curve" smooth="yes"/>
      <point x="231" y="122"/>
      <point x="232" y="131"/>
      <point x="234" y="143" type="curve" smooth="yes"/>
      <point x="307" y="523" type="line"/>
      <point x="108" y="523" type="line"/>
    </contour>
  </outline>
</glyph>
<glyph name="pi" format="2">
  <advance width="593"/>
  <unicode hex="03C0"/>
  <outline>
    <contour>
      <point x="245" y="0" type="line"/>
      <point x="323" y="456" type="line"/>
      <point x="242" y="456" type="line"/>
      <point x="189" y="228"/>
      <point x="117" y="174"/>
      <point x="87" y="0" type="curve"/>
    </contour>
    <contour>
      <point x="587" y="376" type="line"/>
      <point x="618" y="523" type="line"/>
      <point x="269" y="523" type="line" smooth="yes"/>
      <point x="137" y="523"/>
      <point x="71" y="441"/>
      <point x="36" y="318" type="curve"/>
      <point x="68" y="297" type="line"/>
      <point x="88" y="353"/>
      <point x="124" y="376"/>
      <point x="161" y="376" type="curve" smooth="yes"/>
    </contour>
    <contour>
      <point x="512" y="456" type="line"/>
      <point x="440" y="456" type="line"/>
      <point x="376" y="245"/>
      <point x="301" y="194"/>
      <point x="298" y="109" type="curve" smooth="yes"/>
      <point x="294" y="31"/>
      <point x="342" y="-10"/>
      <point x="425" y="-10" type="curve" smooth="yes"/>
      <point x="486" y="-10"/>
      <point x="548" y="34"/>
      <point x="586" y="125" type="curve"/>
      <point x="556" y="149" type="line"/>
      <point x="527" y="90"/>
      <point x="497" y="57"/>
      <point x="471" y="57" type="curve" smooth="yes"/>
      <point x="458" y="57"/>
      <point x="451" y="67"/>
      <point x="452" y="87" type="curve" smooth="yes"/>
      <point x="452" y="96"/>
      <point x="453" y="107"/>
      <point x="457" y="132" type="curve" smooth="yes"/>
    </contour>
  </outline>
</glyph>
<glyph name="ohorntilde" format="2">
  <advance width="532"/>
  <unicode hex="1EE1"/>
  <outline>
    <contour>
      <point x="333" y="585" type="curve" smooth="yes"/>
      <point x="387" y="585"/>
      <point x="420" y="644"/>
      <point x="445" y="736" type="curve"/>
      <point x="409" y="752" type="line"/>
      <point x="394" y="708"/>
      <point x="383" y="693"/>
      <point x="362" y="693" type="curve" smooth="yes"/>
      <point x="325" y="693"/>
      <point x="293" y="747"/>
      <point x="247" y="747" type="curve" smooth="yes"/>
      <point x="189" y="747"/>
      <point x="156" y="691"/>
      <point x="134" y="597" type="curve"/>
      <point x="170" y="583" type="line"/>
      <point x="183" y="623"/>
      <point x="195" y="639"/>
      <point x="215" y="639" type="curve" smooth="yes"/>
      <point x="249" y="639"/>
      <point x="286" y="585"/>
    </contour>
    <component base="ohorn"/>
  </outline>
</glyph>
<glyph name="bullet" format="2">
  <advance width="313"/>
  <unicode hex="2022"/>
  <outline>
    <contour>
      <point x="70" y="337" type="curve" smooth="yes"/>
      <point x="66" y="260"/>
      <point x="108" y="207"/>
      <point x="168" y="207" type="curve" smooth="yes"/>
      <point x="229" y="207"/>
      <point x="274" y="260"/>
      <point x="278" y="337" type="curve" smooth="yes"/>
      <point x="281" y="414"/>
      <point x="240" y="467"/>
      <point x="179" y="467" type="curve" smooth="yes"/>
      <point x="119" y="467"/>
      <point x="73" y="414"/>
    </contour>
  </outline>
</glyph>
<glyph name="perthousand" format="2">
  <advance width="935"/>
  <unicode hex="2030"/>
  <outline>
    <contour>
      <point x="190" y="374" type="curve" smooth="yes"/>
      <point x="289" y="374"/>
      <point x="353" y="459"/>
      <point x="358" y="563" type="curve" smooth="yes"/>
      <point x="362" y="658"/>
      <point x="316" y="720"/>
      <point x="228" y="720" type="curve" smooth="yes"/>
      <point x="129" y="720"/>
      <point x="68" y="634"/>
      <point x="63" y="531" type="curve" smooth="yes"/>
      <point x="59" y="436"/>
      <point x="103" y="374"/>
    </contour>
    <contour>
      <point x="182" y="407" type="curve" smooth="yes"/>
      <point x="174" y="407"/>
      <point x="172" y="421"/>
      <point x="174" y="464" type="curve" smooth="yes"/>
      <point x="176" y="515"/>
      <point x="204" y="687"/>
      <point x="232" y="687" type="curve" smooth="yes"/>
      <point x="238" y="687"/>
      <point x="241" y="673"/>
      <point x="240" y="631" type="curve" smooth="yes"/>
      <point x="237" y="578"/>
      <point x="210" y="407"/>
    </contour>
    <contour>
      <point x="436" y="-10" type="curve" smooth="yes"/>
      <point x="349" y="-10"/>
      <point x="303" y="52"/>
      <point x="307" y="147" type="curve" smooth="yes"/>
      <point x="312" y="250"/>
      <point x="375" y="336"/>
      <point x="474" y="336" type="curve" smooth="yes"/>
      <point x="561" y="336"/>
      <point x="607" y="274"/>
      <point x="603" y="179" type="curve" smooth="yes"/>
      <point x="598" y="75"/>
      <point x="535" y="-10"/>
    </contour>
    <contour>
      <point x="426" y="23" type="curve" smooth="yes"/>
      <point x="455" y="23"/>
      <point x="483" y="194"/>
      <point x="486" y="247" type="curve" smooth="yes"/>
      <point x="488" y="289"/>
      <point x="483" y="303"/>
      <point x="478" y="303" type="curve" smooth="yes"/>
      <point x="449" y="303"/>
      <point x="422" y="131"/>
      <point x="419" y="80" type="curve" smooth="yes"/>
      <point x="418" y="37"/>
      <point x="419" y="23"/>
    </contour>
    <contour>
      <point x="745" y="-10" type="curve" smooth="yes"/>
      <point x="658" y="-10"/>
      <point x="613" y="52"/>
      <point x="617" y="147" type="curve" smooth="yes"/>
      <point x="622" y="250"/>
      <point x="684" y="336"/>
      <point x="784" y="336" type="curve" smooth="yes"/>
      <point x="871" y="336"/>
      <point x="916" y="274"/>
      <point x="912" y="179" type="curve" smooth="yes"/>
      <point x="907" y="75"/>
      <point x="844" y="-10"/>
    </contour>
    <contour>
      <point x="736" y="23" type="curve" smooth="yes"/>
      <point x="764" y="23"/>
      <point x="792" y="194"/>
      <point x="795" y="247" type="curve" smooth="yes"/>
      <point x="797" y="289"/>
      <point x="792" y="303"/>
      <point x="787" y="303" type="curve" smooth="yes"/>
      <point x="758" y="303"/>
      <point x="731" y="131"/>
      <point x="728" y="80" type="curve" smooth="yes"/>
      <point x="727" y="37"/>
      <point x="728" y="23"/>
    </contour>
    <component base="fraction" xOffset="177"/>
  </outline>
</glyph>
<glyph name="fraction" format="2">
  <advance width="276"/>
  <unicode hex="2044"/>
  <outline>
    <contour>
      <point x="397" y="710" type="line"/>
      <point x="-141" y="0" type="line"/>
      <point x="-84" y="0" type="line"/>
      <point x="454" y="710" type="line"/>
    </contour>
  </outline>
</glyph>
<glyph name="plus.sup" format="2">
  <advance width="276"/>
  <unicode hex="207A"/>
  <outline>
    <contour>
      <point x="190" y="661" type="line"/>
      <point x="143" y="383" type="line"/>
      <point x="180" y="383" type="line"/>
      <point x="227" y="661" type="line"/>
    </contour>
    <contour>
      <point x="284" y="539" type="line"/>
      <point x="92" y="539" type="line"/>
      <point x="86" y="504" type="line"/>
      <point x="277" y="504" type="line"/>
    </contour>
  </outline>
</glyph>
<glyph name="minus.sub" format="2">
  <advance width="276"/>
  <unicode hex="208B"/>
  <outline>
    <contour>
      <point x="210" y="98" type="line"/>
      <point x="18" y="98" type="line"/>
      <point x="13" y="62" type="line"/>
      <point x="205" y="62" type="line"/>
    </contour>
  </outline>
</glyph>
<glyph name="colonmonetary" format="2">
  <advance width="423"/>
  <unicode hex="20A1"/>
  <outline>
    <contour>
      <point x="306" y="790" type="line"/>
      <point x="287" y="694" type="line"/>
      <point x="286" y="681" type="line"/>
      <point x="154" y="71" type="line"/>
      <point x="148" y="50" type="line"/>
      <point x="116" y="-120" type="line"/>
      <point x="158" y="-120" type="line"/>
      <point x="186" y="23" type="line"/>
      <point x="189" y="44" type="line"/>
      <point x="327" y="685" type="line"/>
      <point x="330" y="696" type="line"/>
      <point x="350" y="790" type="line"/>
    </contour>
    <contour>
      <point x="386" y="790" type="line"/>
      <point x="365" y="693" type="line"/>
      <point x="364" y="679" type="line"/>
      <point x="226" y="26" type="line"/>
      <point x="221" y="11" type="line"/>
      <point x="195" y="-120" type="line"/>
      <point x="238" y="-120" type="line"/>
      <point x="266" y="16" type="line"/>
      <point x="267" y="27" type="line"/>
      <point x="402" y="673" type="line"/>
      <point x="408" y="686" type="line"/>
      <point x="429" y="790" type="line"/>
    </contour>
    <contour>
      <point x="216" y="-6" type="curve" smooth="yes"/>
      <point x="299" y="-6"/>
      <point x="356" y="63"/>
      <point x="392" y="170" type="curve"/>
      <point x="360" y="196" type="line"/>
      <point x="332" y="107"/>
      <point x="300" y="46"/>
      <point x="229" y="46" type="curve" smooth="yes"/>
      <point x="174" y="46"/>
      <point x="155" y="87"/>
      <point x="160" y="207" type="curve" smooth="yes"/>
      <point x="163" y="264"/>
      <point x="169" y="319"/>
      <point x="194" y="415" type="curve" smooth="yes"/>
      <point x="230" y="575"/>
      <point x="256" y="668"/>
      <point x="340" y="668" type="curve" smooth="yes"/>
      <point x="364" y="668"/>
      <point x="393" y="648"/>
      <point x="409" y="635" type="curve"/>
      <point x="409" y="661"/>
      <point x="409" y="686"/>
      <point x="377" y="673" type="curve"/>
      <point x="351" y="529" type="line"/>
      <point x="455" y="529" type="line"/>
      <point x="479" y="660" type="line"/>
      <point x="469" y="672"/>
      <point x="427" y="716"/>
      <point x="335" y="716" type="curve" smooth="yes"/>
      <point x="161" y="716"/>
      <point x="33" y="533"/>
      <point x="22" y="280" type="curve" smooth="yes"/>
      <point x="14" y="84"/>
      <point x="96" y="-6"/>
    </contour>
  </outline>
</glyph>
<glyph name="franc" format="2">
  <advance width="423"/>
  <unicode hex="20A3"/>
  <outline>
    <contour>
      <point x="-19" y="0" type="line"/>
      <point x="277" y="0" type="line"/>
      <point x="286" y="40" type="line"/>
      <point x="271" y="40" type="line" smooth="yes"/>
      <point x="254" y="40"/>
      <point x="232" y="41"/>
      <point x="238" y="74" type="curve" smooth="yes"/>
      <point x="340" y="662" type="line"/>
      <point x="364" y="662" type="line" smooth="yes"/>
      <point x="398" y="662"/>
      <point x="420" y="652"/>
      <point x="420" y="616" type="curve" smooth="yes"/>
      <point x="419" y="522" type="line"/>
      <point x="455" y="522" type="line"/>
      <point x="488" y="710" type="line"/>
      <point x="107" y="710" type="line"/>
      <point x="98" y="670" type="line"/>
      <point x="107" y="670" type="line" smooth="yes"/>
      <point x="123" y="670"/>
      <point x="134" y="663"/>
      <point x="130" y="634" type="curve" smooth="yes"/>
      <point x="31" y="75" type="line" smooth="yes"/>
      <point x="26" y="47"/>
      <point x="15" y="40"/>
      <point x="-3" y="40" type="curve" smooth="yes"/>
      <point x="-11" y="40" type="line"/>
    </contour>
    <contour>
      <point x="274" y="406" type="curve"/>
      <point x="266" y="363" type="line"/>
      <point x="319" y="359"/>
      <point x="356" y="348"/>
      <point x="391" y="333" type="curve"/>
      <point x="411" y="435" type="line"/>
      <point x="370" y="422"/>
      <point x="328" y="412"/>
    </contour>
    <contour>
      <point x="22" y="240" type="line"/>
      <point x="13" y="191" type="line"/>
      <point x="329" y="191" type="line"/>
      <point x="338" y="240" type="line"/>
    </contour>
  </outline>
</glyph>
<glyph name="lira" format="2">
  <advance width="423"/>
  <unicode hex="20A4"/>
  <outline>
    <contour>
      <point x="-19" y="-7" type="line"/>
      <point x="181" y="9"/>
      <point x="249" y="157"/>
      <point x="253" y="262" type="curve" smooth="yes"/>
      <point x="259" y="392"/>
      <point x="257" y="455"/>
      <point x="261" y="550" type="curve" smooth="yes"/>
      <point x="265" y="631"/>
      <point x="278" y="672"/>
      <point x="313" y="672" type="curve" smooth="yes"/>
      <point x="331" y="672"/>
      <point x="340" y="657"/>
      <point x="343" y="634" type="curve"/>
      <point x="380" y="638"/>
      <point x="381" y="670"/>
      <point x="333" y="673" type="curve"/>
      <point x="308" y="537" type="line"/>
      <point x="441" y="537" type="line"/>
      <point x="464" y="664" type="line"/>
      <point x="444" y="683"/>
      <point x="388" y="720"/>
      <point x="294" y="720" type="curve" smooth="yes"/>
      <point x="152" y="720"/>
      <point x="81" y="639"/>
      <point x="76" y="521" type="curve" smooth="yes"/>
      <point x="71" y="414"/>
      <point x="122" y="334"/>
      <point x="116" y="210" type="curve" smooth="yes"/>
      <point x="112" y="124"/>
      <point x="72" y="56"/>
      <point x="-10" y="36" type="curve"/>
    </contour>
    <contour>
      <point x="308" y="-10" type="curve" smooth="yes"/>
      <point x="342" y="-10"/>
      <point x="382" y="31"/>
      <point x="424" y="211" type="curve"/>
      <point x="390" y="229" type="line"/>
      <point x="361" y="165"/>
      <point x="349" y="143"/>
      <point x="313" y="143" type="curve" smooth="yes"/>
      <point x="277" y="143"/>
      <point x="250" y="152"/>
      <point x="210" y="187" type="curve"/>
      <point x="190" y="159" type="line"/>
      <point x="246" y="37"/>
      <point x="263" y="-10"/>
    </contour>
    <contour>
      <point x="29" y="326" type="line"/>
      <point x="19" y="278" type="line"/>
      <point x="330" y="278" type="line"/>
      <point x="340" y="326" type="line"/>
    </contour>
    <contour>
      <point x="48" y="443" type="line"/>
      <point x="39" y="395" type="line"/>
      <point x="350" y="395" type="line"/>
      <point x="359" y="443" type="line"/>
    </contour>
  </outline>
</glyph>
<glyph name="naira" format="2">
  <advance width="423"/>
  <unicode hex="20A6"/>
  <outline>
    <contour>
      <point x="-33" y="0" type="line"/>
      <point x="90" y="0" type="line"/>
      <point x="98" y="40" type="line"/>
      <point x="90" y="40" type="line" smooth="yes"/>
      <point x="71" y="40"/>
      <point x="53" y="45"/>
      <point x="54" y="54" type="curve" smooth="yes"/>
      <point x="167" y="692" type="line"/>
      <point x="162" y="692" type="line"/>
      <point x="143" y="0" type="line"/>
      <point x="339" y="0" type="line"/>
      <point x="452" y="636" type="line" smooth="yes"/>
      <point x="456" y="663"/>
      <point x="468" y="670"/>
      <point x="482" y="670" type="curve" smooth="yes"/>
      <point x="488" y="670" type="line"/>
      <point x="497" y="710" type="line"/>
      <point x="374" y="710" type="line"/>
      <point x="366" y="670" type="line"/>
      <point x="375" y="670" type="line" smooth="yes"/>
      <point x="391" y="670"/>
      <point x="410" y="664"/>
      <point x="409" y="654" type="curve" smooth="yes"/>
      <point x="303" y="62" type="line"/>
      <point x="308" y="62" type="line"/>
      <point x="333" y="710" type="line"/>
      <point x="93" y="710" type="line"/>
      <point x="84" y="670" type="line"/>
      <point x="93" y="670" type="line" smooth="yes"/>
      <point x="107" y="670"/>
      <point x="116" y="664"/>
      <point x="112" y="638" type="curve" smooth="yes"/>
      <point x="13" y="75" type="line" smooth="yes"/>
      <point x="8" y="51"/>
      <point x="-4" y="40"/>
      <point x="-18" y="40" type="curve" smooth="yes"/>
      <point x="-25" y="40" type="line"/>
    </contour>
    <contour>
      <point x="109" y="484" type="line"/>
      <point x="56" y="484" type="line"/>
      <point x="46" y="436" type="line"/>
      <point x="100" y="436" type="line"/>
    </contour>
    <contour>
      <point x="270" y="442" type="line"/>
      <point x="388" y="442" type="line"/>
      <point x="398" y="436" type="line"/>
      <point x="450" y="436" type="line"/>
      <point x="459" y="484" type="line"/>
      <point x="281" y="484" type="line"/>
    </contour>
    <contour>
      <point x="366" y="272" type="line"/>
      <point x="420" y="272" type="line"/>
      <point x="430" y="320" type="line"/>
      <point x="375" y="320" type="line"/>
    </contour>
    <contour>
      <point x="208" y="315" type="line"/>
      <point x="91" y="315" type="line"/>
      <point x="86" y="320" type="line"/>
      <point x="27" y="320" type="line"/>
      <point x="17" y="272" type="line"/>
      <point x="197" y="272" type="line"/>
    </contour>
  </outline>
</glyph>
<glyph name="peseta" format="2">
  <advance width="423"/>
  <unicode hex="20A7"/>
  <outline>
    <contour>
      <point x="-34" y="0" type="line"/>
      <point x="120" y="0" type="line"/>
      <point x="127" y="40" type="line"/>
      <point x="124" y="40" type="line" smooth="yes"/>
      <point x="114" y="40"/>
      <point x="103" y="43"/>
      <point x="104" y="48" type="curve" smooth="yes"/>
      <point x="140" y="255" type="line"/>
      <point x="158" y="255" type="line" smooth="yes"/>
      <point x="248" y="255"/>
      <point x="309" y="391"/>
      <point x="316" y="543" type="curve" smooth="yes"/>
      <point x="320" y="652"/>
      <point x="290" y="710"/>
      <point x="204" y="710" type="curve" smooth="yes"/>
      <point x="91" y="710" type="line"/>
      <point x="83" y="670" type="line"/>
      <point x="84" y="670" type="line" smooth="yes"/>
      <point x="90" y="670"/>
      <point x="94" y="666"/>
      <point x="91" y="645" type="curve" smooth="yes"/>
      <point x="-12" y="65" type="line" smooth="yes"/>
      <point x="-15" y="44"/>
      <point x="-21" y="40"/>
      <point x="-27" y="40" type="curve" smooth="yes"/>
      <point x="-27" y="40" type="line"/>
    </contour>
    <contour>
      <point x="214" y="656" type="line" smooth="yes"/>
      <point x="217" y="656"/>
      <point x="217" y="639"/>
      <point x="214" y="593" type="curve" smooth="yes"/>
      <point x="212" y="567"/>
      <point x="206" y="530"/>
      <point x="196" y="479" type="curve" smooth="yes"/>
      <point x="174" y="358"/>
      <point x="164" y="309"/>
      <point x="152" y="309" type="curve" smooth="yes"/>
      <point x="150" y="309" type="line"/>
      <point x="210" y="656" type="line"/>
    </contour>
    <contour>
      <point x="314" y="504" type="line"/>
      <point x="245" y="118" type="line" smooth="yes"/>
      <point x="242" y="102"/>
      <point x="242" y="91"/>
      <point x="242" y="81" type="curve" smooth="yes"/>
      <point x="239" y="14"/>
      <point x="273" y="-10"/>
      <point x="325" y="-10" type="curve" smooth="yes"/>
      <point x="351" y="-10"/>
      <point x="363" y="-7"/>
      <point x="375" y="-2" type="curve"/>
      <point x="385" y="41" type="line"/>
      <point x="381" y="40"/>
      <point x="373" y="38"/>
      <point x="370" y="38" type="curve" smooth="yes"/>
      <point x="362" y="38"/>
      <point x="358" y="46"/>
      <point x="359" y="64" type="curve" smooth="yes"/>
      <point x="359" y="69"/>
      <point x="359" y="76"/>
      <point x="360" y="86" type="curve" smooth="yes"/>
      <point x="465" y="660" type="line"/>
      <point x="378" y="660" type="line"/>
      <point x="353" y="584" type="line" smooth="yes"/>
      <point x="337" y="529"/>
      <point x="333" y="516"/>
      <point x="312" y="516" type="curve" smooth="yes"/>
      <point x="292" y="516" type="line"/>
      <point x="285" y="478" type="line"/>
      <point x="460" y="478" type="line"/>
      <point x="468" y="523" type="line"/>
      <point x="369" y="523" type="line"/>
    </contour>
  </outline>
</glyph>
<glyph name="dong" format="2">
  <advance width="423"/>
  <unicode hex="20AB"/>
  <outline>
    <contour>
      <point x="110" y="-10" type="curve" smooth="yes"/>
      <point x="156" y="-10"/>
      <point x="192" y="46"/>
      <point x="214" y="126" type="curve"/>
      <point x="201" y="146" type="line"/>
      <point x="197" y="107"/>
      <point x="193" y="82"/>
      <point x="191" y="82" type="curve" smooth="yes"/>
      <point x="183" y="82"/>
      <point x="181" y="106"/>
      <point x="183" y="160" type="curve" smooth="yes"/>
      <point x="185" y="195"/>
      <point x="192" y="241"/>
      <point x="199" y="286" type="curve" smooth="yes"/>
      <point x="225" y="418"/>
      <point x="239" y="481"/>
      <point x="263" y="481" type="curve" smooth="yes"/>
      <point x="271" y="481"/>
      <point x="274" y="467"/>
      <point x="276" y="438" type="curve"/>
      <point x="309" y="468" type="line"/>
      <point x="293" y="506"/>
      <point x="266" y="533"/>
      <point x="225" y="533" type="curve" smooth="yes"/>
      <point x="89" y="533"/>
      <point x="13" y="360"/>
      <point x="5" y="189" type="curve" smooth="yes"/>
      <point x="0" y="61"/>
      <point x="40" y="-10"/>
    </contour>
    <contour>
      <point x="291" y="-10" type="curve" smooth="yes"/>
      <point x="330" y="-10"/>
      <point x="362" y="3"/>
      <point x="377" y="15" type="curve"/>
      <point x="383" y="53" type="line"/>
      <point x="383" y="51"/>
      <point x="379" y="44"/>
      <point x="375" y="44" type="curve" smooth="yes"/>
      <point x="367" y="44"/>
      <point x="363" y="50"/>
      <point x="364" y="67" type="curve" smooth="yes"/>
      <point x="365" y="89"/>
      <point x="371" y="112"/>
      <point x="379" y="148" type="curve" smooth="yes"/>
      <point x="484" y="750" type="line"/>
      <point x="307" y="750" type="line"/>
      <point x="192" y="107" type="line"/>
      <point x="197" y="112" type="line"/>
      <point x="196" y="103"/>
      <point x="197" y="98"/>
      <point x="197" y="91" type="curve"/>
      <point x="198" y="21"/>
      <point x="226" y="-10"/>
    </contour>
    <contour>
      <point x="-7" y="-144" type="line"/>
      <point x="341" y="-144" type="line"/>
      <point x="351" y="-94" type="line"/>
      <point x="4" y="-94" type="line"/>
    </contour>
    <contour>
      <point x="200" y="607" type="line"/>
      <point x="482" y="607" type="line"/>
      <point x="491" y="654" type="line"/>
      <point x="208" y="654" type="line"/>
    </contour>
  </outline>
</glyph>
<glyph name="peso" format="2">
  <advance width="424"/>
  <unicode hex="20B1"/>
  <outline>
    <contour>
      <point x="47" y="501" type="line"/>
      <point x="39" y="453" type="line"/>
      <point x="186" y="453" type="line"/>
      <point x="197" y="454" type="line"/>
      <point x="338" y="454" type="line"/>
      <point x="367" y="453" type="line"/>
      <point x="451" y="453" type="line"/>
      <point x="461" y="501" type="line"/>
      <point x="386" y="501" type="line"/>
      <point x="361" y="499" type="line"/>
      <point x="188" y="499" type="line"/>
      <point x="184" y="501" type="line"/>
    </contour>
    <contour>
      <point x="-38" y="0" type="line"/>
      <point x="169" y="0" type="line"/>
      <point x="176" y="40" type="line"/>
      <point x="173" y="40" type="line" smooth="yes"/>
      <point x="156" y="40"/>
      <point x="151" y="42"/>
      <point x="152" y="52" type="curve" smooth="yes"/>
      <point x="184" y="238" type="line"/>
      <point x="205" y="238" type="line" smooth="yes"/>
      <point x="348" y="238"/>
      <point x="428" y="356"/>
      <point x="434" y="510" type="curve" smooth="yes"/>
      <point x="440" y="638"/>
      <point x="390" y="710"/>
      <point x="274" y="710" type="curve" smooth="yes"/>
      <point x="87" y="710" type="line"/>
      <point x="80" y="670" type="line"/>
      <point x="88" y="670" type="line" smooth="yes"/>
      <point x="98" y="670"/>
      <point x="101" y="663"/>
      <point x="96" y="635" type="curve" smooth="yes"/>
      <point x="-2" y="75" type="line" smooth="yes"/>
      <point x="-7" y="47"/>
      <point x="-13" y="40"/>
      <point x="-22" y="40" type="curve" smooth="yes"/>
      <point x="-31" y="40" type="line"/>
    </contour>
    <contour>
      <point x="267" y="661" type="line" smooth="yes"/>
      <point x="277" y="661"/>
      <point x="288" y="644"/>
      <point x="285" y="569" type="curve" smooth="yes"/>
      <point x="284" y="541"/>
      <point x="280" y="504"/>
      <point x="269" y="453" type="curve" smooth="yes"/>
      <point x="241" y="319"/>
      <point x="220" y="287"/>
      <point x="198" y="287" type="curve" smooth="yes"/>
      <point x="194" y="287" type="line"/>
      <point x="259" y="661" type="line"/>
    </contour>
  </outline>
</glyph>
<glyph name="guarani" format="2">
  <advance width="423"/>
  <unicode hex="20B2"/>
  <outline>
    <contour>
      <point x="307" y="790" type="line"/>
      <point x="292" y="699" type="line"/>
      <point x="291" y="681" type="line"/>
      <point x="172" y="28" type="line"/>
      <point x="166" y="7" type="line"/>
      <point x="145" y="-120" type="line"/>
      <point x="198" y="-120" type="line"/>
      <point x="218" y="6" type="line"/>
      <point x="221" y="30" type="line"/>
      <point x="338" y="682" type="line"/>
      <point x="346" y="700" type="line"/>
      <point x="360" y="790" type="line"/>
    </contour>
    <contour>
      <point x="205" y="-6" type="curve" smooth="yes"/>
      <point x="286" y="-6"/>
      <point x="345" y="40"/>
      <point x="367" y="67" type="curve"/>
      <point x="408" y="290" type="line" smooth="yes"/>
      <point x="412" y="317"/>
      <point x="417" y="322"/>
      <point x="425" y="322" type="curve" smooth="yes"/>
      <point x="429" y="322" type="line"/>
      <point x="436" y="360" type="line"/>
      <point x="312" y="360" type="line"/>
      <point x="304" y="321" type="line"/>
      <point x="303" y="321" type="line"/>
      <point x="300" y="316"/>
      <point x="298" y="315"/>
      <point x="293" y="285" type="curve" smooth="yes"/>
      <point x="253" y="61" type="line"/>
      <point x="242" y="48"/>
      <point x="226" y="40"/>
      <point x="218" y="40" type="curve" smooth="yes"/>
      <point x="180" y="40"/>
      <point x="167" y="79"/>
      <point x="173" y="198" type="curve" smooth="yes"/>
      <point x="175" y="255"/>
      <point x="186" y="350"/>
      <point x="210" y="442" type="curve" smooth="yes"/>
      <point x="237" y="567"/>
      <point x="253" y="670"/>
      <point x="317" y="670" type="curve" smooth="yes"/>
      <point x="359" y="670"/>
      <point x="370" y="651"/>
      <point x="387" y="618" type="curve"/>
      <point x="395" y="623"/>
      <point x="425" y="664"/>
      <point x="369" y="666" type="curve"/>
      <point x="346" y="526" type="line"/>
      <point x="452" y="526" type="line"/>
      <point x="474" y="644" type="line"/>
      <point x="466" y="661"/>
      <point x="415" y="716"/>
      <point x="306" y="716" type="curve" smooth="yes"/>
      <point x="149" y="716"/>
      <point x="31" y="524"/>
      <point x="21" y="289" type="curve" smooth="yes"/>
      <point x="12" y="101"/>
      <point x="85" y="-6"/>
    </contour>
  </outline>
</glyph>
<glyph name="uni20B4" format="2">
  <advance width="423"/>
  <unicode hex="20B4"/>
  <outline>
    <contour>
      <point x="22" y="279" type="line"/>
      <point x="407" y="279" type="line"/>
      <point x="417" y="327" type="line"/>
      <point x="31" y="327" type="line"/>
    </contour>
    <contour>
      <point x="43" y="404" type="line"/>
      <point x="429" y="404" type="line"/>
      <point x="438" y="452" type="line"/>
      <point x="53" y="452" type="line"/>
    </contour>
    <contour>
      <point x="204" y="-10" type="curve" smooth="yes"/>
      <point x="275" y="-10"/>
      <point x="337" y="21"/>
      <point x="362" y="47" type="curve"/>
      <point x="388" y="186" type="line"/>
      <point x="268" y="186" type="line"/>
      <point x="240" y="34" type="line"/>
      <point x="254" y="34"/>
      <point x="299" y="79"/>
      <point x="287" y="92" type="curve"/>
      <point x="263" y="57"/>
      <point x="249" y="38"/>
      <point x="224" y="38" type="curve" smooth="yes"/>
      <point x="200" y="38"/>
      <point x="189" y="70"/>
      <point x="191" y="125" type="curve" smooth="yes"/>
      <point x="194" y="192"/>
      <point x="232" y="253"/>
      <point x="321" y="287" type="curve"/>
      <point x="166" y="309" type="line"/>
      <point x="76" y="279"/>
      <point x="25" y="216"/>
      <point x="22" y="145" type="curve"/>
      <point x="18" y="51"/>
      <point x="78" y="-10"/>
    </contour>
    <contour>
      <point x="312" y="425" type="line"/>
      <point x="389" y="456"/>
      <point x="435" y="509"/>
      <point x="438" y="578" type="curve"/>
      <point x="442" y="663"/>
      <point x="393" y="720"/>
      <point x="274" y="720" type="curve" smooth="yes"/>
      <point x="186" y="720"/>
      <point x="135" y="684"/>
      <point x="118" y="668" type="curve"/>
      <point x="94" y="551" type="line"/>
      <point x="211" y="551" type="line"/>
      <point x="238" y="687" type="line"/>
      <point x="233" y="687"/>
      <point x="188" y="656"/>
      <point x="199" y="630" type="curve"/>
      <point x="216" y="657"/>
      <point x="227" y="672"/>
      <point x="250" y="672" type="curve" smooth="yes"/>
      <point x="273" y="672"/>
      <point x="280" y="647"/>
      <point x="279" y="607" type="curve" smooth="yes"/>
      <point x="276" y="543"/>
      <point x="224" y="481"/>
      <point x="142" y="442" type="curve"/>
    </contour>
  </outline>
</glyph>
<glyph name="uni20B8" format="2">
  <advance width="423"/>
  <unicode hex="20B8"/>
  <outline>
    <contour>
      <point x="88" y="76" type="line" smooth="yes"/>
      <point x="83" y="46"/>
      <point x="72" y="40"/>
      <point x="55" y="40" type="curve" smooth="yes"/>
      <point x="44" y="40" type="line"/>
      <point x="36" y="0" type="line"/>
      <point x="296" y="0" type="line"/>
      <point x="304" y="40" type="line"/>
      <point x="293" y="40" type="line" smooth="yes"/>
      <point x="275" y="40"/>
      <point x="267" y="46"/>
      <point x="273" y="76" type="curve" smooth="yes"/>
      <point x="353" y="534" type="line"/>
      <point x="382" y="534" type="line" smooth="yes"/>
      <point x="392" y="534"/>
      <point x="409" y="525"/>
      <point x="406" y="486" type="curve" smooth="yes"/>
      <point x="398" y="361" type="line"/>
      <point x="435" y="361" type="line"/>
      <point x="475" y="583" type="line"/>
      <point x="64" y="583" type="line"/>
      <point x="24" y="361" type="line"/>
      <point x="61" y="361" type="line"/>
      <point x="103" y="485" type="line" smooth="yes"/>
      <point x="115" y="525"/>
      <point x="131" y="534"/>
      <point x="144" y="534" type="curve" smooth="yes"/>
      <point x="169" y="534" type="line"/>
    </contour>
    <contour>
      <point x="86" y="710" type="line"/>
      <point x="78" y="662" type="line"/>
      <point x="488" y="662" type="line"/>
      <point x="497" y="710" type="line"/>
    </contour>
  </outline>
</glyph>
<glyph name="servicemark" format="2">
  <advance width="691"/>
  <unicode hex="2120"/>
  <outline>
    <contour>
      <point x="321" y="374" type="line"/>
      <point x="387" y="374" type="line"/>
      <point x="393" y="404" type="line"/>
      <point x="391" y="404" type="line" smooth="yes"/>
      <point x="384" y="404"/>
      <point x="377" y="406"/>
      <point x="377" y="409" type="curve" smooth="yes"/>
      <point x="429" y="701" type="line"/>
      <point x="420" y="700" type="line"/>
      <point x="433" y="373" type="line"/>
      <point x="492" y="373" type="line"/>
      <point x="627" y="699" type="line"/>
      <point x="618" y="700" type="line"/>
      <point x="566" y="409" type="line" smooth="yes"/>
      <point x="566" y="406"/>
      <point x="559" y="404"/>
      <point x="552" y="404" type="curve" smooth="yes"/>
      <point x="548" y="404" type="line"/>
      <point x="541" y="374" type="line"/>
      <point x="684" y="374" type="line"/>
      <point x="691" y="404" type="line"/>
      <point x="688" y="404" type="line" smooth="yes"/>
      <point x="680" y="404"/>
      <point x="674" y="408"/>
      <point x="676" y="421" type="curve" smooth="yes"/>
      <point x="720" y="664" type="line" smooth="yes"/>
      <point x="723" y="678"/>
      <point x="728" y="681"/>
      <point x="736" y="681" type="curve" smooth="yes"/>
      <point x="739" y="681" type="line"/>
      <point x="745" y="710" type="line"/>
      <point x="598" y="710" type="line"/>
      <point x="520" y="493" type="line"/>
      <point x="538" y="493" type="line"/>
      <point x="530" y="710" type="line"/>
      <point x="382" y="710" type="line"/>
      <point x="376" y="681" type="line"/>
      <point x="379" y="681" type="line" smooth="yes"/>
      <point x="387" y="681"/>
      <point x="392" y="678"/>
      <point x="388" y="664" type="curve" smooth="yes"/>
      <point x="346" y="421" type="line" smooth="yes"/>
      <point x="344" y="408"/>
      <point x="339" y="404"/>
      <point x="331" y="404" type="curve"/>
      <point x="328" y="404" type="line"/>
    </contour>
    <contour>
      <point x="105" y="612" type="curve" smooth="yes"/>
      <point x="102" y="552"/>
      <point x="133" y="525"/>
      <point x="170" y="502" type="curve" smooth="yes"/>
      <point x="206" y="479"/>
      <point x="219" y="466"/>
      <point x="218" y="441" type="curve" smooth="yes"/>
      <point x="217" y="421"/>
      <point x="205" y="403"/>
      <point x="180" y="403" type="curve" smooth="yes"/>
      <point x="149" y="403"/>
      <point x="119" y="433"/>
      <point x="109" y="489" type="curve"/>
      <point x="83" y="489" type="line"/>
      <point x="61" y="371" type="line"/>
      <point x="87" y="371" type="line"/>
      <point x="111" y="440" type="line"/>
      <point x="95" y="445" type="line"/>
      <point x="102" y="404"/>
      <point x="135" y="368"/>
      <point x="191" y="368" type="curve" smooth="yes"/>
      <point x="270" y="368"/>
      <point x="313" y="413"/>
      <point x="316" y="488" type="curve" smooth="yes"/>
      <point x="319" y="539"/>
      <point x="285" y="570"/>
      <point x="236" y="598" type="curve" smooth="yes"/>
      <point x="207" y="613"/>
      <point x="195" y="623"/>
      <point x="196" y="649" type="curve" smooth="yes"/>
      <point x="197" y="669"/>
      <point x="207" y="682"/>
      <point x="228" y="682" type="curve" smooth="yes"/>
      <point x="260" y="682"/>
      <point x="288" y="649"/>
      <point x="295" y="618" type="curve"/>
      <point x="321" y="618" type="line"/>
      <point x="338" y="714" type="line"/>
      <point x="312" y="714" type="line"/>
      <point x="290" y="646" type="line"/>
      <point x="308" y="649" type="line"/>
      <point x="294" y="693"/>
      <point x="262" y="717"/>
      <point x="216" y="717" type="curve" smooth="yes"/>
      <point x="148" y="717"/>
      <point x="108" y="678"/>
    </contour>
  </outline>
</glyph>
<glyph name="integral" format="2">
  <advance width="548"/>
  <unicode hex="222B"/>
  <outline>
    <contour>
      <point x="401" y="592" type="line" smooth="yes"/>
      <point x="411" y="674"/>
      <point x="432" y="701"/>
      <point x="461" y="701" type="curve" smooth="yes"/>
      <point x="480" y="701"/>
      <point x="489" y="685"/>
      <point x="489" y="657" type="curve"/>
      <point x="516" y="676"/>
      <point x="502" y="705"/>
      <point x="475" y="704" type="curve"/>
      <point x="460" y="594" type="line"/>
      <point x="576" y="594" type="line"/>
      <point x="590" y="700" type="line"/>
      <point x="578" y="715"/>
      <point x="534" y="747"/>
      <point x="447" y="747" type="curve" smooth="yes"/>
      <point x="315" y="747"/>
      <point x="208" y="670"/>
      <point x="186" y="520" type="curve" smooth="yes"/>
      <point x="109" y="-40" type="line" smooth="yes"/>
      <point x="91" y="-161"/>
      <point x="73" y="-190"/>
      <point x="49" y="-190" type="curve" smooth="yes"/>
      <point x="29" y="-190"/>
      <point x="16" y="-172"/>
      <point x="17" y="-143" type="curve"/>
      <point x="-7" y="-159"/>
      <point x="4" y="-196"/>
      <point x="27" y="-195" type="curve"/>
      <point x="43" y="-81" type="line"/>
      <point x="-74" y="-81" type="line"/>
      <point x="-88" y="-188" type="line"/>
      <point x="-77" y="-204"/>
      <point x="-32" y="-236"/>
      <point x="59" y="-236" type="curve" smooth="yes"/>
      <point x="188" y="-236"/>
      <point x="293" y="-157"/>
      <point x="316" y="-4" type="curve" smooth="yes"/>
    </contour>
  </outline>
</glyph>
<glyph name="hook" format="2">
  <advance width="385"/>
  <unicode hex="2440"/>
  <anchor x="202" y="517" name="_top"/>
  <outline>
    <contour>
      <point x="82" y="698" type="line"/>
      <point x="96" y="756"/>
      <point x="134" y="802"/>
      <point x="222" y="802" type="curve" smooth="yes"/>
      <point x="291" y="802"/>
      <point x="327" y="769"/>
      <point x="324" y="717" type="curve" smooth="yes"/>
      <point x="322" y="664"/>
      <point x="277" y="625"/>
      <point x="194" y="615" type="curve"/>
      <point x="211" y="632" type="line"/>
      <point x="201" y="576" type="line"/>
      <point x="149" y="576" type="line"/>
      <point x="162" y="643" type="line"/>
      <point x="211" y="652"/>
      <point x="227" y="676"/>
      <point x="228" y="715" type="curve" smooth="yes"/>
      <point x="229" y="738"/>
      <point x="225" y="752"/>
      <point x="208" y="752" type="curve" smooth="yes"/>
      <point x="189" y="752"/>
      <point x="174" y="734"/>
      <point x="167" y="698" type="curve"/>
    </contour>
  </outline>
</glyph>
<glyph name="uni25B5" format="2">
  <advance width="472"/>
  <unicode hex="25B5"/>
  <outline>
    <contour>
      <point x="442" y="91" type="line"/>
      <point x="38" y="91" type="line"/>
      <point x="256" y="464" type="line"/>
    </contour>
    <contour>
      <point x="380" y="141" type="line"/>
      <point x="373" y="125" type="line"/>
      <point x="249" y="380" type="line"/>
      <point x="257" y="380" type="line"/>
      <point x="108" y="125" type="line"/>
      <point x="105" y="141" type="line"/>
    </contour>
  </outline>
</glyph>
<glyph name="uni25BF" format="2">
  <advance width="472"/>
  <unicode hex="25BF"/>
  <outline>
    <contour>
      <point x="458" y="464" type="line"/>
      <point x="54" y="464" type="line"/>
      <point x="240" y="91" type="line"/>
    </contour>
    <contour>
      <point x="392" y="414" type="line"/>
      <point x="387" y="430" type="line"/>
      <point x="240" y="175" type="line"/>
      <point x="248" y="175" type="line"/>
      <point x="122" y="430" type="line"/>
      <point x="117" y="414" type="line"/>
    </contour>
  </outline>
</glyph>
<glyph name="one.den" format="2">
  <advance width="285"/>
  <unicode hex="E403"/>
  <outline>
    <contour>
      <point x="208" y="60" type="curve" smooth="yes"/>
      <point x="263" y="371" type="line"/>
      <point x="168" y="371" type="line"/>
      <point x="136" y="335"/>
      <point x="110" y="316"/>
      <point x="48" y="316" type="curve"/>
      <point x="31" y="238" type="line"/>
      <point x="80" y="245"/>
      <point x="100" y="269"/>
      <point x="128" y="319" type="curve"/>
      <point x="125" y="321"/>
      <point x="123" y="321"/>
      <point x="120" y="316" type="curve"/>
      <point x="75" y="60" type="line" smooth="yes"/>
      <point x="71" y="36"/>
      <point x="45" y="32"/>
      <point x="19" y="32" type="curve" smooth="yes"/>
      <point x="10" y="32" type="line"/>
      <point x="4" y="0" type="line"/>
      <point x="247" y="0" type="line"/>
      <point x="252" y="32" type="line"/>
      <point x="248" y="32" type="line" smooth="yes"/>
      <point x="222" y="32"/>
      <point x="204" y="36"/>
    </contour>
  </outline>
</glyph>
<glyph name="three.den" format="2">
  <advance width="285"/>
  <unicode hex="E405"/>
  <outline>
    <contour>
      <point x="150" y="339" type="curve" smooth="yes"/>
      <point x="145" y="339"/>
      <point x="140" y="334"/>
      <point x="137" y="322" type="curve"/>
      <point x="135" y="332"/>
      <point x="134" y="343"/>
      <point x="142" y="346" type="curve"/>
      <point x="128" y="266" type="line"/>
      <point x="43" y="266" type="line"/>
      <point x="56" y="338" type="line"/>
      <point x="74" y="355"/>
      <point x="106" y="376"/>
      <point x="170" y="376" type="curve" smooth="yes"/>
      <point x="237" y="376"/>
      <point x="284" y="345"/>
      <point x="282" y="290" type="curve" smooth="yes"/>
      <point x="279" y="221"/>
      <point x="221" y="189"/>
      <point x="128" y="190" type="curve"/>
      <point x="123" y="203" type="line"/>
      <point x="215" y="199"/>
      <point x="260" y="156"/>
      <point x="257" y="103" type="curve" smooth="yes"/>
      <point x="254" y="29"/>
      <point x="201" y="-7"/>
      <point x="121" y="-7" type="curve" smooth="yes"/>
      <point x="36" y="-7"/>
      <point x="2" y="38"/>
      <point x="-4" y="100" type="curve"/>
      <point x="27" y="116" type="line"/>
      <point x="30" y="75"/>
      <point x="47" y="33"/>
      <point x="89" y="33" type="curve" smooth="yes"/>
      <point x="115" y="33"/>
      <point x="131" y="63"/>
      <point x="133" y="111" type="curve" smooth="yes"/>
      <point x="135" y="154"/>
      <point x="120" y="173"/>
      <point x="94" y="173" type="curve" smooth="yes"/>
      <point x="79" y="173" type="line"/>
      <point x="85" y="208" type="line"/>
      <point x="105" y="208" type="line" smooth="yes"/>
      <point x="156" y="208"/>
      <point x="165" y="255"/>
      <point x="167" y="295" type="curve" smooth="yes"/>
      <point x="168" y="324"/>
      <point x="162" y="339"/>
    </contour>
  </outline>
</glyph>
<glyph name="four.den" format="2">
  <advance width="300"/>
  <unicode hex="E406"/>
  <outline>
    <contour>
      <point x="-10" y="74" type="line"/>
      <point x="274" y="74" type="line"/>
      <point x="290" y="155" type="line"/>
      <point x="33" y="155" type="line"/>
      <point x="20" y="121" type="line"/>
      <point x="209" y="340" type="line"/>
      <point x="225" y="371" type="line"/>
      <point x="193" y="371" type="line"/>
      <point x="5" y="145" type="line"/>
    </contour>
    <contour>
      <point x="231" y="0" type="line"/>
      <point x="299" y="371" type="line"/>
      <point x="213" y="371" type="line"/>
      <point x="157" y="298" type="line"/>
      <point x="105" y="0" type="line"/>
    </contour>
  </outline>
</glyph>
<glyph name="five.den" format="2">
  <advance width="261"/>
  <unicode hex="E407"/>
  <outline>
    <contour>
      <point x="102" y="-7" type="curve" smooth="yes"/>
      <point x="27" y="-7"/>
      <point x="2" y="30"/>
      <point x="-12" y="78" type="curve"/>
      <point x="16" y="98" type="line"/>
      <point x="28" y="60"/>
      <point x="46" y="34"/>
      <point x="72" y="34" type="curve" smooth="yes"/>
      <point x="103" y="34"/>
      <point x="119" y="81"/>
      <point x="121" y="127" type="curve" smooth="yes"/>
      <point x="122" y="165"/>
      <point x="118" y="190"/>
      <point x="96" y="190" type="curve" smooth="yes"/>
      <point x="81" y="190"/>
      <point x="65" y="175"/>
      <point x="54" y="153" type="curve"/>
      <point x="28" y="153" type="line"/>
      <point x="68" y="371" type="line"/>
      <point x="263" y="371" type="line"/>
      <point x="239" y="286" type="line"/>
      <point x="73" y="286" type="line"/>
      <point x="97" y="352" type="line"/>
      <point x="66" y="185" type="line"/>
      <point x="63" y="185"/>
      <point x="61" y="187"/>
      <point x="59" y="190" type="curve"/>
      <point x="79" y="219"/>
      <point x="107" y="236"/>
      <point x="157" y="236" type="curve" smooth="yes"/>
      <point x="212" y="236"/>
      <point x="247" y="194"/>
      <point x="244" y="125" type="curve" smooth="yes"/>
      <point x="241" y="40"/>
      <point x="185" y="-7"/>
    </contour>
  </outline>
</glyph>
<glyph name="eight.den" format="2">
  <advance width="317"/>
  <unicode hex="E40A"/>
  <outline>
    <contour>
      <point x="142" y="-7" type="curve" smooth="yes"/>
      <point x="235" y="-7"/>
      <point x="291" y="49"/>
      <point x="294" y="113" type="curve" smooth="yes"/>
      <point x="296" y="166"/>
      <point x="273" y="211"/>
      <point x="144" y="211" type="curve" smooth="yes"/>
      <point x="57" y="211"/>
      <point x="10" y="172"/>
      <point x="7" y="107" type="curve" smooth="yes"/>
      <point x="4" y="44"/>
      <point x="46" y="-7"/>
    </contour>
    <contour>
      <point x="173" y="189" type="curve" smooth="yes"/>
      <point x="272" y="189"/>
      <point x="312" y="230"/>
      <point x="314" y="286" type="curve" smooth="yes"/>
      <point x="317" y="340"/>
      <point x="271" y="377"/>
      <point x="188" y="377" type="curve" smooth="yes"/>
      <point x="105" y="377"/>
      <point x="50" y="338"/>
      <point x="47" y="280" type="curve" smooth="yes"/>
      <point x="45" y="224"/>
      <point x="80" y="189"/>
    </contour>
    <contour>
      <point x="171" y="215" type="curve" smooth="yes"/>
      <point x="163" y="215"/>
      <point x="163" y="227"/>
      <point x="164" y="244" type="curve" smooth="yes"/>
      <point x="164" y="257"/>
      <point x="166" y="274"/>
      <point x="171" y="299" type="curve" smooth="yes"/>
      <point x="177" y="326"/>
      <point x="184" y="337"/>
      <point x="192" y="337" type="curve" smooth="yes"/>
      <point x="197" y="337"/>
      <point x="199" y="326"/>
      <point x="199" y="310" type="curve" smooth="yes"/>
      <point x="198" y="297"/>
      <point x="196" y="278"/>
      <point x="190" y="251" type="curve" smooth="yes"/>
      <point x="186" y="228"/>
      <point x="182" y="215"/>
    </contour>
    <contour>
      <point x="163" y="183" type="curve" smooth="yes"/>
      <point x="169" y="183"/>
      <point x="170" y="172"/>
      <point x="169" y="153" type="curve" smooth="yes"/>
      <point x="168" y="134"/>
      <point x="163" y="105"/>
      <point x="158" y="84" type="curve" smooth="yes"/>
      <point x="151" y="50"/>
      <point x="145" y="33"/>
      <point x="137" y="33" type="curve" smooth="yes"/>
      <point x="129" y="33"/>
      <point x="129" y="43"/>
      <point x="130" y="67" type="curve" smooth="yes"/>
      <point x="131" y="85"/>
      <point x="135" y="110"/>
      <point x="140" y="132" type="curve" smooth="yes"/>
      <point x="147" y="166"/>
      <point x="155" y="183"/>
    </contour>
  </outline>
</glyph>
<glyph name="f_f" format="2">
  <advance width="622"/>
  <unicode hex="FB00"/>
  <outline>
    <contour>
      <point x="52" y="523" type="line"/>
      <point x="44" y="478" type="line"/>
      <point x="346" y="478" type="line"/>
      <point x="355" y="523" type="line"/>
    </contour>
    <contour>
      <point x="373" y="702" type="curve" smooth="yes"/>
      <point x="392" y="702"/>
      <point x="402" y="696"/>
      <point x="403" y="694" type="curve"/>
      <point x="412" y="743" type="line"/>
      <point x="399" y="747"/>
      <point x="378" y="750"/>
      <point x="353" y="750" type="curve" smooth="yes"/>
      <point x="251" y="750"/>
      <point x="130" y="696"/>
      <point x="107" y="550" type="curve" smooth="yes"/>
      <point x="-12" y="-223" type="line"/>
      <point x="160" y="-223" type="line"/>
      <point x="326" y="626" type="line" smooth="yes"/>
      <point x="334" y="680"/>
      <point x="354" y="702"/>
    </contour>
    <contour>
      <point x="327" y="523" type="line"/>
      <point x="319" y="478" type="line"/>
      <point x="650" y="478" type="line"/>
      <point x="658" y="523" type="line"/>
    </contour>
    <contour>
      <point x="666" y="712" type="curve" smooth="yes"/>
      <point x="689" y="712"/>
      <point x="703" y="704"/>
      <point x="709" y="696" type="curve"/>
      <point x="719" y="747" type="line"/>
      <point x="697" y="756"/>
      <point x="668" y="760"/>
      <point x="637" y="760" type="curve" smooth="yes"/>
      <point x="522" y="760"/>
      <point x="409" y="705"/>
      <point x="382" y="553" type="curve" smooth="yes"/>
      <point x="261" y="-193" type="line"/>
      <point x="433" y="-193" type="line"/>
      <point x="598" y="619" type="line" smooth="yes"/>
      <point x="608" y="684"/>
      <point x="630" y="712"/>
    </contour>
  </outline>
</glyph>
<glyph name="fl" format="2">
  <advance width="556"/>
  <unicode hex="FB02"/>
  <outline>
    <contour>
      <point x="52" y="523" type="line"/>
      <point x="44" y="478" type="line"/>
      <point x="347" y="478" type="line"/>
      <point x="355" y="523" type="line"/>
    </contour>
    <contour>
      <point x="520" y="157" type="curve"/>
      <point x="622" y="750" type="line"/>
      <point x="394" y="750" type="line"/>
      <point x="414" y="723" type="line"/>
      <point x="330" y="219" type="line" smooth="yes"/>
      <point x="319" y="171"/>
      <point x="312" y="143"/>
      <point x="311" y="117" type="curve" smooth="yes"/>
      <point x="307" y="33"/>
      <point x="358" y="-10"/>
      <point x="428" y="-10" type="curve" smooth="yes"/>
      <point x="475" y="-10"/>
      <point x="515" y="8"/>
      <point x="533" y="21" type="curve"/>
      <point x="539" y="58" type="line"/>
      <point x="538" y="56"/>
      <point x="531" y="48"/>
      <point x="523" y="48" type="curve" smooth="yes"/>
      <point x="510" y="48"/>
      <point x="503" y="54"/>
      <point x="504" y="74" type="curve" smooth="yes"/>
      <point x="505" y="96"/>
      <point x="511" y="125"/>
    </contour>
    <contour>
      <point x="384" y="713" type="curve" smooth="yes"/>
      <point x="403" y="713"/>
      <point x="422" y="696"/>
      <point x="429" y="675" type="curve"/>
      <point x="501" y="737" type="line"/>
      <point x="470" y="750"/>
      <point x="431" y="760"/>
      <point x="368" y="760" type="curve" smooth="yes"/>
      <point x="249" y="760"/>
      <point x="132" y="709"/>
      <point x="106" y="553" type="curve" smooth="yes"/>
      <point x="-12" y="-223" type="line"/>
      <point x="160" y="-223" type="line"/>
      <point x="324" y="618" type="line" smooth="yes"/>
      <point x="336" y="688"/>
      <point x="356" y="713"/>
    </contour>
  </outline>
</glyph>
<glyph name="f_f_i" format="2">
  <advance width="820"/>
  <unicode hex="FB03"/>
  <outline>
    <contour>
      <point x="52" y="523" type="line"/>
      <point x="44" y="478" type="line"/>
      <point x="346" y="478" type="line"/>
      <point x="355" y="523" type="line"/>
    </contour>
    <contour>
      <point x="373" y="702" type="curve" smooth="yes"/>
      <point x="392" y="702"/>
      <point x="402" y="696"/>
      <point x="403" y="694" type="curve"/>
      <point x="412" y="743" type="line"/>
      <point x="399" y="747"/>
      <point x="378" y="750"/>
      <point x="353" y="750" type="curve" smooth="yes"/>
      <point x="251" y="750"/>
      <point x="130" y="696"/>
      <point x="107" y="550" type="curve" smooth="yes"/>
      <point x="-12" y="-223" type="line"/>
      <point x="160" y="-223" type="line"/>
      <point x="326" y="626" type="line" smooth="yes"/>
      <point x="334" y="680"/>
      <point x="354" y="702"/>
    </contour>
    <contour>
      <point x="760" y="581" type="curve" smooth="yes"/>
      <point x="824" y="581"/>
      <point x="862" y="615"/>
      <point x="864" y="671" type="curve" smooth="yes"/>
      <point x="867" y="727"/>
      <point x="832" y="761"/>
      <point x="768" y="761" type="curve" smooth="yes"/>
      <point x="704" y="761"/>
      <point x="666" y="727"/>
      <point x="663" y="671" type="curve" smooth="yes"/>
      <point x="661" y="614"/>
      <point x="696" y="581"/>
    </contour>
    <contour>
      <point x="327" y="523" type="line"/>
      <point x="319" y="478" type="line"/>
      <point x="623" y="478" type="line" smooth="yes"/>
      <point x="633" y="478"/>
      <point x="634" y="467"/>
      <point x="632" y="448" type="curve" smooth="yes"/>
      <point x="594" y="219" type="line" smooth="yes"/>
      <point x="582" y="171"/>
      <point x="576" y="143"/>
      <point x="575" y="117" type="curve" smooth="yes"/>
      <point x="571" y="33"/>
      <point x="622" y="-10"/>
      <point x="692" y="-10" type="curve" smooth="yes"/>
      <point x="739" y="-10"/>
      <point x="779" y="8"/>
      <point x="796" y="21" type="curve"/>
      <point x="803" y="58" type="line"/>
      <point x="802" y="56"/>
      <point x="795" y="48"/>
      <point x="787" y="48" type="curve" smooth="yes"/>
      <point x="774" y="48"/>
      <point x="766" y="54"/>
      <point x="767" y="74" type="curve" smooth="yes"/>
      <point x="768" y="96"/>
      <point x="775" y="124"/>
      <point x="783" y="155" type="curve" smooth="yes"/>
      <point x="846" y="523" type="line"/>
    </contour>
    <contour>
      <point x="637" y="712" type="curve" smooth="yes"/>
      <point x="644" y="712"/>
      <point x="650" y="709"/>
      <point x="651" y="707" type="curve"/>
      <point x="659" y="756" type="line"/>
      <point x="649" y="758"/>
      <point x="639" y="760"/>
      <point x="619" y="760" type="curve" smooth="yes"/>
      <point x="523" y="760"/>
      <point x="408" y="708"/>
      <point x="384" y="569" type="curve" smooth="yes"/>
      <point x="261" y="-193" type="line"/>
      <point x="433" y="-193" type="line"/>
      <point x="603" y="641" type="line" smooth="yes"/>
      <point x="610" y="692"/>
      <point x="618" y="712"/>
    </contour>
  </outline>
</glyph>
<glyph name="f_f_l" format="2">
  <advance width="832"/>
  <unicode hex="FB04"/>
  <outline>
    <contour>
      <point x="52" y="523" type="line"/>
      <point x="44" y="478" type="line"/>
      <point x="346" y="478" type="line"/>
      <point x="355" y="523" type="line"/>
    </contour>
    <contour>
      <point x="327" y="523" type="line"/>
      <point x="319" y="478" type="line"/>
      <point x="621" y="478" type="line"/>
      <point x="630" y="523" type="line"/>
    </contour>
    <contour>
      <point x="373" y="702" type="curve" smooth="yes"/>
      <point x="392" y="702"/>
      <point x="402" y="696"/>
      <point x="403" y="694" type="curve"/>
      <point x="412" y="743" type="line"/>
      <point x="399" y="747"/>
      <point x="378" y="750"/>
      <point x="353" y="750" type="curve" smooth="yes"/>
      <point x="251" y="750"/>
      <point x="130" y="696"/>
      <point x="107" y="550" type="curve" smooth="yes"/>
      <point x="-12" y="-223" type="line"/>
      <point x="160" y="-223" type="line"/>
      <point x="326" y="626" type="line" smooth="yes"/>
      <point x="334" y="680"/>
      <point x="354" y="702"/>
    </contour>
    <contour>
      <point x="795" y="157" type="curve"/>
      <point x="897" y="750" type="line"/>
      <point x="670" y="750" type="line"/>
      <point x="689" y="723" type="line"/>
      <point x="606" y="219" type="line" smooth="yes"/>
      <point x="594" y="171"/>
      <point x="587" y="143"/>
      <point x="586" y="117" type="curve" smooth="yes"/>
      <point x="582" y="33"/>
      <point x="633" y="-10"/>
      <point x="703" y="-10" type="curve" smooth="yes"/>
      <point x="750" y="-10"/>
      <point x="790" y="8"/>
      <point x="807" y="21" type="curve"/>
      <point x="815" y="58" type="line"/>
      <point x="813" y="56"/>
      <point x="806" y="48"/>
      <point x="798" y="48" type="curve" smooth="yes"/>
      <point x="785" y="48"/>
      <point x="778" y="54"/>
      <point x="779" y="74" type="curve" smooth="yes"/>
      <point x="780" y="96"/>
      <point x="787" y="125"/>
    </contour>
    <contour>
      <point x="656" y="713" type="curve" smooth="yes"/>
      <point x="683" y="713"/>
      <point x="698" y="692"/>
      <point x="703" y="675" type="curve"/>
      <point x="775" y="737" type="line"/>
      <point x="744" y="750"/>
      <point x="692" y="760"/>
      <point x="644" y="760" type="curve" smooth="yes"/>
      <point x="524" y="760"/>
      <point x="409" y="709"/>
      <point x="382" y="553" type="curve" smooth="yes"/>
      <point x="262" y="-193" type="line"/>
      <point x="435" y="-193" type="line"/>
      <point x="598" y="617" type="line" smooth="yes"/>
      <point x="611" y="690"/>
      <point x="631" y="713"/>
    </contour>
  </outline>
</glyph>
<glyph name="AE.alt" format="2">
  <advance width="772"/>
  <outline>
    <contour>
      <point x="163" y="287" type="line"/>
      <point x="131" y="240" type="line"/>
      <point x="356" y="240" type="line"/>
      <point x="366" y="287" type="line"/>
    </contour>
    <contour>
      <point x="-36" y="0" type="line"/>
      <point x="76" y="0" type="line"/>
      <point x="85" y="40" type="line"/>
      <point x="76" y="40" type="line" smooth="yes"/>
      <point x="62" y="40"/>
      <point x="51" y="44"/>
      <point x="53" y="54" type="curve"/>
      <point x="397" y="639" type="line"/>
      <point x="397" y="639" type="line"/>
      <point x="300" y="75" type="line" smooth="yes"/>
      <point x="294" y="47"/>
      <point x="283" y="40"/>
      <point x="266" y="40" type="curve" smooth="yes"/>
      <point x="257" y="40" type="line"/>
      <point x="249" y="0" type="line"/>
      <point x="713" y="0" type="line"/>
      <point x="751" y="213" type="line"/>
      <point x="714" y="213" type="line"/>
      <point x="672" y="95" type="line" smooth="yes"/>
      <point x="662" y="58"/>
      <point x="641" y="48"/>
      <point x="585" y="48" type="curve" smooth="yes"/>
      <point x="511" y="48" type="line"/>
      <point x="617" y="662" type="line"/>
      <point x="691" y="662" type="line" smooth="yes"/>
      <point x="725" y="662"/>
      <point x="746" y="652"/>
      <point x="746" y="616" type="curve"/>
      <point x="745" y="522" type="line"/>
      <point x="781" y="522" type="line"/>
      <point x="816" y="710" type="line"/>
      <point x="323" y="710" type="line"/>
      <point x="315" y="671" type="line"/>
      <point x="328" y="671" type="line" smooth="yes"/>
      <point x="355" y="671"/>
      <point x="361" y="667"/>
      <point x="360" y="651" type="curve"/>
      <point x="14" y="79" type="line" smooth="yes"/>
      <point x="1" y="51"/>
      <point x="-6" y="40"/>
      <point x="-24" y="40" type="curve" smooth="yes"/>
      <point x="-28" y="40" type="line"/>
    </contour>
    <contour>
      <point x="528" y="386" type="line"/>
      <point x="518" y="340" type="line"/>
      <point x="618" y="340" type="line" smooth="yes"/>
      <point x="640" y="340"/>
      <point x="642" y="318"/>
      <point x="639" y="291" type="curve" smooth="yes"/>
      <point x="636" y="281" type="line"/>
      <point x="677" y="281" type="line"/>
      <point x="705" y="446" type="line"/>
      <point x="664" y="446" type="line"/>
      <point x="662" y="437" type="line" smooth="yes"/>
      <point x="657" y="409"/>
      <point x="648" y="386"/>
      <point x="625" y="386" type="curve" smooth="yes"/>
    </contour>
  </outline>
</glyph>
<glyph name="E.alt" format="2">
  <advance width="492"/>
  <outline>
    <contour>
      <point x="471" y="213" type="line"/>
      <point x="433" y="213" type="line"/>
      <point x="392" y="95" type="line" smooth="yes"/>
      <point x="381" y="58"/>
      <point x="361" y="48"/>
      <point x="305" y="48" type="curve" smooth="yes"/>
      <point x="232" y="48" type="line"/>
      <point x="337" y="662" type="line"/>
      <point x="411" y="662" type="line" smooth="yes"/>
      <point x="444" y="662"/>
      <point x="466" y="652"/>
      <point x="465" y="616" type="curve" smooth="yes"/>
      <point x="465" y="522" type="line"/>
      <point x="501" y="522" type="line"/>
      <point x="535" y="710" type="line"/>
      <point x="97" y="710" type="line"/>
      <point x="88" y="670" type="line"/>
      <point x="96" y="670" type="line" smooth="yes"/>
      <point x="112" y="670"/>
      <point x="123" y="663"/>
      <point x="119" y="634" type="curve" smooth="yes"/>
      <point x="20" y="75" type="line" smooth="yes"/>
      <point x="15" y="47"/>
      <point x="4" y="40"/>
      <point x="-14" y="40" type="curve" smooth="yes"/>
      <point x="-21" y="40" type="line"/>
      <point x="-30" y="0" type="line"/>
      <point x="433" y="0" type="line"/>
    </contour>
    <contour>
      <point x="248" y="386" type="line"/>
      <point x="239" y="340" type="line"/>
      <point x="337" y="340" type="line" smooth="yes"/>
      <point x="360" y="340"/>
      <point x="363" y="318"/>
      <point x="358" y="291" type="curve" smooth="yes"/>
      <point x="356" y="281" type="line"/>
      <point x="397" y="281" type="line"/>
      <point x="424" y="446" type="line"/>
      <point x="383" y="446" type="line"/>
      <point x="382" y="437" type="line" smooth="yes"/>
      <point x="378" y="409"/>
      <point x="368" y="386"/>
      <point x="345" y="386" type="curve" smooth="yes"/>
    </contour>
  </outline>
</glyph>
<glyph name="Euro.proportional" format="2">
  <advance width="555"/>
  <outline>
    <contour>
      <point x="310" y="-10" type="curve" smooth="yes"/>
      <point x="428" y="-10"/>
      <point x="493" y="81"/>
      <point x="531" y="209" type="curve"/>
      <point x="494" y="230" type="line"/>
      <point x="463" y="129"/>
      <point x="409" y="50"/>
      <point x="357" y="50" type="curve" smooth="yes"/>
      <point x="302" y="50"/>
      <point x="280" y="105"/>
      <point x="286" y="262" type="curve" smooth="yes"/>
      <point x="289" y="313"/>
      <point x="296" y="366"/>
      <point x="304" y="416" type="curve" smooth="yes"/>
      <point x="327" y="557"/>
      <point x="366" y="668"/>
      <point x="426" y="668" type="curve" smooth="yes"/>
      <point x="451" y="668"/>
      <point x="461" y="649"/>
      <point x="472" y="619" type="curve"/>
      <point x="480" y="642"/>
      <point x="473" y="664"/>
      <point x="458" y="671" type="curve"/>
      <point x="432" y="527" type="line"/>
      <point x="561" y="527" type="line"/>
      <point x="584" y="658" type="line"/>
      <point x="566" y="679"/>
      <point x="509" y="720"/>
      <point x="410" y="720" type="curve" smooth="yes"/>
      <point x="210" y="720"/>
      <point x="96" y="544"/>
      <point x="85" y="305" type="curve" smooth="yes"/>
      <point x="76" y="103"/>
      <point x="177" y="-10"/>
    </contour>
    <contour>
      <point x="41" y="300" type="line"/>
      <point x="32" y="251" type="line"/>
      <point x="360" y="251" type="line"/>
      <point x="368" y="300" type="line"/>
    </contour>
    <contour>
      <point x="64" y="436" type="line"/>
      <point x="54" y="387" type="line"/>
      <point x="404" y="387" type="line"/>
      <point x="413" y="436" type="line"/>
    </contour>
  </outline>
</glyph>
<glyph name="acute.ucpl" format="2">
  <advance width="378"/>
  <anchor x="160" y="694" name="_top"/>
  <outline>
    <contour>
      <point x="159" y="871" type="curve" smooth="yes"/>
      <point x="138" y="771" type="line"/>
      <point x="136" y="755" type="line"/>
      <point x="182" y="755" type="line"/>
      <point x="229" y="807" type="line" smooth="yes"/>
      <point x="278" y="855"/>
      <point x="298" y="889"/>
      <point x="299" y="921" type="curve" smooth="yes"/>
      <point x="301" y="954"/>
      <point x="283" y="983"/>
      <point x="245" y="983" type="curve" smooth="yes"/>
      <point x="194" y="983"/>
      <point x="172" y="938"/>
    </contour>
  </outline>
</glyph>
<glyph name="at.uc" format="2">
  <advance width="709"/>
  <outline>
    <contour>
      <point x="281" y="118" type="curve" smooth="yes"/>
      <point x="318" y="118"/>
      <point x="356" y="148"/>
      <point x="391" y="231" type="curve"/>
      <point x="385" y="272" type="line"/>
      <point x="366" y="205"/>
      <point x="352" y="185"/>
      <point x="340" y="185" type="curve" smooth="yes"/>
      <point x="324" y="185"/>
      <point x="317" y="210"/>
      <point x="320" y="268" type="curve" smooth="yes"/>
      <point x="324" y="367"/>
      <point x="359" y="502"/>
      <point x="405" y="502" type="curve" smooth="yes"/>
      <point x="415" y="502"/>
      <point x="431" y="488"/>
      <point x="440" y="438" type="curve"/>
      <point x="459" y="462" type="line"/>
      <point x="442" y="525"/>
      <point x="407" y="548"/>
      <point x="357" y="548" type="curve" smooth="yes"/>
      <point x="251" y="548"/>
      <point x="171" y="416"/>
      <point x="166" y="291" type="curve" smooth="yes"/>
      <point x="161" y="184"/>
      <point x="215" y="118"/>
    </contour>
    <contour>
      <point x="352" y="-62" type="curve" smooth="yes"/>
      <point x="428" y="-62"/>
      <point x="498" y="-42"/>
      <point x="546" y="-13" type="curve"/>
      <point x="542" y="33" type="line"/>
      <point x="494" y="5"/>
      <point x="431" y="-16"/>
      <point x="354" y="-16" type="curve" smooth="yes"/>
      <point x="217" y="-16"/>
      <point x="100" y="90"/>
      <point x="109" y="303" type="curve" smooth="yes"/>
      <point x="119" y="533"/>
      <point x="242" y="687"/>
      <point x="419" y="687" type="curve" smooth="yes"/>
      <point x="565" y="687"/>
      <point x="659" y="587"/>
      <point x="651" y="416" type="curve" smooth="yes"/>
      <point x="644" y="246"/>
      <point x="583" y="164"/>
      <point x="533" y="164" type="curve" smooth="yes"/>
      <point x="523" y="164"/>
      <point x="517" y="174"/>
      <point x="517" y="193" type="curve" smooth="yes"/>
      <point x="518" y="201"/>
      <point x="519" y="211"/>
      <point x="523" y="224" type="curve" smooth="yes"/>
      <point x="604" y="542" type="line"/>
      <point x="494" y="542" type="line"/>
      <point x="439" y="477" type="line"/>
      <point x="433" y="472" type="line"/>
      <point x="365" y="208" type="line"/>
      <point x="378" y="207" type="line"/>
      <point x="396" y="142"/>
      <point x="441" y="119"/>
      <point x="500" y="119" type="curve" smooth="yes"/>
      <point x="611" y="119"/>
      <point x="713" y="229"/>
      <point x="721" y="414" type="curve" smooth="yes"/>
      <point x="730" y="607"/>
      <point x="608" y="733"/>
      <point x="422" y="733" type="curve" smooth="yes"/>
      <point x="201" y="733"/>
      <point x="34" y="553"/>
      <point x="23" y="298" type="curve" smooth="yes"/>
      <point x="12" y="53"/>
      <point x="172" y="-62"/>
    </contour>
  </outline>
</glyph>
<glyph name="blackcircle" format="2">
  <advance width="446"/>
  <outline>
    <contour>
      <point x="226" y="80" type="curve" smooth="yes"/>
      <point x="321" y="80"/>
      <point x="402" y="177"/>
      <point x="407" y="304" type="curve" smooth="yes"/>
      <point x="413" y="431"/>
      <point x="341" y="528"/>
      <point x="246" y="528" type="curve" smooth="yes"/>
      <point x="152" y="528"/>
      <point x="72" y="431"/>
      <point x="66" y="304" type="curve" smooth="yes"/>
      <point x="61" y="177"/>
      <point x="132" y="80"/>
    </contour>
  </outline>
</glyph>
<glyph name="blacksquare" format="2">
  <advance width="444"/>
  <outline>
    <contour>
      <point x="69" y="104" type="line"/>
      <point x="385" y="104" type="line"/>
      <point x="403" y="522" type="line"/>
      <point x="87" y="522" type="line"/>
    </contour>
  </outline>
</glyph>
<glyph name="breve.uc" format="2">
  <advance width="378"/>
  <anchor x="221" y="694" name="_top"/>
  <outline>
    <contour>
      <point x="205" y="752" type="curve" smooth="yes"/>
      <point x="142" y="752"/>
      <point x="94" y="793"/>
      <point x="97" y="878" type="curve" smooth="yes"/>
      <point x="98" y="890"/>
      <point x="99" y="901"/>
      <point x="103" y="915" type="curve"/>
      <point x="145" y="915" type="line"/>
      <point x="141" y="874"/>
      <point x="162" y="861"/>
      <point x="219" y="861" type="curve" smooth="yes"/>
      <point x="274" y="861"/>
      <point x="293" y="876"/>
      <point x="301" y="915" type="curve"/>
      <point x="344" y="915" type="line"/>
      <point x="331" y="801"/>
      <point x="281" y="752"/>
    </contour>
  </outline>
</glyph>
<glyph name="breve_acute.uc" format="2">
  <advance width="386"/>
  <anchor x="221" y="744" name="_top"/>
  <outline>
    <contour>
      <point x="226" y="1021" type="curve" smooth="yes"/>
      <point x="195" y="950" type="line"/>
      <point x="194" y="930" type="line"/>
      <point x="231" y="930" type="line"/>
      <point x="295" y="957" type="line" smooth="yes"/>
      <point x="346" y="973"/>
      <point x="367" y="1003"/>
      <point x="368" y="1041" type="curve" smooth="yes"/>
      <point x="370" y="1077"/>
      <point x="344" y="1104"/>
      <point x="313" y="1104" type="curve" smooth="yes"/>
      <point x="273" y="1104"/>
      <point x="258" y="1074"/>
    </contour>
    <component base="breve.uc" xOffset="13"/>
  </outline>
</glyph>
<glyph name="breve_grave.uc" format="2">
  <advance width="386"/>
  <anchor x="232" y="744" name="_top"/>
  <outline>
    <contour>
      <point x="277" y="1023" type="curve" smooth="yes"/>
      <point x="298" y="950" type="line"/>
      <point x="298" y="930" type="line"/>
      <point x="261" y="930" type="line"/>
      <point x="203" y="955" type="line" smooth="yes"/>
      <point x="151" y="972"/>
      <point x="134" y="1003"/>
      <point x="135" y="1041" type="curve" smooth="yes"/>
      <point x="137" y="1077"/>
      <point x="166" y="1104"/>
      <point x="196" y="1104" type="curve" smooth="yes"/>
      <point x="236" y="1104"/>
      <point x="254" y="1076"/>
    </contour>
    <component base="breve.uc" xOffset="12"/>
  </outline>
</glyph>
<glyph name="breve_hook.uc" format="2">
  <advance width="378"/>
  <anchor x="216" y="724" name="_top"/>
  <outline>
    <contour>
      <point x="138" y="1002" type="line"/>
      <point x="147" y="1045"/>
      <point x="179" y="1088"/>
      <point x="253" y="1088" type="curve" smooth="yes"/>
      <point x="320" y="1088"/>
      <point x="349" y="1060"/>
      <point x="348" y="1020" type="curve" smooth="yes"/>
      <point x="345" y="967"/>
      <point x="297" y="940"/>
      <point x="238" y="932" type="curve"/>
      <point x="256" y="947" type="line"/>
      <point x="249" y="905" type="line"/>
      <point x="205" y="905" type="line"/>
      <point x="215" y="959" type="line"/>
      <point x="246" y="968"/>
      <point x="256" y="989"/>
      <point x="257" y="1012" type="curve" smooth="yes"/>
      <point x="258" y="1029"/>
      <point x="253" y="1041"/>
      <point x="239" y="1041" type="curve" smooth="yes"/>
      <point x="223" y="1041"/>
      <point x="213" y="1027"/>
      <point x="208" y="1002" type="curve"/>
    </contour>
    <contour>
      <point x="211" y="752" type="curve" smooth="yes"/>
      <point x="147" y="752"/>
      <point x="100" y="791"/>
      <point x="103" y="875" type="curve" smooth="yes"/>
      <point x="104" y="887"/>
      <point x="105" y="897"/>
      <point x="109" y="912" type="curve"/>
      <point x="151" y="912" type="line"/>
      <point x="147" y="873"/>
      <point x="168" y="860"/>
      <point x="225" y="860" type="curve" smooth="yes"/>
      <point x="280" y="860"/>
      <point x="300" y="875"/>
      <point x="307" y="912" type="curve"/>
      <point x="350" y="912" type="line"/>
      <point x="338" y="800"/>
      <point x="286" y="752"/>
    </contour>
  </outline>
</glyph>
<glyph name="breve_tilde.uc" format="2">
  <advance width="378"/>
  <anchor x="244" y="694" name="_top"/>
  <outline>
    <contour>
      <point x="196" y="984" type="curve" smooth="yes"/>
      <point x="223" y="984"/>
      <point x="256" y="936"/>
      <point x="295" y="936" type="curve" smooth="yes"/>
      <point x="338" y="936"/>
      <point x="363" y="981"/>
      <point x="383" y="1063" type="curve"/>
      <point x="354" y="1078" type="line"/>
      <point x="342" y="1043"/>
      <point x="334" y="1033"/>
      <point x="316" y="1033" type="curve" smooth="yes"/>
      <point x="287" y="1033"/>
      <point x="259" y="1081"/>
      <point x="221" y="1081" type="curve" smooth="yes"/>
      <point x="174" y="1081"/>
      <point x="147" y="1033"/>
      <point x="129" y="955" type="curve"/>
      <point x="159" y="941" type="line"/>
      <point x="168" y="973"/>
      <point x="179" y="984"/>
    </contour>
    <contour>
      <point x="222" y="752" type="curve" smooth="yes"/>
      <point x="157" y="752"/>
      <point x="110" y="790"/>
      <point x="114" y="871" type="curve" smooth="yes"/>
      <point x="115" y="882"/>
      <point x="116" y="891"/>
      <point x="119" y="904" type="curve"/>
      <point x="161" y="904" type="line"/>
      <point x="158" y="865"/>
      <point x="178" y="853"/>
      <point x="234" y="853" type="curve" smooth="yes"/>
      <point x="290" y="853"/>
      <point x="310" y="867"/>
      <point x="317" y="904" type="curve"/>
      <point x="359" y="904" type="line"/>
      <point x="349" y="798"/>
      <point x="297" y="752"/>
    </contour>
  </outline>
</glyph>
<glyph name="brokenbar.uc" format="2">
  <advance width="156"/>
  <outline>
    <contour>
      <point x="91" y="742" type="line"/>
      <point x="77" y="415" type="line"/>
      <point x="123" y="415" type="line"/>
      <point x="137" y="742" type="line"/>
    </contour>
    <contour>
      <point x="72" y="291" type="line"/>
      <point x="57" y="-35" type="line"/>
      <point x="103" y="-35" type="line"/>
      <point x="118" y="291" type="line"/>
    </contour>
  </outline>
</glyph>
<glyph name="caron.alt" format="2">
  <advance width="378"/>
  <anchor x="67" y="574" name="_right"/>
  <outline>
    <contour>
      <point x="138" y="520" type="line"/>
      <point x="84" y="520" type="line"/>
      <point x="85" y="530" type="line"/>
      <point x="129" y="710" type="line"/>
      <point x="255" y="710" type="line"/>
    </contour>
  </outline>
</glyph>
<glyph name="cedi.proportional" format="2">
  <advance width="568"/>
  <outline>
    <contour>
      <point x="301" y="-6" type="curve" smooth="yes"/>
      <point x="428" y="-6"/>
      <point x="507" y="88"/>
      <point x="551" y="226" type="curve"/>
      <point x="515" y="249" type="line"/>
      <point x="477" y="124"/>
      <point x="414" y="47"/>
      <point x="336" y="47" type="curve" smooth="yes"/>
      <point x="264" y="47"/>
      <point x="227" y="122"/>
      <point x="234" y="280" type="curve" smooth="yes"/>
      <point x="242" y="460"/>
      <point x="287" y="668"/>
      <point x="402" y="668" type="curve" smooth="yes"/>
      <point x="458" y="668"/>
      <point x="481" y="624"/>
      <point x="496" y="573" type="curve"/>
      <point x="531" y="579"/>
      <point x="501" y="638"/>
      <point x="468" y="648" type="curve"/>
      <point x="442" y="506" type="line"/>
      <point x="574" y="506" type="line"/>
      <point x="596" y="624" type="line"/>
      <point x="580" y="644"/>
      <point x="517" y="716"/>
      <point x="378" y="716" type="curve" smooth="yes"/>
      <point x="175" y="716"/>
      <point x="52" y="545"/>
      <point x="42" y="328" type="curve" smooth="yes"/>
      <point x="34" y="131"/>
      <point x="138" y="-6"/>
    </contour>
    <contour>
      <point x="392" y="790" type="line"/>
      <point x="376" y="695" type="line"/>
      <point x="375" y="682" type="line"/>
      <point x="258" y="27" type="line"/>
      <point x="253" y="6" type="line"/>
      <point x="233" y="-120" type="line"/>
      <point x="285" y="-120" type="line"/>
      <point x="305" y="5" type="line"/>
      <point x="309" y="28" type="line"/>
      <point x="425" y="682" type="line"/>
      <point x="429" y="697" type="line"/>
      <point x="444" y="790" type="line"/>
    </contour>
  </outline>
</glyph>
<glyph name="cent.alt" format="2">
  <advance width="423"/>
  <outline>
    <contour>
      <point x="290" y="533" type="curve" smooth="yes"/>
      <point x="127" y="533"/>
      <point x="25" y="404"/>
      <point x="17" y="227" type="curve" smooth="yes"/>
      <point x="10" y="78"/>
      <point x="95" y="-10"/>
      <point x="215" y="-10" type="curve" smooth="yes"/>
      <point x="320" y="-10"/>
      <point x="373" y="50"/>
      <point x="404" y="141" type="curve"/>
      <point x="375" y="165" type="line"/>
      <point x="352" y="105"/>
      <point x="315" y="46"/>
      <point x="269" y="46" type="curve" smooth="yes"/>
      <point x="233" y="46"/>
      <point x="217" y="95"/>
      <point x="222" y="195" type="curve" smooth="yes"/>
      <point x="229" y="361"/>
      <point x="276" y="486"/>
      <point x="316" y="486" type="curve" smooth="yes"/>
      <point x="329" y="486"/>
      <point x="337" y="480"/>
      <point x="341" y="456" type="curve"/>
      <point x="354" y="477"/>
      <point x="332" y="486"/>
      <point x="326" y="488" type="curve"/>
      <point x="299" y="350" type="line"/>
      <point x="426" y="350" type="line"/>
      <point x="450" y="475" type="line"/>
      <point x="429" y="496"/>
      <point x="389" y="533"/>
    </contour>
    <contour>
      <point x="181" y="3" type="line"/>
      <point x="158" y="-126" type="line"/>
      <point x="206" y="-126" type="line"/>
      <point x="230" y="2" type="line"/>
    </contour>
    <contour>
      <point x="293" y="631" type="line"/>
      <point x="271" y="510" type="line"/>
      <point x="319" y="512" type="line"/>
      <point x="342" y="631" type="line"/>
    </contour>
  </outline>
</glyph>
<glyph name="circumflex.uc" format="2">
  <advance width="378"/>
  <anchor x="213" y="694" name="_top"/>
  <outline>
    <contour>
      <point x="301" y="912" type="line"/>
      <point x="366" y="764" type="line"/>
      <point x="363" y="751" type="line"/>
      <point x="311" y="751" type="line"/>
      <point x="178" y="842" type="line"/>
      <point x="299" y="842" type="line"/>
      <point x="133" y="751" type="line"/>
      <point x="80" y="751" type="line"/>
      <point x="82" y="764" type="line"/>
      <point x="201" y="912" type="line"/>
    </contour>
  </outline>
</glyph>
<glyph name="circumflex_grave" format="2">
  <advance width="385"/>
  <anchor x="195" y="564" name="_top"/>
  <outline>
    <contour>
      <point x="451" y="807" type="curve" smooth="yes"/>
      <point x="466" y="698" type="line"/>
      <point x="466" y="681" type="line"/>
      <point x="422" y="681" type="line"/>
      <point x="380" y="730" type="line" smooth="yes"/>
      <point x="326" y="768"/>
      <point x="305" y="799"/>
      <point x="307" y="838" type="curve" smooth="yes"/>
      <point x="308" y="875"/>
      <point x="333" y="903"/>
      <point x="373" y="903" type="curve" smooth="yes"/>
      <point x="423" y="903"/>
      <point x="442" y="861"/>
    </contour>
    <component base="circumflex" xOffset="-8"/>
  </outline>
</glyph>
<glyph name="circumflex_grave.uc" format="2">
  <advance width="385"/>
  <anchor x="201" y="696" name="_top"/>
  <outline>
    <contour>
      <point x="456" y="960" type="line" smooth="yes"/>
      <point x="441" y="1022"/>
      <point x="416" y="1046"/>
      <point x="380" y="1046" type="curve" smooth="yes"/>
      <point x="343" y="1046"/>
      <point x="318" y="1018"/>
      <point x="317" y="980" type="curve" smooth="yes"/>
      <point x="315" y="943"/>
      <point x="338" y="917"/>
      <point x="383" y="895" type="curve" smooth="yes"/>
      <point x="434" y="865" type="line"/>
      <point x="469" y="865" type="line"/>
      <point x="470" y="883" type="line"/>
    </contour>
    <component base="circumflex.uc" xOffset="-4"/>
  </outline>
</glyph>
<glyph name="colonmonetary.proportional" format="2">
  <advance width="578"/>
  <outline>
    <contour>
      <point x="309" y="-6" type="curve" smooth="yes"/>
      <point x="435" y="-6"/>
      <point x="515" y="87"/>
      <point x="558" y="225" type="curve"/>
      <point x="522" y="248" type="line"/>
      <point x="481" y="121"/>
      <point x="419" y="46"/>
      <point x="333" y="46" type="curve" smooth="yes"/>
      <point x="250" y="46"/>
      <point x="205" y="118"/>
      <point x="212" y="267" type="curve" smooth="yes"/>
      <point x="221" y="490"/>
      <point x="280" y="668"/>
      <point x="410" y="668" type="curve" smooth="yes"/>
      <point x="465" y="668"/>
      <point x="526" y="630"/>
      <point x="532" y="578" type="curve"/>
      <point x="554" y="609"/>
      <point x="531" y="644"/>
      <point x="507" y="650" type="curve"/>
      <point x="481" y="504" type="line"/>
      <point x="593" y="504" type="line"/>
      <point x="619" y="637" type="line"/>
      <point x="597" y="660"/>
      <point x="515" y="716"/>
      <point x="382" y="716" type="curve" smooth="yes"/>
      <point x="184" y="716"/>
      <point x="54" y="539"/>
      <point x="44" y="324" type="curve" smooth="yes"/>
      <point x="35" y="119"/>
      <point x="158" y="-6"/>
    </contour>
    <contour>
      <point x="363" y="790" type="line"/>
      <point x="342" y="694" type="line"/>
      <point x="342" y="681" type="line"/>
      <point x="200" y="71" type="line"/>
      <point x="194" y="50" type="line"/>
      <point x="159" y="-120" type="line"/>
      <point x="201" y="-120" type="line"/>
      <point x="230" y="23" type="line"/>
      <point x="235" y="44" type="line"/>
      <point x="382" y="685" type="line"/>
      <point x="385" y="696" type="line"/>
      <point x="406" y="790" type="line"/>
    </contour>
    <contour>
      <point x="462" y="790" type="line"/>
      <point x="441" y="693" type="line"/>
      <point x="439" y="679" type="line"/>
      <point x="292" y="26" type="line"/>
      <point x="286" y="11" type="line"/>
      <point x="258" y="-120" type="line"/>
      <point x="301" y="-120" type="line"/>
      <point x="330" y="16" type="line"/>
      <point x="332" y="27" type="line"/>
      <point x="477" y="673" type="line"/>
      <point x="483" y="686" type="line"/>
      <point x="505" y="790" type="line"/>
    </contour>
  </outline>
</glyph>
<glyph name="commaaccent" format="2">
  <advance width="378"/>
  <anchor x="199" y="33" name="_bottom"/>
  <outline>
    <contour>
      <point x="79" y="-337" type="line"/>
      <point x="167" y="-289"/>
      <point x="212" y="-208"/>
      <point x="215" y="-144" type="curve" smooth="yes"/>
      <point x="217" y="-81"/>
      <point x="186" y="-50"/>
      <point x="136" y="-50" type="curve" smooth="yes"/>
      <point x="90" y="-50"/>
      <point x="57" y="-84"/>
      <point x="55" y="-129" type="curve" smooth="yes"/>
      <point x="53" y="-175"/>
      <point x="83" y="-204"/>
      <point x="126" y="-204" type="curve" smooth="yes"/>
      <point x="148" y="-204"/>
      <point x="169" y="-194"/>
      <point x="176" y="-180" type="curve"/>
      <point x="175" y="-180"/>
      <point x="173" y="-176"/>
      <point x="170" y="-182" type="curve"/>
      <point x="143" y="-230"/>
      <point x="104" y="-260"/>
      <point x="38" y="-288" type="curve"/>
    </contour>
  </outline>
</glyph>
<glyph name="dieresis.uc" format="2">
  <advance width="378"/>
  <anchor x="221" y="694" name="_top"/>
  <outline>
    <contour>
      <point x="123" y="769" type="curve" smooth="yes"/>
      <point x="178" y="769"/>
      <point x="210" y="800"/>
      <point x="212" y="852" type="curve" smooth="yes"/>
      <point x="215" y="905"/>
      <point x="185" y="936"/>
      <point x="130" y="936" type="curve" smooth="yes"/>
      <point x="76" y="936"/>
      <point x="43" y="905"/>
      <point x="40" y="852" type="curve" smooth="yes"/>
      <point x="38" y="799"/>
      <point x="69" y="769"/>
    </contour>
    <contour>
      <point x="310" y="769" type="curve" smooth="yes"/>
      <point x="366" y="769"/>
      <point x="397" y="800"/>
      <point x="399" y="852" type="curve" smooth="yes"/>
      <point x="402" y="905"/>
      <point x="373" y="936"/>
      <point x="317" y="936" type="curve" smooth="yes"/>
      <point x="263" y="936"/>
      <point x="230" y="905"/>
      <point x="227" y="852" type="curve" smooth="yes"/>
      <point x="225" y="799"/>
      <point x="256" y="769"/>
    </contour>
  </outline>
</glyph>
<glyph name="dollar.altprop" format="2">
  <advance width="461"/>
  <outline>
    <contour>
      <point x="208" y="12" type="curve" smooth="yes"/>
      <point x="353" y="12"/>
      <point x="435" y="104"/>
      <point x="441" y="250" type="curve" smooth="yes"/>
      <point x="446" y="361"/>
      <point x="387" y="403"/>
      <point x="296" y="450" type="curve" smooth="yes"/>
      <point x="239" y="486"/>
      <point x="203" y="503"/>
      <point x="205" y="560" type="curve" smooth="yes"/>
      <point x="208" y="613"/>
      <point x="236" y="651"/>
      <point x="297" y="651" type="curve" smooth="yes"/>
      <point x="359" y="651"/>
      <point x="390" y="633"/>
      <point x="413" y="587" type="curve"/>
      <point x="416" y="614"/>
      <point x="407" y="636"/>
      <point x="384" y="654" type="curve"/>
      <point x="358" y="517" type="line"/>
      <point x="459" y="517" type="line"/>
      <point x="478" y="627" type="line"/>
      <point x="461" y="655"/>
      <point x="407" y="698"/>
      <point x="297" y="698" type="curve" smooth="yes"/>
      <point x="152" y="698"/>
      <point x="76" y="618"/>
      <point x="70" y="487" type="curve" smooth="yes"/>
      <point x="65" y="375"/>
      <point x="117" y="329"/>
      <point x="197" y="284" type="curve" smooth="yes"/>
      <point x="270" y="242"/>
      <point x="296" y="218"/>
      <point x="293" y="162" type="curve" smooth="yes"/>
      <point x="290" y="100"/>
      <point x="249" y="59"/>
      <point x="200" y="59" type="curve" smooth="yes"/>
      <point x="107" y="59"/>
      <point x="90" y="99"/>
      <point x="71" y="141" type="curve"/>
      <point x="74" y="113"/>
      <point x="89" y="84"/>
      <point x="104" y="59" type="curve"/>
      <point x="141" y="220" type="line"/>
      <point x="29" y="220" type="line"/>
      <point x="4" y="105" type="line"/>
      <point x="33" y="66"/>
      <point x="95" y="12"/>
    </contour>
    <contour>
      <point x="142" y="-120" type="line"/>
      <point x="194" y="-120" type="line"/>
      <point x="218" y="20" type="line"/>
      <point x="166" y="21" type="line"/>
    </contour>
    <contour>
      <point x="284" y="686" type="line"/>
      <point x="337" y="687" type="line"/>
      <point x="354" y="790" type="line"/>
      <point x="302" y="790" type="line"/>
    </contour>
  </outline>
</glyph>
<glyph name="dong.proportional" format="2">
  <advance width="565"/>
  <outline>
    <contour>
      <point x="160" y="-10" type="curve" smooth="yes"/>
      <point x="240" y="-10"/>
      <point x="283" y="67"/>
      <point x="333" y="198" type="curve"/>
      <point x="304" y="218" type="line"/>
      <point x="282" y="127"/>
      <point x="258" y="76"/>
      <point x="244" y="76" type="curve" smooth="yes"/>
      <point x="237" y="76"/>
      <point x="231" y="100"/>
      <point x="234" y="157" type="curve" smooth="yes"/>
      <point x="239" y="281"/>
      <point x="278" y="479"/>
      <point x="328" y="479" type="curve" smooth="yes"/>
      <point x="341" y="479"/>
      <point x="351" y="463"/>
      <point x="352" y="432" type="curve"/>
      <point x="374" y="469" type="line"/>
      <point x="358" y="507"/>
      <point x="329" y="533"/>
      <point x="274" y="533" type="curve" smooth="yes"/>
      <point x="128" y="533"/>
      <point x="36" y="363"/>
      <point x="28" y="188" type="curve" smooth="yes"/>
      <point x="23" y="69"/>
      <point x="72" y="-10"/>
    </contour>
    <contour>
      <point x="405" y="-10" type="curve" smooth="yes"/>
      <point x="451" y="-10"/>
      <point x="491" y="8"/>
      <point x="509" y="21" type="curve"/>
      <point x="515" y="58" type="line"/>
      <point x="514" y="56"/>
      <point x="507" y="48"/>
      <point x="499" y="48" type="curve" smooth="yes"/>
      <point x="487" y="48"/>
      <point x="480" y="54"/>
      <point x="481" y="74" type="curve" smooth="yes"/>
      <point x="482" y="86"/>
      <point x="488" y="125"/>
      <point x="496" y="157" type="curve" smooth="yes"/>
      <point x="599" y="750" type="line"/>
      <point x="396" y="750" type="line"/>
      <point x="285" y="135" type="line"/>
      <point x="287" y="136" type="line"/>
      <point x="287" y="129"/>
      <point x="287" y="123"/>
      <point x="287" y="117" type="curve"/>
      <point x="283" y="32"/>
      <point x="334" y="-10"/>
    </contour>
    <contour>
      <point x="76" y="-94" type="line"/>
      <point x="67" y="-144" type="line"/>
      <point x="449" y="-144" type="line"/>
      <point x="458" y="-94" type="line"/>
    </contour>
    <contour>
      <point x="279" y="654" type="line"/>
      <point x="270" y="607" type="line"/>
      <point x="612" y="607" type="line"/>
      <point x="621" y="654" type="line"/>
    </contour>
  </outline>
</glyph>
<glyph name="eight.linprop" format="2">
  <advance width="452"/>
  <outline>
    <contour>
      <point x="260" y="399" type="curve" smooth="yes"/>
      <point x="253" y="399"/>
      <point x="247" y="420"/>
      <point x="249" y="462" type="curve" smooth="yes"/>
      <point x="250" y="483"/>
      <point x="252" y="508"/>
      <point x="261" y="548" type="curve" smooth="yes"/>
      <point x="277" y="636"/>
      <point x="288" y="674"/>
      <point x="305" y="674" type="curve" smooth="yes"/>
      <point x="316" y="674"/>
      <point x="317" y="649"/>
      <point x="316" y="613" type="curve" smooth="yes"/>
      <point x="314" y="583"/>
      <point x="309" y="550"/>
      <point x="301" y="515" type="curve" smooth="yes"/>
      <point x="286" y="429"/>
      <point x="274" y="399"/>
    </contour>
    <contour>
      <point x="198" y="36" type="curve" smooth="yes"/>
      <point x="190" y="36"/>
      <point x="187" y="65"/>
      <point x="189" y="110" type="curve" smooth="yes"/>
      <point x="190" y="141"/>
      <point x="195" y="179"/>
      <point x="206" y="226" type="curve" smooth="yes"/>
      <point x="223" y="318"/>
      <point x="232" y="353"/>
      <point x="249" y="353" type="curve" smooth="yes"/>
      <point x="259" y="353"/>
      <point x="258" y="325"/>
      <point x="256" y="283" type="curve" smooth="yes"/>
      <point x="255" y="253"/>
      <point x="252" y="224"/>
      <point x="245" y="186" type="curve" smooth="yes"/>
      <point x="225" y="75"/>
      <point x="213" y="36"/>
    </contour>
    <contour>
      <point x="212" y="-10" type="curve" smooth="yes"/>
      <point x="349" y="-10"/>
      <point x="436" y="86"/>
      <point x="441" y="206" type="curve" smooth="yes"/>
      <point x="445" y="287"/>
      <point x="418" y="359"/>
      <point x="321" y="384" type="curve"/>
      <point x="329" y="366" type="line"/>
      <point x="334" y="388" type="line"/>
      <point x="317" y="371" type="line"/>
      <point x="437" y="388"/>
      <point x="478" y="471"/>
      <point x="481" y="551" type="curve" smooth="yes"/>
      <point x="485" y="650"/>
      <point x="417" y="720"/>
      <point x="294" y="720" type="curve" smooth="yes"/>
      <point x="170" y="720"/>
      <point x="88" y="644"/>
      <point x="83" y="538" type="curve" smooth="yes"/>
      <point x="80" y="457"/>
      <point x="130" y="395"/>
      <point x="210" y="374" type="curve"/>
      <point x="192" y="398" type="line"/>
      <point x="181" y="366" type="line"/>
      <point x="214" y="393" type="line"/>
      <point x="82" y="385"/>
      <point x="14" y="302"/>
      <point x="9" y="193" type="curve" smooth="yes"/>
      <point x="4" y="69"/>
      <point x="83" y="-10"/>
    </contour>
  </outline>
</glyph>
<glyph name="eight.lintab" format="2">
  <advance width="423"/>
  <outline>
    <contour>
      <point x="182" y="36" type="curve" smooth="yes"/>
      <point x="175" y="36"/>
      <point x="176" y="64"/>
      <point x="178" y="107" type="curve" smooth="yes"/>
      <point x="179" y="139"/>
      <point x="185" y="177"/>
      <point x="194" y="221" type="curve" smooth="yes"/>
      <point x="214" y="320"/>
      <point x="219" y="353"/>
      <point x="233" y="353" type="curve" smooth="yes"/>
      <point x="240" y="353"/>
      <point x="238" y="325"/>
      <point x="236" y="283" type="curve" smooth="yes"/>
      <point x="235" y="254"/>
      <point x="230" y="227"/>
      <point x="223" y="190" type="curve" smooth="yes"/>
      <point x="202" y="76"/>
      <point x="195" y="36"/>
    </contour>
    <contour>
      <point x="244" y="399" type="curve" smooth="yes"/>
      <point x="240" y="399"/>
      <point x="237" y="419"/>
      <point x="239" y="459" type="curve" smooth="yes"/>
      <point x="240" y="481"/>
      <point x="241" y="507"/>
      <point x="251" y="550" type="curve" smooth="yes"/>
      <point x="268" y="639"/>
      <point x="276" y="674"/>
      <point x="289" y="674" type="curve" smooth="yes"/>
      <point x="297" y="674"/>
      <point x="296" y="651"/>
      <point x="295" y="617" type="curve" smooth="yes"/>
      <point x="294" y="585"/>
      <point x="287" y="552"/>
      <point x="279" y="515" type="curve" smooth="yes"/>
      <point x="264" y="429"/>
      <point x="256" y="399"/>
    </contour>
    <contour>
      <point x="196" y="-10" type="curve" smooth="yes"/>
      <point x="328" y="-10"/>
      <point x="413" y="86"/>
      <point x="418" y="206" type="curve" smooth="yes"/>
      <point x="421" y="286"/>
      <point x="399" y="359"/>
      <point x="307" y="384" type="curve"/>
      <point x="317" y="368" type="line"/>
      <point x="322" y="386" type="line"/>
      <point x="292" y="371" type="line"/>
      <point x="414" y="386"/>
      <point x="457" y="470"/>
      <point x="460" y="551" type="curve" smooth="yes"/>
      <point x="464" y="650"/>
      <point x="398" y="720"/>
      <point x="278" y="720" type="curve" smooth="yes"/>
      <point x="158" y="720"/>
      <point x="78" y="644"/>
      <point x="73" y="538" type="curve" smooth="yes"/>
      <point x="70" y="460"/>
      <point x="113" y="401"/>
      <point x="182" y="378" type="curve"/>
      <point x="169" y="402" type="line"/>
      <point x="163" y="378" type="line"/>
      <point x="182" y="392" type="line"/>
      <point x="66" y="379"/>
      <point x="4" y="298"/>
      <point x="-1" y="193" type="curve" smooth="yes"/>
      <point x="-6" y="69"/>
      <point x="71" y="-10"/>
    </contour>
  </outline>
</glyph>
<glyph name="eight.oldtab" format="2">
  <advance width="423"/>
  <outline>
    <contour>
      <point x="187" y="36" type="curve" smooth="yes"/>
      <point x="181" y="36"/>
      <point x="181" y="64"/>
      <point x="183" y="107" type="curve" smooth="yes"/>
      <point x="184" y="139"/>
      <point x="191" y="177"/>
      <point x="200" y="221" type="curve" smooth="yes"/>
      <point x="219" y="320"/>
      <point x="225" y="353"/>
      <point x="238" y="353" type="curve" smooth="yes"/>
      <point x="246" y="353"/>
      <point x="243" y="325"/>
      <point x="241" y="283" type="curve" smooth="yes"/>
      <point x="240" y="254"/>
      <point x="236" y="227"/>
      <point x="229" y="190" type="curve" smooth="yes"/>
      <point x="208" y="76"/>
      <point x="201" y="36"/>
    </contour>
    <contour>
      <point x="250" y="399" type="curve" smooth="yes"/>
      <point x="246" y="399"/>
      <point x="243" y="419"/>
      <point x="245" y="459" type="curve" smooth="yes"/>
      <point x="246" y="481"/>
      <point x="248" y="507"/>
      <point x="256" y="550" type="curve" smooth="yes"/>
      <point x="273" y="639"/>
      <point x="281" y="674"/>
      <point x="295" y="674" type="curve" smooth="yes"/>
      <point x="303" y="674"/>
      <point x="302" y="651"/>
      <point x="301" y="617" type="curve" smooth="yes"/>
      <point x="300" y="585"/>
      <point x="293" y="552"/>
      <point x="284" y="515" type="curve" smooth="yes"/>
      <point x="270" y="429"/>
      <point x="262" y="399"/>
    </contour>
    <contour>
      <point x="202" y="-10" type="curve" smooth="yes"/>
      <point x="335" y="-10"/>
      <point x="420" y="86"/>
      <point x="425" y="206" type="curve" smooth="yes"/>
      <point x="428" y="285"/>
      <point x="404" y="356"/>
      <point x="314" y="383" type="curve"/>
      <point x="317" y="367" type="line"/>
      <point x="326" y="385" type="line"/>
      <point x="311" y="372" type="line"/>
      <point x="423" y="392"/>
      <point x="462" y="472"/>
      <point x="465" y="551" type="curve" smooth="yes"/>
      <point x="469" y="650"/>
      <point x="403" y="720"/>
      <point x="284" y="720" type="curve" smooth="yes"/>
      <point x="163" y="720"/>
      <point x="84" y="644"/>
      <point x="79" y="538" type="curve" smooth="yes"/>
      <point x="76" y="460"/>
      <point x="120" y="400"/>
      <point x="189" y="377" type="curve"/>
      <point x="177" y="396" type="line"/>
      <point x="173" y="376" type="line"/>
      <point x="192" y="392" type="line"/>
      <point x="73" y="381"/>
      <point x="10" y="299"/>
      <point x="5" y="193" type="curve" smooth="yes"/>
      <point x="0" y="69"/>
      <point x="77" y="-10"/>
    </contour>
  </outline>
</glyph>
<glyph name="f.alt" format="2">
  <advance width="347"/>
  <outline>
    <contour>
      <point x="52" y="523" type="line"/>
      <point x="44" y="478" type="line"/>
      <point x="376" y="478" type="line"/>
      <point x="385" y="523" type="line"/>
    </contour>
    <contour>
      <point x="361" y="760" type="curve" smooth="yes"/>
      <point x="249" y="760"/>
      <point x="132" y="706"/>
      <point x="106" y="553" type="curve" smooth="yes"/>
      <point x="-12" y="-223" type="line"/>
      <point x="160" y="-223" type="line"/>
      <point x="326" y="627" type="line" smooth="yes"/>
      <point x="337" y="691"/>
      <point x="351" y="713"/>
      <point x="376" y="713" type="curve" smooth="yes"/>
      <point x="390" y="713"/>
      <point x="397" y="704"/>
      <point x="397" y="692" type="curve"/>
      <point x="402" y="707"/>
      <point x="399" y="724"/>
      <point x="386" y="733" type="curve"/>
      <point x="359" y="604" type="line"/>
      <point x="473" y="604" type="line"/>
      <point x="499" y="726" type="line"/>
      <point x="474" y="741"/>
      <point x="430" y="760"/>
    </contour>
  </outline>
</glyph>
<glyph name="f_f.short" format="2">
  <advance width="603"/>
  <outline>
    <contour>
      <point x="326" y="523" type="line"/>
      <point x="318" y="478" type="line"/>
      <point x="635" y="478" type="line"/>
      <point x="643" y="523" type="line"/>
    </contour>
    <contour>
      <point x="434" y="-223" type="line"/>
      <point x="598" y="619" type="line" smooth="yes"/>
      <point x="609" y="684"/>
      <point x="623" y="712"/>
      <point x="657" y="712" type="curve" smooth="yes"/>
      <point x="673" y="712"/>
      <point x="684" y="707"/>
      <point x="692" y="702" type="curve"/>
      <point x="701" y="750" type="line"/>
      <point x="680" y="757"/>
      <point x="653" y="760"/>
      <point x="629" y="760" type="curve" smooth="yes"/>
      <point x="518" y="760"/>
      <point x="406" y="705"/>
      <point x="381" y="553" type="curve" smooth="yes"/>
      <point x="262" y="-223" type="line"/>
    </contour>
    <contour>
      <point x="52" y="523" type="line"/>
      <point x="44" y="478" type="line"/>
      <point x="346" y="478" type="line"/>
      <point x="355" y="523" type="line"/>
    </contour>
    <contour>
      <point x="160" y="-223" type="line"/>
      <point x="326" y="626" type="line" smooth="yes"/>
      <point x="334" y="680"/>
      <point x="354" y="702"/>
      <point x="373" y="702" type="curve" smooth="yes"/>
      <point x="392" y="702"/>
      <point x="402" y="696"/>
      <point x="403" y="694" type="curve"/>
      <point x="412" y="743" type="line"/>
      <point x="399" y="747"/>
      <point x="378" y="750"/>
      <point x="353" y="750" type="curve" smooth="yes"/>
      <point x="251" y="750"/>
      <point x="130" y="696"/>
      <point x="107" y="550" type="curve" smooth="yes"/>
      <point x="-12" y="-223" type="line"/>
    </contour>
  </outline>
</glyph>
<glyph name="f_f_b.alt" format="2">
  <advance width="1087"/>
  <outline>
    <contour>
      <point x="52" y="523" type="line"/>
      <point x="44" y="478" type="line"/>
      <point x="346" y="478" type="line"/>
      <point x="355" y="523" type="line"/>
    </contour>
    <contour>
      <point x="327" y="523" type="line"/>
      <point x="319" y="478" type="line"/>
      <point x="621" y="478" type="line"/>
      <point x="630" y="523" type="line"/>
    </contour>
    <contour>
      <point x="814" y="-10" type="curve" smooth="yes"/>
      <point x="979" y="-10"/>
      <point x="1080" y="161"/>
      <point x="1087" y="329" type="curve" smooth="yes"/>
      <point x="1093" y="469"/>
      <point x="1042" y="533"/>
      <point x="975" y="533" type="curve" smooth="yes"/>
      <point x="887" y="533"/>
      <point x="832" y="451"/>
      <point x="781" y="318" type="curve"/>
      <point x="794" y="300" type="line"/>
      <point x="825" y="393"/>
      <point x="847" y="438"/>
      <point x="865" y="438" type="curve" smooth="yes"/>
      <point x="880" y="438"/>
      <point x="884" y="408"/>
      <point x="881" y="343" type="curve" smooth="yes"/>
      <point x="876" y="220"/>
      <point x="835" y="32"/>
      <point x="788" y="32" type="curve" smooth="yes"/>
      <point x="759" y="32"/>
      <point x="754" y="66"/>
      <point x="764" y="114" type="curve"/>
      <point x="725" y="84"/>
      <point x="730" y="46"/>
      <point x="768" y="23" type="curve"/>
      <point x="897" y="750" type="line"/>
      <point x="669" y="750" type="line"/>
      <point x="689" y="726" type="line"/>
      <point x="574" y="71" type="line"/>
      <point x="615" y="29"/>
      <point x="693" y="-10"/>
    </contour>
    <contour>
      <point x="379" y="698" type="curve" smooth="yes"/>
      <point x="400" y="698"/>
      <point x="411" y="684"/>
      <point x="417" y="660" type="curve"/>
      <point x="424" y="675"/>
      <point x="430" y="702"/>
      <point x="415" y="708" type="curve"/>
      <point x="382" y="539" type="line"/>
      <point x="488" y="551" type="line"/>
      <point x="521" y="680" type="line"/>
      <point x="498" y="711"/>
      <point x="449" y="745"/>
      <point x="360" y="745" type="curve" smooth="yes"/>
      <point x="265" y="745"/>
      <point x="131" y="698"/>
      <point x="106" y="550" type="curve" smooth="yes"/>
      <point x="-12" y="-223" type="line"/>
      <point x="160" y="-223" type="line"/>
      <point x="323" y="612" type="line" smooth="yes"/>
      <point x="334" y="681"/>
      <point x="362" y="698"/>
    </contour>
    <contour>
      <point x="655" y="713" type="curve" smooth="yes"/>
      <point x="680" y="713"/>
      <point x="698" y="692"/>
      <point x="703" y="675" type="curve"/>
      <point x="775" y="737" type="line"/>
      <point x="744" y="750"/>
      <point x="705" y="760"/>
      <point x="644" y="760" type="curve" smooth="yes"/>
      <point x="528" y="760"/>
      <point x="410" y="689"/>
      <point x="381" y="529" type="curve" smooth="yes"/>
      <point x="262" y="-193" type="line"/>
      <point x="435" y="-193" type="line"/>
      <point x="598" y="617" type="line" smooth="yes"/>
      <point x="611" y="690"/>
      <point x="631" y="713"/>
    </contour>
  </outline>
</glyph>
<glyph name="f_f_b" format="2">
  <advance width="1087"/>
  <outline>
    <contour>
      <point x="52" y="523" type="line"/>
      <point x="44" y="478" type="line"/>
      <point x="346" y="478" type="line"/>
      <point x="355" y="523" type="line"/>
    </contour>
    <contour>
      <point x="327" y="523" type="line"/>
      <point x="319" y="478" type="line"/>
      <point x="621" y="478" type="line"/>
      <point x="630" y="523" type="line"/>
    </contour>
    <contour>
      <point x="814" y="-10" type="curve" smooth="yes"/>
      <point x="979" y="-10"/>
      <point x="1080" y="161"/>
      <point x="1087" y="329" type="curve" smooth="yes"/>
      <point x="1093" y="469"/>
      <point x="1042" y="533"/>
      <point x="975" y="533" type="curve" smooth="yes"/>
      <point x="887" y="533"/>
      <point x="832" y="451"/>
      <point x="781" y="318" type="curve"/>
      <point x="794" y="300" type="line"/>
      <point x="825" y="393"/>
      <point x="847" y="438"/>
      <point x="865" y="438" type="curve" smooth="yes"/>
      <point x="880" y="438"/>
      <point x="884" y="408"/>
      <point x="881" y="343" type="curve" smooth="yes"/>
      <point x="876" y="220"/>
      <point x="835" y="32"/>
      <point x="788" y="32" type="curve" smooth="yes"/>
      <point x="759" y="32"/>
      <point x="754" y="66"/>
      <point x="764" y="114" type="curve"/>
      <point x="726" y="84"/>
      <point x="730" y="47"/>
      <point x="768" y="23" type="curve"/>
      <point x="897" y="750" type="line"/>
      <point x="669" y="750" type="line"/>
      <point x="689" y="726" type="line"/>
      <point x="574" y="71" type="line"/>
      <point x="615" y="29"/>
      <point x="693" y="-10"/>
    </contour>
    <contour>
      <point x="656" y="713" type="curve" smooth="yes"/>
      <point x="683" y="713"/>
      <point x="698" y="692"/>
      <point x="703" y="675" type="curve"/>
      <point x="775" y="737" type="line"/>
      <point x="744" y="750"/>
      <point x="692" y="760"/>
      <point x="644" y="760" type="curve" smooth="yes"/>
      <point x="524" y="760"/>
      <point x="409" y="709"/>
      <point x="382" y="553" type="curve" smooth="yes"/>
      <point x="262" y="-193" type="line"/>
      <point x="435" y="-193" type="line"/>
      <point x="598" y="617" type="line" smooth="yes"/>
      <point x="611" y="690"/>
      <point x="631" y="713"/>
    </contour>
    <contour>
      <point x="373" y="702" type="curve" smooth="yes"/>
      <point x="392" y="702"/>
      <point x="402" y="696"/>
      <point x="403" y="694" type="curve"/>
      <point x="412" y="743" type="line"/>
      <point x="399" y="747"/>
      <point x="378" y="750"/>
      <point x="353" y="750" type="curve" smooth="yes"/>
      <point x="251" y="750"/>
      <point x="130" y="696"/>
      <point x="107" y="550" type="curve" smooth="yes"/>
      <point x="-12" y="-223" type="line"/>
      <point x="160" y="-223" type="line"/>
      <point x="326" y="626" type="line" smooth="yes"/>
      <point x="334" y="680"/>
      <point x="354" y="702"/>
    </contour>
  </outline>
</glyph>
<glyph name="f_f_j" format="2">
  <advance width="817"/>
  <outline>
    <contour>
      <point x="52" y="523" type="line"/>
      <point x="44" y="478" type="line"/>
      <point x="346" y="478" type="line"/>
      <point x="355" y="523" type="line"/>
    </contour>
    <contour>
      <point x="160" y="-223" type="line"/>
      <point x="326" y="626" type="line" smooth="yes"/>
      <point x="334" y="680"/>
      <point x="354" y="702"/>
      <point x="373" y="702" type="curve" smooth="yes"/>
      <point x="392" y="702"/>
      <point x="402" y="696"/>
      <point x="403" y="694" type="curve"/>
      <point x="412" y="743" type="line"/>
      <point x="399" y="747"/>
      <point x="378" y="750"/>
      <point x="353" y="750" type="curve" smooth="yes"/>
      <point x="251" y="750"/>
      <point x="130" y="696"/>
      <point x="107" y="550" type="curve" smooth="yes"/>
      <point x="-12" y="-223" type="line"/>
    </contour>
    <contour>
      <point x="433" y="-193" type="line"/>
      <point x="603" y="641" type="line" smooth="yes"/>
      <point x="611" y="692"/>
      <point x="618" y="712"/>
      <point x="637" y="712" type="curve" smooth="yes"/>
      <point x="644" y="712"/>
      <point x="650" y="709"/>
      <point x="651" y="707" type="curve"/>
      <point x="660" y="756" type="line"/>
      <point x="649" y="758"/>
      <point x="640" y="760"/>
      <point x="619" y="760" type="curve" smooth="yes"/>
      <point x="523" y="760"/>
      <point x="408" y="708"/>
      <point x="384" y="569" type="curve" smooth="yes"/>
      <point x="261" y="-193" type="line"/>
    </contour>
    <contour>
      <point x="760" y="581" type="curve" smooth="yes"/>
      <point x="824" y="581"/>
      <point x="862" y="615"/>
      <point x="864" y="671" type="curve" smooth="yes"/>
      <point x="867" y="727"/>
      <point x="832" y="761"/>
      <point x="768" y="761" type="curve" smooth="yes"/>
      <point x="704" y="761"/>
      <point x="666" y="727"/>
      <point x="663" y="671" type="curve" smooth="yes"/>
      <point x="661" y="614"/>
      <point x="696" y="581"/>
    </contour>
    <contour>
      <point x="327" y="523" type="line"/>
      <point x="319" y="478" type="line"/>
      <point x="623" y="478" type="line" smooth="yes"/>
      <point x="633" y="478"/>
      <point x="634" y="467"/>
      <point x="632" y="448" type="curve" smooth="yes"/>
      <point x="535" y="-86" type="line" smooth="yes"/>
      <point x="524" y="-146"/>
      <point x="520" y="-178"/>
      <point x="500" y="-178" type="curve" smooth="yes"/>
      <point x="493" y="-178"/>
      <point x="487" y="-176"/>
      <point x="485" y="-173" type="curve"/>
      <point x="474" y="-227" type="line"/>
      <point x="489" y="-232"/>
      <point x="510" y="-236"/>
      <point x="529" y="-236" type="curve" smooth="yes"/>
      <point x="657" y="-236"/>
      <point x="727" y="-171"/>
      <point x="759" y="-1" type="curve" smooth="yes"/>
      <point x="847" y="523" type="line"/>
    </contour>
  </outline>
</glyph>
<glyph name="f_f_k.alt" format="2">
  <advance width="1093"/>
  <outline>
    <contour>
      <point x="327" y="523" type="line"/>
      <point x="319" y="478" type="line"/>
      <point x="621" y="478" type="line"/>
      <point x="630" y="523" type="line"/>
    </contour>
    <contour>
      <point x="435" y="-193" type="line"/>
      <point x="598" y="617" type="line" smooth="yes"/>
      <point x="611" y="690"/>
      <point x="631" y="713"/>
      <point x="655" y="713" type="curve" smooth="yes"/>
      <point x="680" y="713"/>
      <point x="698" y="692"/>
      <point x="703" y="675" type="curve"/>
      <point x="775" y="737" type="line"/>
      <point x="744" y="750"/>
      <point x="705" y="760"/>
      <point x="644" y="760" type="curve" smooth="yes"/>
      <point x="528" y="760"/>
      <point x="410" y="689"/>
      <point x="381" y="529" type="curve" smooth="yes"/>
      <point x="262" y="-193" type="line"/>
    </contour>
    <contour>
      <point x="762" y="0" type="line"/>
      <point x="897" y="750" type="line"/>
      <point x="670" y="750" type="line"/>
      <point x="688" y="721" type="line"/>
      <point x="559" y="0" type="line"/>
    </contour>
    <contour>
      <point x="958" y="-10" type="curve" smooth="yes"/>
      <point x="879" y="-10"/>
      <point x="837" y="32"/>
      <point x="833" y="131" type="curve" smooth="yes"/>
      <point x="824" y="281" type="line"/>
      <point x="828" y="293" type="line"/>
      <point x="912" y="380"/>
      <point x="959" y="441"/>
      <point x="997" y="523" type="curve"/>
      <point x="1132" y="523" type="line"/>
      <point x="1131" y="514" type="line"/>
      <point x="1083" y="460"/>
      <point x="1020" y="407"/>
      <point x="952" y="355" type="curve"/>
      <point x="989" y="409" type="line"/>
      <point x="1031" y="135" type="line" smooth="yes"/>
      <point x="1034" y="70"/>
      <point x="1041" y="46"/>
      <point x="1064" y="46" type="curve" smooth="yes"/>
      <point x="1069" y="46"/>
      <point x="1075" y="51"/>
      <point x="1074" y="54" type="curve"/>
      <point x="1068" y="16" type="line"/>
      <point x="1049" y="4"/>
      <point x="1007" y="-10"/>
    </contour>
    <contour>
      <point x="52" y="523" type="line"/>
      <point x="44" y="478" type="line"/>
      <point x="346" y="478" type="line"/>
      <point x="355" y="523" type="line"/>
    </contour>
    <contour>
      <point x="521" y="680" type="line"/>
      <point x="498" y="711"/>
      <point x="449" y="745"/>
      <point x="360" y="745" type="curve" smooth="yes"/>
      <point x="265" y="745"/>
      <point x="131" y="698"/>
      <point x="106" y="550" type="curve" smooth="yes"/>
      <point x="-12" y="-223" type="line"/>
      <point x="160" y="-223" type="line"/>
      <point x="323" y="612" type="line" smooth="yes"/>
      <point x="334" y="681"/>
      <point x="362" y="698"/>
      <point x="379" y="698" type="curve" smooth="yes"/>
      <point x="400" y="698"/>
      <point x="411" y="684"/>
      <point x="417" y="660" type="curve"/>
      <point x="423" y="675"/>
      <point x="430" y="701"/>
      <point x="415" y="708" type="curve"/>
      <point x="382" y="539" type="line"/>
      <point x="488" y="551" type="line"/>
    </contour>
  </outline>
</glyph>
<glyph name="f_f_k" format="2">
  <advance width="1093"/>
  <outline>
    <contour>
      <point x="52" y="523" type="line"/>
      <point x="44" y="478" type="line"/>
      <point x="346" y="478" type="line"/>
      <point x="355" y="523" type="line"/>
    </contour>
    <contour>
      <point x="160" y="-223" type="line"/>
      <point x="326" y="626" type="line" smooth="yes"/>
      <point x="334" y="680"/>
      <point x="354" y="702"/>
      <point x="373" y="702" type="curve" smooth="yes"/>
      <point x="392" y="702"/>
      <point x="402" y="696"/>
      <point x="403" y="694" type="curve"/>
      <point x="412" y="743" type="line"/>
      <point x="399" y="747"/>
      <point x="378" y="750"/>
      <point x="353" y="750" type="curve" smooth="yes"/>
      <point x="251" y="750"/>
      <point x="130" y="696"/>
      <point x="107" y="550" type="curve" smooth="yes"/>
      <point x="-12" y="-223" type="line"/>
    </contour>
    <contour>
      <point x="327" y="523" type="line"/>
      <point x="319" y="478" type="line"/>
      <point x="621" y="478" type="line"/>
      <point x="630" y="523" type="line"/>
    </contour>
    <contour>
      <point x="435" y="-193" type="line"/>
      <point x="598" y="617" type="line" smooth="yes"/>
      <point x="611" y="690"/>
      <point x="631" y="713"/>
      <point x="656" y="713" type="curve" smooth="yes"/>
      <point x="683" y="713"/>
      <point x="698" y="692"/>
      <point x="703" y="675" type="curve"/>
      <point x="775" y="737" type="line"/>
      <point x="744" y="750"/>
      <point x="692" y="760"/>
      <point x="644" y="760" type="curve" smooth="yes"/>
      <point x="524" y="760"/>
      <point x="409" y="709"/>
      <point x="382" y="553" type="curve" smooth="yes"/>
      <point x="262" y="-193" type="line"/>
    </contour>
    <contour>
      <point x="1031" y="135" type="line" smooth="yes"/>
      <point x="1034" y="70"/>
      <point x="1041" y="46"/>
      <point x="1064" y="46" type="curve" smooth="yes"/>
      <point x="1069" y="46"/>
      <point x="1075" y="51"/>
      <point x="1074" y="54" type="curve"/>
      <point x="1068" y="16" type="line"/>
      <point x="1049" y="4"/>
      <point x="1007" y="-10"/>
      <point x="958" y="-10" type="curve" smooth="yes"/>
      <point x="879" y="-10"/>
      <point x="837" y="32"/>
      <point x="833" y="131" type="curve" smooth="yes"/>
      <point x="824" y="281" type="line"/>
      <point x="828" y="293" type="line"/>
      <point x="912" y="380"/>
      <point x="959" y="441"/>
      <point x="997" y="523" type="curve"/>
      <point x="1132" y="523" type="line"/>
      <point x="1131" y="514" type="line"/>
      <point x="1083" y="460"/>
      <point x="1020" y="407"/>
      <point x="952" y="355" type="curve"/>
      <point x="989" y="409" type="line"/>
    </contour>
    <contour>
      <point x="559" y="0" type="line"/>
      <point x="762" y="0" type="line"/>
      <point x="897" y="750" type="line"/>
      <point x="670" y="750" type="line"/>
      <point x="688" y="721" type="line"/>
    </contour>
  </outline>
</glyph>
<glyph name="f_f_l.alt" format="2">
  <advance width="832"/>
  <outline>
    <contour>
      <point x="52" y="523" type="line"/>
      <point x="44" y="478" type="line"/>
      <point x="346" y="478" type="line"/>
      <point x="355" y="523" type="line"/>
    </contour>
    <contour>
      <point x="327" y="523" type="line"/>
      <point x="319" y="478" type="line"/>
      <point x="621" y="478" type="line"/>
      <point x="630" y="523" type="line"/>
    </contour>
    <contour>
      <point x="795" y="157" type="curve"/>
      <point x="897" y="750" type="line"/>
      <point x="670" y="750" type="line"/>
      <point x="689" y="723" type="line"/>
      <point x="606" y="219" type="line" smooth="yes"/>
      <point x="594" y="171"/>
      <point x="587" y="143"/>
      <point x="586" y="117" type="curve" smooth="yes"/>
      <point x="582" y="33"/>
      <point x="633" y="-10"/>
      <point x="703" y="-10" type="curve" smooth="yes"/>
      <point x="750" y="-10"/>
      <point x="790" y="8"/>
      <point x="807" y="21" type="curve"/>
      <point x="815" y="58" type="line"/>
      <point x="813" y="56"/>
      <point x="806" y="48"/>
      <point x="798" y="48" type="curve" smooth="yes"/>
      <point x="785" y="48"/>
      <point x="778" y="54"/>
      <point x="779" y="74" type="curve" smooth="yes"/>
      <point x="780" y="96"/>
      <point x="787" y="125"/>
    </contour>
    <contour>
      <point x="379" y="698" type="curve" smooth="yes"/>
      <point x="400" y="698"/>
      <point x="411" y="684"/>
      <point x="417" y="660" type="curve"/>
      <point x="423" y="673"/>
      <point x="428" y="701"/>
      <point x="415" y="708" type="curve"/>
      <point x="382" y="539" type="line"/>
      <point x="488" y="551" type="line"/>
      <point x="521" y="680" type="line"/>
      <point x="498" y="711"/>
      <point x="449" y="745"/>
      <point x="360" y="745" type="curve" smooth="yes"/>
      <point x="265" y="745"/>
      <point x="131" y="698"/>
      <point x="106" y="550" type="curve" smooth="yes"/>
      <point x="-12" y="-223" type="line"/>
      <point x="160" y="-223" type="line"/>
      <point x="323" y="612" type="line" smooth="yes"/>
      <point x="334" y="681"/>
      <point x="362" y="698"/>
    </contour>
    <contour>
      <point x="655" y="713" type="curve" smooth="yes"/>
      <point x="680" y="713"/>
      <point x="698" y="692"/>
      <point x="703" y="675" type="curve"/>
      <point x="775" y="737" type="line"/>
      <point x="744" y="750"/>
      <point x="705" y="760"/>
      <point x="644" y="760" type="curve" smooth="yes"/>
      <point x="528" y="760"/>
      <point x="410" y="689"/>
      <point x="381" y="529" type="curve" smooth="yes"/>
      <point x="262" y="-193" type="line"/>
      <point x="435" y="-193" type="line"/>
      <point x="598" y="617" type="line" smooth="yes"/>
      <point x="611" y="690"/>
      <point x="631" y="713"/>
    </contour>
  </outline>
</glyph>
